<?xml version="1.0" standalone="no"?>
<!DOCTYPE svg PUBLIC "-//W3C//DTD SVG 1.1//EN" "http://www.w3.org/Graphics/SVG/1.1/DTD/svg11.dtd" >
<svg xmlns="http://www.w3.org/2000/svg" xmlns:xlink="http://www.w3.org/1999/xlink" version="1.1">
<metadata>
Created by FontForge 20170924 at Sun Jun  5 23:42:38 2016
 By www-data
Copyright (c) 2014-2016 by Andriy Konstantynov. All rights reserved.
</metadata>
<defs>
<font id="ProbaPro-Regular" horiz-adv-x="220" >
  <font-face 
    font-family="Proba Pro"
    font-weight="400"
    font-stretch="normal"
    units-per-em="1000"
    panose-1="2 13 0 3 3 2 0 0 0 0"
    ascent="750"
    descent="-250"
    x-height="450"
    cap-height="700"
    bbox="-44 -258 1210 974"
    underline-thickness="50"
    underline-position="-100"
    unicode-range="U+0020-FB04"
  />
<missing-glyph horiz-adv-x="230" 
 />
    <glyph glyph-name="ff" unicode="ff" horiz-adv-x="580" 
d="M350 0v390h-178v-390h-77v390h-63v60h63v155c0 92 61 152 153 152c19 0 38 -3 54 -10v-64c-11 6 -26 10 -41 10c-52 0 -89 -36 -89 -88v-155h178v155c0 92 61 152 153 152c19 0 38 -3 54 -10v-64c-11 6 -26 10 -41 10c-52 0 -89 -36 -89 -88v-155h130v-60h-130v-390h-77z
" />
    <glyph glyph-name="ffi" unicode="ffi" horiz-adv-x="752" 
d="M605 0v390h-178v-390h-77v390h-178v-390h-77v390h-63v60h63v155c0 92 61 152 153 152c19 0 38 -3 54 -10v-64c-11 6 -26 10 -41 10c-52 0 -89 -36 -89 -88v-155h178v155c0 92 61 152 153 152c19 0 38 -3 54 -10v-64c-11 6 -26 10 -41 10c-52 0 -89 -36 -89 -88v-155h253
v-450h-75zM592 585c0 28 22 50 50 50s50 -22 50 -50s-22 -50 -50 -50s-50 22 -50 50z" />
    <glyph glyph-name="f_f_j" unicode="ffj" horiz-adv-x="752" 
d="M540 -250v50c41 0 65 18 65 63v527h-178v-390h-77v390h-178v-390h-77v390h-63v60h63v155c0 92 61 152 153 152c19 0 38 -3 54 -10v-64c-11 6 -26 10 -42 10c-51 0 -88 -36 -88 -88v-155h178v155c0 92 61 152 153 152c19 0 38 -3 54 -10v-64c-11 6 -26 10 -42 10
c-51 0 -88 -36 -88 -88v-155h253v-589c0 -75 -40 -116 -105 -116c-13 0 -28 2 -35 5zM592 585c0 28 22 50 50 50s50 -22 50 -50s-22 -50 -50 -50s-50 22 -50 50z" />
    <glyph glyph-name="ffl" unicode="ffl" horiz-adv-x="782" 
d="M750 50v-50c-7 -3 -25 -5 -38 -5c-65 0 -105 41 -105 116v279h-180v-390h-77v390h-178v-390h-77v390h-63v60h63v155c0 92 61 152 153 152c19 0 38 -3 54 -10v-64c-11 6 -26 10 -42 10c-51 0 -88 -36 -88 -88v-155h178v155c0 92 61 152 153 152c19 0 38 -3 54 -10v-64
c-11 6 -26 10 -42 10c-51 0 -88 -36 -88 -88v-155h180v300h75v-637c0 -45 25 -63 68 -63z" />
    <glyph glyph-name="fi" unicode="fi" horiz-adv-x="497" 
d="M350 0v390h-178v-390h-77v390h-63v60h63v155c0 92 61 152 153 152c19 0 38 -3 54 -10v-64c-11 6 -26 10 -41 10c-52 0 -89 -36 -89 -88v-155h253v-450h-75zM337 585c0 28 22 50 50 50s50 -22 50 -50s-22 -50 -50 -50s-50 22 -50 50z" />
    <glyph glyph-name="f_j" unicode="fj" horiz-adv-x="497" 
d="M285 -250v50c41 0 65 18 65 63v527h-178v-390h-77v390h-63v60h63v155c0 92 61 152 153 152c19 0 38 -3 54 -10v-64c-11 6 -26 10 -42 10c-51 0 -88 -36 -88 -88v-155h253v-589c0 -75 -40 -116 -105 -116c-13 0 -28 2 -35 5zM337 585c0 28 22 50 50 50s50 -22 50 -50
s-22 -50 -50 -50s-50 22 -50 50z" />
    <glyph glyph-name="fl" unicode="fl" horiz-adv-x="527" 
d="M495 50v-50c-7 -3 -25 -5 -38 -5c-65 0 -105 41 -105 116v279h-180v-390h-77v390h-63v60h63v155c0 92 61 152 153 152c19 0 38 -3 54 -10v-64c-11 6 -26 10 -42 10c-51 0 -88 -36 -88 -88v-155h180v300h75v-637c0 -45 25 -63 68 -63z" />
    <glyph glyph-name="afii10104_afii10104" unicode="&#x457;&#x457;" horiz-adv-x="440" 
d="M72 0v450h75v-450h-75zM-14 560c0 26 21 47 47 47c27 0 48 -21 48 -47c0 -27 -21 -48 -48 -48c-26 0 -47 21 -47 48zM292 0v450h75v-450h-75zM358 560c0 27 21 48 48 48s48 -21 48 -48s-21 -48 -48 -48s-48 21 -48 48zM172 560c0 27 21 48 48 48s48 -21 48 -48
s-21 -48 -48 -48s-48 21 -48 48z" />
    <glyph glyph-name="afii10056_afii10056" unicode="&#x407;&#x407;" horiz-adv-x="445" 
d="M72 0v700h78v-700h-78zM-15 797c0 27 21 48 47 48c27 0 48 -21 48 -48c0 -26 -21 -47 -48 -47c-26 0 -47 21 -47 47zM295 0v700h77v-700h-77zM365 797c0 27 21 48 47 48c27 0 48 -21 48 -48c0 -26 -21 -47 -48 -47c-26 0 -47 21 -47 47zM174 797c0 27 21 48 48 48
s48 -21 48 -48c0 -26 -21 -47 -48 -47s-48 21 -48 47z" />
    <glyph glyph-name="quoteright_afii10104" unicode="&#x2019;&#x457;" horiz-adv-x="305" 
d="M51 488l-26 27c22 23 41 48 47 73c-24 4 -42 24 -42 49c0 28 22 50 50 50c24 0 50 -15 50 -58c0 -54 -42 -104 -79 -141zM157 0v450h75v-450h-75zM223 560c0 27 21 48 48 48s48 -21 48 -48s-21 -48 -48 -48s-48 21 -48 48z" />
    <glyph glyph-name="afii10103_afii10104" unicode="&#x456;&#x457;" horiz-adv-x="440" 
d="M72 0v450h75v-450h-75zM60 585c0 28 22 50 50 50s50 -22 50 -50s-22 -50 -50 -50s-50 22 -50 50zM292 0v450h75v-450h-75zM215 560c0 26 21 47 47 47c27 0 48 -21 48 -47c0 -27 -21 -48 -48 -48c-26 0 -47 21 -47 48zM358 560c0 27 21 48 48 48s48 -21 48 -48
s-21 -48 -48 -48s-48 21 -48 48z" />
    <glyph glyph-name=".notdef" horiz-adv-x="230" 
 />
    <glyph glyph-name="caron" unicode="&#x2c7;" horiz-adv-x="352" 
d="M176 511l-126 126l39 39l87 -87l87 87l39 -39z" />
    <glyph glyph-name="cedilla" unicode="&#xb8;" horiz-adv-x="264" 
d="M140 0v-59c40 -7 66 -34 66 -77c0 -47 -34 -79 -83 -79c-25 0 -46 9 -61 24l26 26c9 -9 20 -14 35 -14c27 0 47 17 47 45c0 26 -19 46 -65 46v88h35z" />
    <glyph glyph-name="circumflex" unicode="&#x2c6;" horiz-adv-x="352" 
d="M176 676l126 -126l-39 -39l-87 87l-87 -87l-39 39z" />
    <glyph glyph-name="commaaccent" unicode="&#xf6c3;" 
d="M85 -219l-23 22c20 21 37 43 41 65c-20 3 -36 21 -36 42c0 24 19 42 43 42c21 0 42 -13 42 -49c0 -47 -35 -91 -67 -122z" />
    <glyph glyph-name="dieresis" unicode="&#xa8;" horiz-adv-x="428" 
d="M70 572c0 27 21 48 47 48c27 0 48 -21 48 -48c0 -26 -21 -47 -48 -47c-26 0 -47 21 -47 47zM257 572c0 27 21 48 48 48s48 -21 48 -48c0 -26 -21 -47 -48 -47s-48 21 -48 47z" />
    <glyph glyph-name="dotaccent" unicode="&#x2d9;" 
d="M60 585c0 28 22 50 50 50s50 -22 50 -50s-22 -50 -50 -50s-50 22 -50 50z" />
    <glyph glyph-name="hungarumlaut" unicode="&#x2dd;" horiz-adv-x="415" 
d="M50 550l126 126l39 -39l-126 -126zM200 550l126 126l39 -39l-126 -126z" />
    <glyph glyph-name="grave" unicode="`" horiz-adv-x="265" 
d="M89 676l126 -126l-39 -39l-126 126z" />
    <glyph glyph-name="macron" unicode="&#xaf;" horiz-adv-x="375" 
d="M65 542v48h245v-48h-245z" />
    <glyph glyph-name="ogonek" unicode="&#x2db;" horiz-adv-x="256" 
d="M86 -39c0 -36 23 -57 55 -57c16 0 30 5 40 15l28 -27c-17 -18 -40 -27 -68 -27c-55 0 -94 38 -94 96c0 14 3 27 10 39h39c-6 -10 -10 -25 -10 -39z" />
    <glyph glyph-name="ring" unicode="&#x2da;" horiz-adv-x="275" 
d="M50 595c0 54 36 90 88 90c53 0 88 -36 88 -90s-35 -90 -88 -90c-52 0 -88 36 -88 90zM86 594c0 -32 21 -53 52 -53s52 21 52 53c0 33 -22 54 -52 54c-31 0 -52 -21 -52 -54z" />
    <glyph glyph-name="tilde" unicode="&#x2dc;" horiz-adv-x="337" 
d="M73 538h-43c0 53 35 88 84 88c59 0 65 -48 108 -48c24 0 42 18 42 44h43c0 -53 -35 -88 -85 -88c-60 0 -64 48 -107 48c-24 0 -42 -17 -42 -44z" />
    <glyph glyph-name="space" unicode=" " horiz-adv-x="230" 
 />
    <glyph glyph-name="A" unicode="A" horiz-adv-x="731" 
d="M611 0l-83 200h-326l-82 -200h-90l299 700h73l298 -700h-89zM366 601l-136 -331h270z" />
    <glyph glyph-name="Aacute" unicode="&#xc1;" horiz-adv-x="731" 
d="M611 0l-83 200h-326l-82 -200h-90l299 700h73l298 -700h-89zM366 601l-136 -331h270zM302 775l126 126l39 -39l-126 -126z" />
    <glyph glyph-name="Abreve" unicode="&#x102;" horiz-adv-x="731" 
d="M611 0l-83 200h-326l-82 -200h-90l299 700h73l298 -700h-89zM366 601l-136 -331h270zM365 807c43 0 77 16 102 42l39 -39c-36 -37 -83 -59 -141 -59s-105 23 -141 60l39 39c25 -26 59 -43 102 -43z" />
    <glyph glyph-name="Acircumflex" unicode="&#xc2;" horiz-adv-x="731" 
d="M611 0l-83 200h-326l-82 -200h-90l299 700h73l298 -700h-89zM366 601l-136 -331h270zM365 901l126 -126l-39 -39l-87 87l-87 -87l-39 39z" />
    <glyph glyph-name="Agrave" unicode="&#xc0;" horiz-adv-x="731" 
d="M611 0l-83 200h-326l-82 -200h-90l299 700h73l298 -700h-89zM366 601l-136 -331h270zM302 901l126 -126l-39 -39l-126 126z" />
    <glyph glyph-name="Adieresis" unicode="&#xc4;" horiz-adv-x="731" 
d="M611 0l-83 200h-326l-82 -200h-90l299 700h73l298 -700h-89zM366 601l-136 -331h270zM224 797c0 27 21 48 47 48c27 0 48 -21 48 -48c0 -26 -21 -47 -48 -47c-26 0 -47 21 -47 47zM411 797c0 27 21 48 48 48s48 -21 48 -48c0 -26 -21 -47 -48 -47s-48 21 -48 47z" />
    <glyph glyph-name="Amacron" unicode="&#x100;" horiz-adv-x="731" 
d="M611 0l-83 200h-326l-82 -200h-90l299 700h73l298 -700h-89zM366 601l-136 -331h270zM243 767v48h245v-48h-245z" />
    <glyph glyph-name="Aogonek" unicode="&#x104;" horiz-adv-x="731" 
d="M637 -39c0 -36 23 -57 55 -57c16 0 30 5 40 15l28 -27c-17 -18 -40 -27 -68 -27c-55 0 -94 38 -94 96c0 14 3 27 10 39h3l-83 200h-326l-82 -200h-90l299 700h73l298 -700h-53c-6 -10 -10 -25 -10 -39zM366 601l-136 -331h270z" />
    <glyph glyph-name="Aring" unicode="&#xc5;" horiz-adv-x="731" 
d="M611 0l-83 200h-326l-82 -200h-90l299 700h73l298 -700h-89zM366 601l-136 -331h270zM278 820c0 54 36 90 88 90c53 0 88 -36 88 -90s-35 -90 -88 -90c-52 0 -88 36 -88 90zM314 819c0 -32 21 -53 52 -53s52 21 52 53c0 33 -22 54 -52 54c-31 0 -52 -21 -52 -54z" />
    <glyph glyph-name="Atilde" unicode="&#xc3;" horiz-adv-x="731" 
d="M611 0l-83 200h-326l-82 -200h-90l299 700h73l298 -700h-89zM366 601l-136 -331h270zM269 763h-43c0 53 35 88 84 88c59 0 65 -48 108 -48c24 0 42 18 42 44h43c0 -53 -35 -88 -85 -88c-60 0 -64 48 -107 48c-24 0 -42 -17 -42 -44z" />
    <glyph glyph-name="AE" unicode="&#xc6;" horiz-adv-x="782" 
d="M457 635v-250h238v-65h-238v-255h275v-65h-352v200h-171l-87 -200h-90l311 700h384v-65h-270zM237 270h143v331z" />
    <glyph glyph-name="AEacute" unicode="&#x1fc;" horiz-adv-x="782" 
d="M457 635v-250h238v-65h-238v-255h275v-65h-352v200h-171l-87 -200h-90l311 700h384v-65h-270zM237 270h143v331zM353 775l126 126l39 -39l-126 -126z" />
    <glyph glyph-name="B" unicode="B" horiz-adv-x="555" 
d="M80 0v700h192c112 0 188 -71 188 -181c0 -69 -31 -122 -81 -150c72 -25 119 -89 119 -176c0 -118 -81 -193 -200 -193h-218zM420 198c0 77 -50 129 -125 129h-135v-260h135c75 0 125 52 125 131zM382 513c0 72 -46 119 -115 119h-107v-237h107c69 0 115 47 115 118z" />
    <glyph glyph-name="C" unicode="C" horiz-adv-x="709" 
d="M135 350c0 -171 112 -288 276 -288c84 0 154 29 203 80l50 -49c-62 -64 -151 -101 -257 -101c-210 0 -352 145 -352 358c0 212 142 357 352 357c106 0 195 -37 257 -101l-50 -50c-49 51 -119 81 -203 81c-164 0 -276 -117 -276 -287z" />
    <glyph glyph-name="Cacute" unicode="&#x106;" horiz-adv-x="709" 
d="M135 350c0 -171 112 -288 276 -288c84 0 154 29 203 80l50 -49c-62 -64 -151 -101 -257 -101c-210 0 -352 145 -352 358c0 212 142 357 352 357c106 0 195 -37 257 -101l-50 -50c-49 51 -119 81 -203 81c-164 0 -276 -117 -276 -287zM323 780l126 126l39 -39l-126 -126z
" />
    <glyph glyph-name="Ccaron" unicode="&#x10c;" horiz-adv-x="709" 
d="M135 350c0 -171 112 -288 276 -288c84 0 154 29 203 80l50 -49c-62 -64 -151 -101 -257 -101c-210 0 -352 145 -352 358c0 212 142 357 352 357c106 0 195 -37 257 -101l-50 -50c-49 51 -119 81 -203 81c-164 0 -276 -117 -276 -287zM385 736l-126 126l39 39l87 -87
l87 87l39 -39z" />
    <glyph glyph-name="Ccedilla" unicode="&#xc7;" horiz-adv-x="709" 
d="M135 350c0 -171 112 -288 276 -288c84 0 154 29 203 80l50 -49c-59 -61 -142 -97 -241 -100v-52c40 -7 66 -34 66 -77c0 -47 -34 -79 -83 -79c-25 0 -46 9 -61 24l26 26c9 -9 20 -14 35 -14c27 0 47 17 47 45c0 26 -19 46 -65 46v81c-200 8 -333 150 -333 357
c0 212 142 357 352 357c106 0 195 -37 257 -101l-50 -50c-49 51 -119 81 -203 81c-164 0 -276 -117 -276 -287z" />
    <glyph glyph-name="Ccircumflex" unicode="&#x108;" horiz-adv-x="709" 
d="M135 350c0 -171 112 -288 276 -288c84 0 154 29 203 80l50 -49c-62 -64 -151 -101 -257 -101c-210 0 -352 145 -352 358c0 212 142 357 352 357c106 0 195 -37 257 -101l-50 -50c-49 51 -119 81 -203 81c-164 0 -276 -117 -276 -287zM387 901l126 -126l-39 -39l-87 87
l-87 -87l-39 39z" />
    <glyph glyph-name="Cdotaccent" unicode="&#x10a;" horiz-adv-x="709" 
d="M135 350c0 -171 112 -288 276 -288c84 0 154 29 203 80l50 -49c-62 -64 -151 -101 -257 -101c-210 0 -352 145 -352 358c0 212 142 357 352 357c106 0 195 -37 257 -101l-50 -50c-49 51 -119 81 -203 81c-164 0 -276 -117 -276 -287zM337 810c0 28 22 50 50 50
s50 -22 50 -50s-22 -50 -50 -50s-50 22 -50 50z" />
    <glyph glyph-name="D" unicode="D" horiz-adv-x="702" 
d="M80 0v700h215c210 0 352 -138 352 -350c0 -213 -142 -350 -352 -350h-215zM567 350c0 170 -110 282 -272 282h-135v-565h135c162 0 272 112 272 283z" />
    <glyph glyph-name="Dcaron" unicode="&#x10e;" horiz-adv-x="702" 
d="M80 0v700h215c210 0 352 -138 352 -350c0 -213 -142 -350 -352 -350h-215zM567 350c0 170 -110 282 -272 282h-135v-565h135c162 0 272 112 272 283zM341 736l-126 126l39 39l87 -87l87 87l39 -39z" />
    <glyph glyph-name="Dcroat" unicode="&#x110;" horiz-adv-x="717" 
d="M50 320v60h55v320h205c210 0 352 -138 352 -350c0 -213 -142 -350 -352 -350h-205v320h-55zM582 350c0 170 -110 282 -272 282h-125v-252h160v-60h-160v-253h125c162 0 272 112 272 283z" />
    <glyph glyph-name="Eth" unicode="&#xd0;" horiz-adv-x="717" 
d="M50 320v60h55v320h205c210 0 352 -138 352 -350c0 -213 -142 -350 -352 -350h-205v320h-55zM582 350c0 170 -110 282 -272 282h-125v-252h160v-60h-160v-253h125c162 0 272 112 272 283z" />
    <glyph glyph-name="Thorn" unicode="&#xde;" horiz-adv-x="529" 
d="M80 0v700h80v-145h110c122 0 204 -77 204 -197c0 -119 -82 -196 -204 -196h-110v-162h-80zM394 358c0 78 -50 129 -124 129h-110v-257h110c74 0 124 51 124 128z" />
    <glyph glyph-name="E" unicode="E" horiz-adv-x="507" 
d="M157 635v-250h260v-65h-260v-255h298v-65h-375v700h370v-65h-293z" />
    <glyph glyph-name="Eacute" unicode="&#xc9;" horiz-adv-x="507" 
d="M157 635v-250h260v-65h-260v-255h298v-65h-375v700h370v-65h-293zM203 775l126 126l39 -39l-126 -126z" />
    <glyph glyph-name="Ebreve" unicode="&#x114;" horiz-adv-x="507" 
d="M157 635v-250h260v-65h-260v-255h298v-65h-375v700h370v-65h-293zM266 807c43 0 77 16 102 42l39 -39c-36 -37 -83 -59 -141 -59s-105 23 -141 60l39 39c25 -26 59 -43 102 -43z" />
    <glyph glyph-name="Ecaron" unicode="&#x11a;" horiz-adv-x="507" 
d="M157 635v-250h260v-65h-260v-255h298v-65h-375v700h370v-65h-293zM266 736l-126 126l39 39l87 -87l87 87l39 -39z" />
    <glyph glyph-name="Ecircumflex" unicode="&#xca;" horiz-adv-x="507" 
d="M157 635v-250h260v-65h-260v-255h298v-65h-375v700h370v-65h-293zM266 901l126 -126l-39 -39l-87 87l-87 -87l-39 39z" />
    <glyph glyph-name="Edieresis" unicode="&#xcb;" horiz-adv-x="507" 
d="M157 635v-250h260v-65h-260v-255h298v-65h-375v700h370v-65h-293zM124 797c0 27 21 48 47 48c27 0 48 -21 48 -48c0 -26 -21 -47 -48 -47c-26 0 -47 21 -47 47zM311 797c0 27 21 48 48 48s48 -21 48 -48c0 -26 -21 -47 -48 -47s-48 21 -48 47z" />
    <glyph glyph-name="Edotaccent" unicode="&#x116;" horiz-adv-x="507" 
d="M157 635v-250h260v-65h-260v-255h298v-65h-375v700h370v-65h-293zM216 810c0 28 22 50 50 50s50 -22 50 -50s-22 -50 -50 -50s-50 22 -50 50z" />
    <glyph glyph-name="Egrave" unicode="&#xc8;" horiz-adv-x="507" 
d="M157 635v-250h260v-65h-260v-255h298v-65h-375v700h370v-65h-293zM202 901l126 -126l-39 -39l-126 126z" />
    <glyph glyph-name="Emacron" unicode="&#x112;" horiz-adv-x="507" 
d="M157 635v-250h260v-65h-260v-255h298v-65h-375v700h370v-65h-293zM143 767v48h245v-48h-245z" />
    <glyph glyph-name="Eogonek" unicode="&#x118;" horiz-adv-x="507" 
d="M343 -39c0 -36 23 -57 55 -57c16 0 30 5 40 15l28 -27c-17 -18 -40 -27 -68 -27c-55 0 -94 38 -94 96c0 14 3 27 10 39h-234v700h370v-65h-293v-250h260v-65h-260v-255h298v-65h-102c-6 -10 -10 -25 -10 -39z" />
    <glyph glyph-name="F" unicode="F" horiz-adv-x="481" 
d="M157 635v-250h243v-65h-243v-320h-77v700h355v-65h-278z" />
    <glyph glyph-name="G" unicode="G" horiz-adv-x="744" 
d="M407 305v65h257v-277c-62 -64 -152 -101 -257 -101c-210 0 -352 145 -352 358c0 212 142 357 352 357c106 0 195 -37 257 -101l-50 -50c-49 51 -119 81 -203 81c-164 0 -276 -117 -276 -287c0 -171 112 -288 276 -288c70 0 130 21 175 59v184h-179z" />
    <glyph glyph-name="Gbreve" unicode="&#x11e;" horiz-adv-x="744" 
d="M407 305v65h257v-277c-62 -64 -152 -101 -257 -101c-210 0 -352 145 -352 358c0 212 142 357 352 357c106 0 195 -37 257 -101l-50 -50c-49 51 -119 81 -203 81c-164 0 -276 -117 -276 -287c0 -171 112 -288 276 -288c70 0 130 21 175 59v184h-179zM406 807
c43 0 77 16 102 42l39 -39c-36 -37 -83 -59 -141 -59s-105 23 -141 60l39 39c25 -26 59 -43 102 -43z" />
    <glyph glyph-name="Gcircumflex" unicode="&#x11c;" horiz-adv-x="744" 
d="M407 305v65h257v-277c-62 -64 -152 -101 -257 -101c-210 0 -352 145 -352 358c0 212 142 357 352 357c106 0 195 -37 257 -101l-50 -50c-49 51 -119 81 -203 81c-164 0 -276 -117 -276 -287c0 -171 112 -288 276 -288c70 0 130 21 175 59v184h-179zM406 901l126 -126
l-39 -39l-87 87l-87 -87l-39 39z" />
    <glyph glyph-name="Gcommaaccent" unicode="&#x122;" horiz-adv-x="744" 
d="M407 305v65h257v-277c-62 -64 -152 -101 -257 -101c-210 0 -352 145 -352 358c0 212 142 357 352 357c106 0 195 -37 257 -101l-50 -50c-49 51 -119 81 -203 81c-164 0 -276 -117 -276 -287c0 -171 112 -288 276 -288c70 0 130 21 175 59v184h-179zM374 -219l-23 22
c20 21 37 43 41 65c-20 3 -36 21 -36 42c0 24 19 42 43 42c21 0 42 -13 42 -49c0 -47 -35 -91 -67 -122z" />
    <glyph glyph-name="Gdotaccent" unicode="&#x120;" horiz-adv-x="744" 
d="M407 305v65h257v-277c-62 -64 -152 -101 -257 -101c-210 0 -352 145 -352 358c0 212 142 357 352 357c106 0 195 -37 257 -101l-50 -50c-49 51 -119 81 -203 81c-164 0 -276 -117 -276 -287c0 -171 112 -288 276 -288c70 0 130 21 175 59v184h-179zM356 810
c0 28 22 50 50 50s50 -22 50 -50s-22 -50 -50 -50s-50 22 -50 50z" />
    <glyph glyph-name="H" unicode="H" horiz-adv-x="700" 
d="M157 700v-315h385v315h78v-700h-78v320h-385v-320h-77v700h77z" />
    <glyph glyph-name="Hbar" unicode="&#x126;" horiz-adv-x="710" 
d="M105 0v510h-60v60h60v130h77v-130h340v130h78v-130h65v-60h-65v-510h-78v320h-340v-320h-77zM182 385h340v125h-340v-125z" />
    <glyph glyph-name="Hcircumflex" unicode="&#x124;" horiz-adv-x="700" 
d="M157 700v-315h385v315h78v-700h-78v320h-385v-320h-77v700h77zM350 901l126 -126l-39 -39l-87 87l-87 -87l-39 39z" />
    <glyph glyph-name="I" unicode="I" horiz-adv-x="232" 
d="M77 0v700h78v-700h-78z" />
    <glyph glyph-name="Iacute" unicode="&#xcd;" horiz-adv-x="232" 
d="M77 0v700h78v-700h-78zM54 775l126 126l39 -39l-126 -126z" />
    <glyph glyph-name="Ibreve" unicode="&#x12c;" horiz-adv-x="232" 
d="M77 0v700h78v-700h-78zM116 807c43 0 77 16 102 42l39 -39c-36 -37 -83 -59 -141 -59s-105 23 -141 60l39 39c25 -26 59 -43 102 -43z" />
    <glyph glyph-name="Icircumflex" unicode="&#xce;" horiz-adv-x="232" 
d="M77 0v700h78v-700h-78zM116 901l126 -126l-39 -39l-87 87l-87 -87l-39 39z" />
    <glyph glyph-name="Idieresis" unicode="&#xcf;" horiz-adv-x="232" 
d="M77 0v700h78v-700h-78zM-10 797c0 27 21 48 47 48c27 0 48 -21 48 -48c0 -26 -21 -47 -48 -47c-26 0 -47 21 -47 47zM147 797c0 27 21 48 48 48s48 -21 48 -48c0 -26 -21 -47 -48 -47s-48 21 -48 47z" />
    <glyph glyph-name="Idotaccent" unicode="&#x130;" horiz-adv-x="232" 
d="M77 0v700h78v-700h-78zM66 810c0 28 22 50 50 50s50 -22 50 -50s-22 -50 -50 -50s-50 22 -50 50z" />
    <glyph glyph-name="Igrave" unicode="&#xcc;" horiz-adv-x="232" 
d="M77 0v700h78v-700h-78zM53 901l126 -126l-39 -39l-126 126z" />
    <glyph glyph-name="Imacron" unicode="&#x12a;" horiz-adv-x="232" 
d="M77 0v700h78v-700h-78zM-6 767v48h245v-48h-245z" />
    <glyph glyph-name="Iogonek" unicode="&#x12e;" horiz-adv-x="232" 
d="M77 0v700h78v-700h-78zM106 -39c0 -36 23 -57 55 -57c16 0 30 5 40 15l28 -27c-17 -18 -40 -27 -68 -27c-55 0 -94 38 -94 96c0 14 3 27 10 39h39c-6 -10 -10 -25 -10 -39z" />
    <glyph glyph-name="Itilde" unicode="&#x128;" horiz-adv-x="232" 
d="M77 0v700h78v-700h-78zM21 763h-43c0 53 35 88 84 88c59 0 65 -48 108 -48c24 0 42 18 42 44h43c0 -53 -35 -88 -85 -88c-60 0 -64 48 -107 48c-24 0 -42 -17 -42 -44z" />
    <glyph glyph-name="IJ" unicode="&#x132;" horiz-adv-x="512" 
d="M80 250v450h77v-450h-77zM357 190v510h78v-510c0 -118 -81 -198 -197 -198c-58 0 -109 21 -143 56l50 50c21 -22 52 -36 90 -36c72 0 122 52 122 128z" />
    <glyph glyph-name="J" unicode="J" horiz-adv-x="462" 
d="M307 190v510h78v-510c0 -118 -81 -198 -197 -198c-58 0 -109 21 -143 56l50 50c21 -22 52 -36 90 -36c72 0 122 52 122 128z" />
    <glyph glyph-name="Jcircumflex" unicode="&#x134;" horiz-adv-x="462" 
d="M307 190v510h78v-510c0 -118 -81 -198 -197 -198c-58 0 -109 21 -143 56l50 50c21 -22 52 -36 90 -36c72 0 122 52 122 128zM346 901l126 -126l-39 -39l-87 87l-87 -87l-39 39z" />
    <glyph glyph-name="K" unicode="K" horiz-adv-x="607" 
d="M77 0v700h78v-700h-78zM472 0l-308 359l288 341h97l-287 -341l310 -359h-100z" />
    <glyph glyph-name="Kcommaaccent" unicode="&#x136;" horiz-adv-x="607" 
d="M77 0v700h78v-700h-78zM472 0l-308 359l288 341h97l-287 -341l310 -359h-100zM280 -219l-23 22c20 21 37 43 41 65c-20 3 -36 21 -36 42c0 24 19 42 43 42c21 0 42 -13 42 -49c0 -47 -35 -91 -67 -122z" />
    <glyph glyph-name="L" unicode="L" horiz-adv-x="475" 
d="M157 700v-635h273v-65h-350v700h77z" />
    <glyph glyph-name="Lacute" unicode="&#x139;" horiz-adv-x="475" 
d="M157 700v-635h273v-65h-350v700h77zM155 775l126 126l39 -39l-126 -126z" />
    <glyph glyph-name="Lcaron" unicode="&#x13d;" horiz-adv-x="475" 
d="M157 700v-635h273v-65h-350v700h77zM119 736l-126 126l39 39l87 -87l87 87l39 -39z" />
    <glyph glyph-name="Lcommaaccent" unicode="&#x13b;" horiz-adv-x="475" 
d="M157 700v-635h273v-65h-350v700h77zM230 -219l-23 22c20 21 37 43 41 65c-20 3 -36 21 -36 42c0 24 19 42 43 42c21 0 42 -13 42 -49c0 -47 -35 -91 -67 -122z" />
    <glyph glyph-name="Ldot" unicode="&#x13f;" horiz-adv-x="475" 
d="M157 700v-635h273v-65h-350v700h77zM305 325c0 28 22 50 50 50s50 -22 50 -50s-22 -50 -50 -50s-50 22 -50 50z" />
    <glyph glyph-name="Lslash" unicode="&#x141;" horiz-adv-x="504" 
d="M15 233l94 94v373h78v-312l89 89l39 -39l-128 -128v-245h272v-65h-350v249l-55 -55z" />
    <glyph glyph-name="M" unicode="M" horiz-adv-x="818" 
d="M660 0v540l-234 -380h-34l-235 380v-540h-77v700h59l270 -431l270 431h59v-700h-78z" />
    <glyph glyph-name="N" unicode="N" horiz-adv-x="722" 
d="M80 700h52l433 -553v553h77v-700h-52l-433 553v-553h-77v700z" />
    <glyph glyph-name="Nacute" unicode="&#x143;" horiz-adv-x="722" 
d="M80 700h52l433 -553v553h77v-700h-52l-433 553v-553h-77v700zM298 775l126 126l39 -39l-126 -126z" />
    <glyph glyph-name="Ncaron" unicode="&#x147;" horiz-adv-x="722" 
d="M80 700h52l433 -553v553h77v-700h-52l-433 553v-553h-77v700zM361 736l-126 126l39 39l87 -87l87 87l39 -39z" />
    <glyph glyph-name="Ncommaaccent" unicode="&#x145;" horiz-adv-x="722" 
d="M80 700h52l433 -553v553h77v-700h-52l-433 553v-553h-77v700zM338 -219l-23 22c20 21 37 43 41 65c-20 3 -36 21 -36 42c0 24 19 42 43 42c21 0 42 -13 42 -49c0 -47 -35 -91 -67 -122z" />
    <glyph glyph-name="Ntilde" unicode="&#xd1;" horiz-adv-x="722" 
d="M80 700h52l433 -553v553h77v-700h-52l-433 553v-553h-77v700zM265 763h-43c0 53 35 88 84 88c59 0 65 -48 108 -48c24 0 42 18 42 44h43c0 -53 -35 -88 -85 -88c-60 0 -64 48 -107 48c-24 0 -42 -17 -42 -44z" />
    <glyph glyph-name="Eng" unicode="&#x14a;" horiz-adv-x="722" 
d="M510 -250v50c32 0 55 17 55 53v175l-408 525v-553h-77v700h52l433 -553v553h77v-849c0 -66 -40 -106 -99 -106c-10 0 -26 2 -33 5z" />
    <glyph glyph-name="O" unicode="O" horiz-adv-x="806" 
d="M54 350c0 212 141 357 349 357s349 -145 349 -357c0 -213 -141 -358 -349 -358s-349 145 -349 358zM134 350c0 -171 110 -288 269 -288c160 0 269 117 269 288c0 170 -109 287 -269 287c-159 0 -269 -117 -269 -287z" />
    <glyph glyph-name="Oacute" unicode="&#xd3;" horiz-adv-x="806" 
d="M54 350c0 212 141 357 349 357s349 -145 349 -357c0 -213 -141 -358 -349 -358s-349 145 -349 358zM134 350c0 -171 110 -288 269 -288c160 0 269 117 269 288c0 170 -109 287 -269 287c-159 0 -269 -117 -269 -287zM340 775l126 126l39 -39l-126 -126z" />
    <glyph glyph-name="Obreve" unicode="&#x14e;" horiz-adv-x="806" 
d="M54 350c0 212 141 357 349 357s349 -145 349 -357c0 -213 -141 -358 -349 -358s-349 145 -349 358zM134 350c0 -171 110 -288 269 -288c160 0 269 117 269 288c0 170 -109 287 -269 287c-159 0 -269 -117 -269 -287zM403 807c43 0 77 16 102 42l39 -39
c-36 -37 -83 -59 -141 -59s-105 23 -141 60l39 39c25 -26 59 -43 102 -43z" />
    <glyph glyph-name="Ocircumflex" unicode="&#xd4;" horiz-adv-x="806" 
d="M54 350c0 212 141 357 349 357s349 -145 349 -357c0 -213 -141 -358 -349 -358s-349 145 -349 358zM134 350c0 -171 110 -288 269 -288c160 0 269 117 269 288c0 170 -109 287 -269 287c-159 0 -269 -117 -269 -287zM403 901l126 -126l-39 -39l-87 87l-87 -87l-39 39z
" />
    <glyph glyph-name="Odieresis" unicode="&#xd6;" horiz-adv-x="806" 
d="M54 350c0 212 141 357 349 357s349 -145 349 -357c0 -213 -141 -358 -349 -358s-349 145 -349 358zM134 350c0 -171 110 -288 269 -288c160 0 269 117 269 288c0 170 -109 287 -269 287c-159 0 -269 -117 -269 -287zM262 797c0 27 21 48 47 48c27 0 48 -21 48 -48
c0 -26 -21 -47 -48 -47c-26 0 -47 21 -47 47zM449 797c0 27 21 48 48 48s48 -21 48 -48c0 -26 -21 -47 -48 -47s-48 21 -48 47z" />
    <glyph glyph-name="Ograve" unicode="&#xd2;" horiz-adv-x="806" 
d="M54 350c0 212 141 357 349 357s349 -145 349 -357c0 -213 -141 -358 -349 -358s-349 145 -349 358zM134 350c0 -171 110 -288 269 -288c160 0 269 117 269 288c0 170 -109 287 -269 287c-159 0 -269 -117 -269 -287zM340 901l126 -126l-39 -39l-126 126z" />
    <glyph glyph-name="Ohungarumlaut" unicode="&#x150;" horiz-adv-x="806" 
d="M54 350c0 212 141 357 349 357s349 -145 349 -357c0 -213 -141 -358 -349 -358s-349 145 -349 358zM134 350c0 -171 110 -288 269 -288c160 0 269 117 269 288c0 170 -109 287 -269 287c-159 0 -269 -117 -269 -287zM266 775l126 126l39 -39l-126 -126zM416 775l126 126
l39 -39l-126 -126z" />
    <glyph glyph-name="Omacron" unicode="&#x14c;" horiz-adv-x="806" 
d="M54 350c0 212 141 357 349 357s349 -145 349 -357c0 -213 -141 -358 -349 -358s-349 145 -349 358zM134 350c0 -171 110 -288 269 -288c160 0 269 117 269 288c0 170 -109 287 -269 287c-159 0 -269 -117 -269 -287zM281 767v48h245v-48h-245z" />
    <glyph glyph-name="Oslash" unicode="&#xd8;" horiz-adv-x="806" 
d="M56 -8l89 104c-58 63 -91 150 -91 254c0 212 141 357 349 357c83 0 154 -23 211 -64l55 64h81l-90 -105c58 -62 92 -149 92 -252c0 -213 -141 -358 -349 -358c-83 0 -155 22 -212 63l-54 -63h-81zM134 350c0 -78 23 -145 62 -194l369 430c-43 32 -99 51 -162 51
c-159 0 -269 -117 -269 -287zM672 350c0 77 -23 143 -63 193l-368 -430c44 -33 99 -51 162 -51c160 0 269 117 269 288z" />
    <glyph glyph-name="Oslashacute" unicode="&#x1fe;" horiz-adv-x="806" 
d="M56 -8l89 104c-58 63 -91 150 -91 254c0 212 141 357 349 357c83 0 154 -23 211 -64l55 64h81l-90 -105c58 -62 92 -149 92 -252c0 -213 -141 -358 -349 -358c-83 0 -155 22 -212 63l-54 -63h-81zM134 350c0 -78 23 -145 62 -194l369 430c-43 32 -99 51 -162 51
c-159 0 -269 -117 -269 -287zM672 350c0 77 -23 143 -63 193l-368 -430c44 -33 99 -51 162 -51c160 0 269 117 269 288zM340 775l126 126l39 -39l-126 -126z" />
    <glyph glyph-name="Otilde" unicode="&#xd5;" horiz-adv-x="806" 
d="M54 350c0 212 141 357 349 357s349 -145 349 -357c0 -213 -141 -358 -349 -358s-349 145 -349 358zM134 350c0 -171 110 -288 269 -288c160 0 269 117 269 288c0 170 -109 287 -269 287c-159 0 -269 -117 -269 -287zM307 763h-43c0 53 35 88 84 88c59 0 65 -48 108 -48
c24 0 42 18 42 44h43c0 -53 -35 -88 -85 -88c-60 0 -64 48 -107 48c-24 0 -42 -17 -42 -44z" />
    <glyph glyph-name="OE" unicode="&#x152;" horiz-adv-x="886" 
d="M561 635v-250h237v-65h-237v-255h275v-65h-349c-26 -5 -52 -8 -80 -8c-210 0 -352 145 -352 358c0 212 142 357 352 357c27 0 54 -3 79 -7h345v-65h-270zM407 62c28 0 53 4 77 12v552c-24 7 -50 11 -77 11c-161 0 -272 -117 -272 -287c0 -171 111 -288 272 -288z" />
    <glyph glyph-name="P" unicode="P" horiz-adv-x="529" 
d="M80 0v700h190c122 0 204 -77 204 -197c0 -119 -82 -196 -204 -196h-110v-307h-80zM394 503c0 78 -50 129 -124 129h-110v-257h110c74 0 124 51 124 128z" />
    <glyph glyph-name="Q" unicode="Q" horiz-adv-x="807" 
d="M715 -26l-90 91c-58 -46 -134 -73 -222 -73c-208 0 -349 145 -349 358c0 212 141 357 349 357s349 -145 349 -357c0 -95 -28 -175 -78 -235l90 -91zM134 350c0 -171 109 -288 269 -288c66 0 127 18 170 55l-112 114l49 49l106 -108c36 46 55 107 55 178
c0 170 -108 287 -268 287s-269 -117 -269 -287z" />
    <glyph glyph-name="R" unicode="R" horiz-adv-x="544" 
d="M421 0l-166 307h-95v-307h-80v700h197c122 0 205 -77 205 -197c0 -100 -58 -170 -148 -190l176 -313h-89zM402 503c0 78 -50 129 -125 129h-117v-257h117c75 0 125 51 125 128z" />
    <glyph glyph-name="Racute" unicode="&#x154;" horiz-adv-x="544" 
d="M421 0l-166 307h-95v-307h-80v700h197c122 0 205 -77 205 -197c0 -100 -58 -170 -148 -190l176 -313h-89zM402 503c0 78 -50 129 -125 129h-117v-257h117c75 0 125 51 125 128zM204 775l126 126l39 -39l-126 -126z" />
    <glyph glyph-name="Rcaron" unicode="&#x158;" horiz-adv-x="544" 
d="M421 0l-166 307h-95v-307h-80v700h197c122 0 205 -77 205 -197c0 -100 -58 -170 -148 -190l176 -313h-89zM402 503c0 78 -50 129 -125 129h-117v-257h117c75 0 125 51 125 128zM267 736l-126 126l39 39l87 -87l87 87l39 -39z" />
    <glyph glyph-name="Rcommaaccent" unicode="&#x156;" horiz-adv-x="544" 
d="M421 0l-166 307h-95v-307h-80v700h197c122 0 205 -77 205 -197c0 -100 -58 -170 -148 -190l176 -313h-89zM402 503c0 78 -50 129 -125 129h-117v-257h117c75 0 125 51 125 128zM249 -219l-23 22c20 21 37 43 41 65c-20 3 -36 21 -36 42c0 24 19 42 43 42
c21 0 42 -13 42 -49c0 -47 -35 -91 -67 -122z" />
    <glyph glyph-name="S" unicode="S" horiz-adv-x="541" 
d="M461 624l-49 -49c-33 36 -93 62 -148 62c-88 0 -122 -65 -122 -117c0 -162 339 -106 339 -327c0 -102 -70 -201 -216 -201c-85 0 -164 34 -219 93l48 49c41 -46 106 -72 164 -72c103 0 143 75 143 129c0 157 -339 98 -339 327c0 97 61 189 195 189c76 0 152 -29 204 -83z
" />
    <glyph glyph-name="Sacute" unicode="&#x15a;" horiz-adv-x="541" 
d="M461 624l-49 -49c-33 36 -93 62 -148 62c-88 0 -122 -65 -122 -117c0 -162 339 -106 339 -327c0 -102 -70 -201 -216 -201c-85 0 -164 34 -219 93l48 49c41 -46 106 -72 164 -72c103 0 143 75 143 129c0 157 -339 98 -339 327c0 97 61 189 195 189c76 0 152 -29 204 -83z
M195 775l126 126l39 -39l-126 -126z" />
    <glyph glyph-name="Scaron" unicode="&#x160;" horiz-adv-x="541" 
d="M461 624l-49 -49c-33 36 -93 62 -148 62c-88 0 -122 -65 -122 -117c0 -162 339 -106 339 -327c0 -102 -70 -201 -216 -201c-85 0 -164 34 -219 93l48 49c41 -46 106 -72 164 -72c103 0 143 75 143 129c0 157 -339 98 -339 327c0 97 61 189 195 189c76 0 152 -29 204 -83z
M258 736l-126 126l39 39l87 -87l87 87l39 -39z" />
    <glyph glyph-name="Scedilla" unicode="&#x15e;" horiz-adv-x="541" 
d="M461 624l-49 -49c-33 36 -93 62 -148 62c-88 0 -122 -65 -122 -117c0 -162 339 -106 339 -327c0 -98 -65 -193 -199 -200v-52c40 -7 66 -34 66 -77c0 -47 -34 -79 -83 -79c-25 0 -46 9 -61 24l26 26c9 -9 20 -14 35 -14c27 0 47 17 47 45c0 26 -19 46 -65 46v81
c-78 4 -150 37 -201 92l48 49c41 -46 106 -72 164 -72c103 0 143 75 143 129c0 157 -339 98 -339 327c0 97 61 189 195 189c76 0 152 -29 204 -83z" />
    <glyph glyph-name="Scircumflex" unicode="&#x15c;" horiz-adv-x="541" 
d="M461 624l-49 -49c-33 36 -93 62 -148 62c-88 0 -122 -65 -122 -117c0 -162 339 -106 339 -327c0 -102 -70 -201 -216 -201c-85 0 -164 34 -219 93l48 49c41 -46 106 -72 164 -72c103 0 143 75 143 129c0 157 -339 98 -339 327c0 97 61 189 195 189c76 0 152 -29 204 -83z
M258 901l126 -126l-39 -39l-87 87l-87 -87l-39 39z" />
    <glyph glyph-name="Scommaaccent" unicode="&#x218;" horiz-adv-x="541" 
d="M461 624l-49 -49c-33 36 -93 62 -148 62c-88 0 -122 -65 -122 -117c0 -162 339 -106 339 -327c0 -102 -70 -201 -216 -201c-85 0 -164 34 -219 93l48 49c41 -46 106 -72 164 -72c103 0 143 75 143 129c0 157 -339 98 -339 327c0 97 61 189 195 189c76 0 152 -29 204 -83z
M243 -219l-23 22c20 21 37 43 41 65c-20 3 -36 21 -36 42c0 24 19 42 43 42c21 0 42 -13 42 -49c0 -47 -35 -91 -67 -122z" />
    <glyph glyph-name="T" unicode="T" horiz-adv-x="567" 
d="M322 635v-635h-77v635h-200v65h477v-65h-200z" />
    <glyph glyph-name="Tbar" unicode="&#x166;" horiz-adv-x="567" 
d="M100 340v60h145v235h-200v65h477v-65h-200v-235h145v-60h-145v-340h-77v340h-145z" />
    <glyph glyph-name="Tcaron" unicode="&#x164;" horiz-adv-x="567" 
d="M322 635v-635h-77v635h-200v65h477v-65h-200zM283 736l-126 126l39 39l87 -87l87 87l39 -39z" />
    <glyph glyph-name="Tcommaaccent" unicode="&#x162;" horiz-adv-x="567" 
d="M322 635v-635h-77v635h-200v65h477v-65h-200zM261 -219l-23 22c20 21 37 43 41 65c-20 3 -36 21 -36 42c0 24 19 42 43 42c21 0 42 -13 42 -49c0 -47 -35 -91 -67 -122z" />
    <glyph glyph-name="uni021A" unicode="&#x21a;" horiz-adv-x="567" 
d="M322 635v-635h-77v635h-200v65h477v-65h-200zM261 -219l-23 22c20 21 37 43 41 65c-20 3 -36 21 -36 42c0 24 19 42 43 42c21 0 42 -13 42 -49c0 -47 -35 -91 -67 -122z" />
    <glyph glyph-name="T_h" horiz-adv-x="1009" 
d="M322 635v-635h-77v635h-200v65h509v50h75v-337c35 28 80 44 131 44c103 0 169 -75 169 -185v-272h-75v272c0 70 -45 118 -111 118c-47 0 -87 -17 -114 -45v-345h-75v635h-232z" />
    <glyph glyph-name="T_h.caron" horiz-adv-x="1009" 
d="M322 635v-635h-77v635h-200v65h509v50h75v-337c35 28 80 44 131 44c103 0 169 -75 169 -185v-272h-75v272c0 70 -45 118 -111 118c-47 0 -87 -17 -114 -45v-345h-75v635h-232zM283 736l-126 126l39 39l87 -87l87 87l39 -39z" />
    <glyph glyph-name="T_h.commaaccent" horiz-adv-x="1009" 
d="M322 635v-635h-77v635h-200v65h509v50h75v-337c35 28 80 44 131 44c103 0 169 -75 169 -185v-272h-75v272c0 70 -45 118 -111 118c-47 0 -87 -17 -114 -45v-345h-75v635h-232zM261 -219l-23 22c20 21 37 43 41 65c-20 3 -36 21 -36 42c0 24 19 42 43 42
c21 0 42 -13 42 -49c0 -47 -35 -91 -67 -122z" />
    <glyph glyph-name="U" unicode="U" horiz-adv-x="682" 
d="M524 255v445h78v-445c0 -157 -106 -263 -262 -263s-260 106 -260 263v445h77v-445c0 -115 75 -193 183 -193c109 0 184 78 184 193z" />
    <glyph glyph-name="Uacute" unicode="&#xda;" horiz-adv-x="682" 
d="M524 255v445h78v-445c0 -157 -106 -263 -262 -263s-260 106 -260 263v445h77v-445c0 -115 75 -193 183 -193c109 0 184 78 184 193zM278 775l126 126l39 -39l-126 -126z" />
    <glyph glyph-name="Ubreve" unicode="&#x16c;" horiz-adv-x="682" 
d="M524 255v445h78v-445c0 -157 -106 -263 -262 -263s-260 106 -260 263v445h77v-445c0 -115 75 -193 183 -193c109 0 184 78 184 193zM341 807c43 0 77 16 102 42l39 -39c-36 -37 -83 -59 -141 -59s-105 23 -141 60l39 39c25 -26 59 -43 102 -43z" />
    <glyph glyph-name="Ucircumflex" unicode="&#xdb;" horiz-adv-x="682" 
d="M524 255v445h78v-445c0 -157 -106 -263 -262 -263s-260 106 -260 263v445h77v-445c0 -115 75 -193 183 -193c109 0 184 78 184 193zM341 901l126 -126l-39 -39l-87 87l-87 -87l-39 39z" />
    <glyph glyph-name="Udieresis" unicode="&#xdc;" horiz-adv-x="682" 
d="M524 255v445h78v-445c0 -157 -106 -263 -262 -263s-260 106 -260 263v445h77v-445c0 -115 75 -193 183 -193c109 0 184 78 184 193zM199 797c0 27 21 48 47 48c27 0 48 -21 48 -48c0 -26 -21 -47 -48 -47c-26 0 -47 21 -47 47zM386 797c0 27 21 48 48 48s48 -21 48 -48
c0 -26 -21 -47 -48 -47s-48 21 -48 47z" />
    <glyph glyph-name="Ugrave" unicode="&#xd9;" horiz-adv-x="682" 
d="M524 255v445h78v-445c0 -157 -106 -263 -262 -263s-260 106 -260 263v445h77v-445c0 -115 75 -193 183 -193c109 0 184 78 184 193zM277 901l126 -126l-39 -39l-126 126z" />
    <glyph glyph-name="Uhungarumlaut" unicode="&#x170;" horiz-adv-x="682" 
d="M524 255v445h78v-445c0 -157 -106 -263 -262 -263s-260 106 -260 263v445h77v-445c0 -115 75 -193 183 -193c109 0 184 78 184 193zM203 775l126 126l39 -39l-126 -126zM353 775l126 126l39 -39l-126 -126z" />
    <glyph glyph-name="Umacron" unicode="&#x16a;" horiz-adv-x="682" 
d="M524 255v445h78v-445c0 -157 -106 -263 -262 -263s-260 106 -260 263v445h77v-445c0 -115 75 -193 183 -193c109 0 184 78 184 193zM218 767v48h245v-48h-245z" />
    <glyph glyph-name="Uogonek" unicode="&#x172;" horiz-adv-x="682" 
d="M397 -39c0 -36 23 -57 55 -57c16 0 30 5 40 15l28 -27c-17 -18 -40 -27 -68 -27c-55 0 -94 38 -94 96c0 12 2 22 6 32c-8 0 -16 -1 -24 -1c-156 0 -260 106 -260 263v445h77v-445c0 -115 75 -193 183 -193c109 0 184 78 184 193v445h78v-445c0 -134 -77 -230 -196 -256
c-5 -10 -9 -24 -9 -38z" />
    <glyph glyph-name="Uring" unicode="&#x16e;" horiz-adv-x="682" 
d="M524 255v445h78v-445c0 -157 -106 -263 -262 -263s-260 106 -260 263v445h77v-445c0 -115 75 -193 183 -193c109 0 184 78 184 193zM253 820c0 54 36 90 88 90c53 0 88 -36 88 -90s-35 -90 -88 -90c-52 0 -88 36 -88 90zM289 819c0 -32 21 -53 52 -53s52 21 52 53
c0 33 -22 54 -52 54c-31 0 -52 -21 -52 -54z" />
    <glyph glyph-name="Utilde" unicode="&#x168;" horiz-adv-x="682" 
d="M524 255v445h78v-445c0 -157 -106 -263 -262 -263s-260 106 -260 263v445h77v-445c0 -115 75 -193 183 -193c109 0 184 78 184 193zM245 763h-43c0 53 35 88 84 88c59 0 65 -48 108 -48c24 0 42 18 42 44h43c0 -53 -35 -88 -85 -88c-60 0 -64 48 -107 48
c-24 0 -42 -17 -42 -44z" />
    <glyph glyph-name="V" unicode="V" horiz-adv-x="731" 
d="M700 700l-298 -700h-73l-299 700h92l244 -599l243 599h91z" />
    <glyph glyph-name="W" unicode="W" horiz-adv-x="1094" 
d="M1064 700l-251 -700h-79l-188 567l-186 -567h-79l-251 700h90l200 -581l186 581h81l187 -581l200 581h90z" />
    <glyph glyph-name="Wacute" unicode="&#x1e82;" horiz-adv-x="1094" 
d="M1064 700l-251 -700h-79l-188 567l-186 -567h-79l-251 700h90l200 -581l186 581h81l187 -581l200 581h90zM483 775l126 126l39 -39l-126 -126z" />
    <glyph glyph-name="Wcircumflex" unicode="&#x174;" horiz-adv-x="1094" 
d="M1064 700l-251 -700h-79l-188 567l-186 -567h-79l-251 700h90l200 -581l186 581h81l187 -581l200 581h90zM546 901l126 -126l-39 -39l-87 87l-87 -87l-39 39z" />
    <glyph glyph-name="Wdieresis" unicode="&#x1e84;" horiz-adv-x="1094" 
d="M1064 700l-251 -700h-79l-188 567l-186 -567h-79l-251 700h90l200 -581l186 581h81l187 -581l200 581h90zM405 797c0 27 21 48 47 48c27 0 48 -21 48 -48c0 -26 -21 -47 -48 -47c-26 0 -47 21 -47 47zM592 797c0 27 21 48 48 48s48 -21 48 -48c0 -26 -21 -47 -48 -47
s-48 21 -48 47z" />
    <glyph glyph-name="Wgrave" unicode="&#x1e80;" horiz-adv-x="1094" 
d="M1064 700l-251 -700h-79l-188 567l-186 -567h-79l-251 700h90l200 -581l186 581h81l187 -581l200 581h90zM484 901l126 -126l-39 -39l-126 126z" />
    <glyph glyph-name="X" unicode="X" horiz-adv-x="704" 
d="M572 0l-221 301l-219 -301h-99l262 354l-255 346h100l211 -292l213 292h100l-256 -346l263 -354h-99z" />
    <glyph glyph-name="Y" unicode="Y" horiz-adv-x="677" 
d="M299 0v301l-267 399h90l216 -322l216 322h90l-267 -400v-300h-78z" />
    <glyph glyph-name="Yacute" unicode="&#xdd;" horiz-adv-x="677" 
d="M299 0v301l-267 399h90l216 -322l216 322h90l-267 -400v-300h-78zM276 775l126 126l39 -39l-126 -126z" />
    <glyph glyph-name="Ycircumflex" unicode="&#x176;" horiz-adv-x="677" 
d="M299 0v301l-267 399h90l216 -322l216 322h90l-267 -400v-300h-78zM338 901l126 -126l-39 -39l-87 87l-87 -87l-39 39z" />
    <glyph glyph-name="Ydieresis" unicode="&#x178;" horiz-adv-x="677" 
d="M299 0v301l-267 399h90l216 -322l216 322h90l-267 -400v-300h-78zM197 797c0 27 21 48 47 48c27 0 48 -21 48 -48c0 -26 -21 -47 -48 -47c-26 0 -47 21 -47 47zM384 797c0 27 21 48 48 48s48 -21 48 -48c0 -26 -21 -47 -48 -47s-48 21 -48 47z" />
    <glyph glyph-name="Ygrave" unicode="&#x1ef2;" horiz-adv-x="677" 
d="M299 0v301l-267 399h90l216 -322l216 322h90l-267 -400v-300h-78zM275 901l126 -126l-39 -39l-126 126z" />
    <glyph glyph-name="Z" unicode="Z" horiz-adv-x="635" 
d="M61 635v65h517v-28l-411 -607h413v-65h-525v28l410 607h-404z" />
    <glyph glyph-name="Zacute" unicode="&#x179;" horiz-adv-x="635" 
d="M61 635v65h517v-28l-411 -607h413v-65h-525v28l410 607h-404zM255 775l126 126l39 -39l-126 -126z" />
    <glyph glyph-name="Zcaron" unicode="&#x17d;" horiz-adv-x="635" 
d="M61 635v65h517v-28l-411 -607h413v-65h-525v28l410 607h-404zM317 736l-126 126l39 39l87 -87l87 87l39 -39z" />
    <glyph glyph-name="Zdotaccent" unicode="&#x17b;" horiz-adv-x="635" 
d="M61 635v65h517v-28l-411 -607h413v-65h-525v28l410 607h-404zM267 810c0 28 22 50 50 50s50 -22 50 -50s-22 -50 -50 -50s-50 22 -50 50z" />
    <glyph glyph-name="uni018F" unicode="&#x18f;" horiz-adv-x="747" 
d="M693 350c0 -213 -130 -358 -320 -358s-319 145 -319 358v30h557c-13 153 -120 257 -271 257c-84 0 -153 -29 -200 -80l-50 49c61 64 149 101 253 101c208 0 350 -145 350 -357zM373 62c132 0 226 101 237 253h-473c11 -152 104 -253 236 -253z" />
    <glyph glyph-name="A.smcp" horiz-adv-x="564" 
d="M456 0l-57 134h-235l-57 -134h-78l221 504h63l221 -504h-78zM282 417l-94 -223h187z" />
    <glyph glyph-name="Aacute.smcp" horiz-adv-x="564" 
d="M456 0l-57 134h-235l-57 -134h-78l221 504h63l221 -504h-78zM282 417l-94 -223h187zM213 556l126 126l39 -39l-126 -126z" />
    <glyph glyph-name="Abreve.smcp" horiz-adv-x="564" 
d="M456 0l-57 134h-235l-57 -134h-78l221 504h63l221 -504h-78zM282 417l-94 -223h187zM281 588c43 0 77 16 102 42l39 -39c-36 -37 -83 -59 -141 -59s-105 23 -141 60l39 39c25 -26 59 -43 102 -43z" />
    <glyph glyph-name="Acircumflex.smcp" horiz-adv-x="564" 
d="M456 0l-57 134h-235l-57 -134h-78l221 504h63l221 -504h-78zM282 417l-94 -223h187zM281 682l126 -126l-39 -39l-87 87l-87 -87l-39 39z" />
    <glyph glyph-name="Agrave.smcp" horiz-adv-x="564" 
d="M456 0l-57 134h-235l-57 -134h-78l221 504h63l221 -504h-78zM282 417l-94 -223h187zM224 682l126 -126l-39 -39l-126 126z" />
    <glyph glyph-name="Adieresis.smcp" horiz-adv-x="564" 
d="M456 0l-57 134h-235l-57 -134h-78l221 504h63l221 -504h-78zM282 417l-94 -223h187zM140 578c0 27 21 48 47 48c27 0 48 -21 48 -48c0 -26 -21 -47 -48 -47c-26 0 -47 21 -47 47zM327 578c0 27 21 48 48 48s48 -21 48 -48c0 -26 -21 -47 -48 -47s-48 21 -48 47z" />
    <glyph glyph-name="Amacron.smcp" horiz-adv-x="564" 
d="M456 0l-57 134h-235l-57 -134h-78l221 504h63l221 -504h-78zM282 417l-94 -223h187zM159 547v48h245v-48h-245z" />
    <glyph glyph-name="Aogonek.smcp" horiz-adv-x="564" 
d="M485 -39c0 -36 23 -57 55 -57c16 0 30 5 40 15l28 -27c-17 -18 -40 -27 -68 -27c-55 0 -94 38 -94 96c0 14 3 27 10 39l-57 134h-235l-57 -134h-78l221 504h63l221 -504h-39c-6 -10 -10 -25 -10 -39zM282 417l-94 -223h187z" />
    <glyph glyph-name="Aring.smcp" horiz-adv-x="564" 
d="M456 0l-57 134h-235l-57 -134h-78l221 504h63l221 -504h-78zM282 417l-94 -223h187zM194 601c0 54 36 90 88 90c53 0 88 -36 88 -90s-35 -90 -88 -90c-52 0 -88 36 -88 90zM230 600c0 -32 21 -53 52 -53s52 21 52 53c0 33 -22 54 -52 54c-31 0 -52 -21 -52 -54z" />
    <glyph glyph-name="Atilde.smcp" horiz-adv-x="564" 
d="M456 0l-57 134h-235l-57 -134h-78l221 504h63l221 -504h-78zM282 417l-94 -223h187zM185 543h-43c0 53 35 88 84 88c59 0 65 -48 108 -48c24 0 42 18 42 44h43c0 -53 -35 -88 -85 -88c-60 0 -64 48 -107 48c-24 0 -42 -17 -42 -44z" />
    <glyph glyph-name="AE.smcp" horiz-adv-x="601" 
d="M360 448v-167h169v-56h-169v-169h196v-56h-264v134h-123l-60 -134h-78l229 504h293v-56h-193zM193 194h99v224z" />
    <glyph glyph-name="AEacute.smcp" horiz-adv-x="601" 
d="M360 448v-167h169v-56h-169v-169h196v-56h-264v134h-123l-60 -134h-78l229 504h293v-56h-193zM193 194h99v224zM251 556l126 126l39 -39l-126 -126z" />
    <glyph glyph-name="B.smcp" horiz-adv-x="433" 
d="M64 0v504h148c85 0 142 -51 142 -132c0 -47 -22 -84 -57 -106c52 -19 85 -65 85 -126c0 -85 -62 -140 -152 -140h-166zM314 145c0 52 -34 86 -86 86h-94v-173h94c52 0 86 34 86 87zM286 367c0 48 -31 79 -78 79h-74v-157h74c47 0 78 31 78 78z" />
    <glyph glyph-name="C.smcp" horiz-adv-x="543" 
d="M118 252c0 -117 80 -198 196 -198c60 0 110 20 144 55l44 -43c-47 -45 -113 -72 -191 -72c-156 0 -262 104 -262 258c0 153 106 258 262 258c78 0 144 -27 191 -73l-44 -43c-34 35 -84 55 -144 55c-116 0 -196 -80 -196 -197z" />
    <glyph glyph-name="Cacute.smcp" horiz-adv-x="543" 
d="M118 252c0 -117 80 -198 196 -198c60 0 110 20 144 55l44 -43c-47 -45 -113 -72 -191 -72c-156 0 -262 104 -262 258c0 153 106 258 262 258c78 0 144 -27 191 -73l-44 -43c-34 35 -84 55 -144 55c-116 0 -196 -80 -196 -197zM227 559l126 126l39 -39l-126 -126z" />
    <glyph glyph-name="Ccaron.smcp" horiz-adv-x="543" 
d="M118 252c0 -117 80 -198 196 -198c60 0 110 20 144 55l44 -43c-47 -45 -113 -72 -191 -72c-156 0 -262 104 -262 258c0 153 106 258 262 258c78 0 144 -27 191 -73l-44 -43c-34 35 -84 55 -144 55c-116 0 -196 -80 -196 -197zM294 517l-126 126l39 39l87 -87l87 87
l39 -39z" />
    <glyph glyph-name="Ccedilla.smcp" horiz-adv-x="543" 
d="M118 252c0 -117 80 -198 196 -198c60 0 110 20 144 55l44 -43c-45 -43 -106 -69 -178 -72v-39c40 -7 66 -34 66 -77c0 -47 -34 -79 -83 -79c-25 0 -46 9 -61 24l26 26c9 -9 20 -14 35 -14c27 0 47 17 47 45c0 26 -19 46 -65 46v69c-144 9 -240 110 -240 257
c0 153 106 258 262 258c78 0 144 -27 191 -73l-44 -43c-34 35 -84 55 -144 55c-116 0 -196 -80 -196 -197z" />
    <glyph glyph-name="Ccircumflex.smcp" horiz-adv-x="543" 
d="M118 252c0 -117 80 -198 196 -198c60 0 110 20 144 55l44 -43c-47 -45 -113 -72 -191 -72c-156 0 -262 104 -262 258c0 153 106 258 262 258c78 0 144 -27 191 -73l-44 -43c-34 35 -84 55 -144 55c-116 0 -196 -80 -196 -197zM295 682l126 -126l-39 -39l-87 87l-87 -87
l-39 39z" />
    <glyph glyph-name="Cdotaccent.smcp" horiz-adv-x="543" 
d="M118 252c0 -117 80 -198 196 -198c60 0 110 20 144 55l44 -43c-47 -45 -113 -72 -191 -72c-156 0 -262 104 -262 258c0 153 106 258 262 258c78 0 144 -27 191 -73l-44 -43c-34 35 -84 55 -144 55c-116 0 -196 -80 -196 -197zM246 590c0 28 22 50 50 50s50 -22 50 -50
s-22 -50 -50 -50s-50 22 -50 50z" />
    <glyph glyph-name="D.smcp" horiz-adv-x="541" 
d="M64 0v504h166c156 0 262 -99 262 -252c0 -154 -106 -252 -262 -252h-166zM422 252c0 117 -78 194 -192 194h-96v-388h96c114 0 192 77 192 194z" />
    <glyph glyph-name="Dcaron.smcp" horiz-adv-x="541" 
d="M64 0v504h166c156 0 262 -99 262 -252c0 -154 -106 -252 -262 -252h-166zM422 252c0 117 -78 194 -192 194h-96v-388h96c114 0 192 77 192 194zM262 517l-126 126l39 39l87 -87l87 87l39 -39z" />
    <glyph glyph-name="Dcroat.smcp" horiz-adv-x="550" 
d="M44 226v51h38v227h156c157 0 263 -99 263 -252c0 -154 -106 -252 -263 -252h-156v226h-38zM431 252c0 117 -79 194 -193 194h-86v-169h113v-51h-113v-168h86c114 0 193 77 193 194z" />
    <glyph glyph-name="Eth.smcp" horiz-adv-x="550" 
d="M44 226v51h38v227h156c157 0 263 -99 263 -252c0 -154 -106 -252 -263 -252h-156v226h-38zM431 252c0 117 -79 194 -193 194h-86v-169h113v-51h-113v-168h86c114 0 193 77 193 194z" />
    <glyph glyph-name="Thorn.smcp" horiz-adv-x="414" 
d="M64 0v504h70v-102h75c93 0 156 -56 156 -144c0 -87 -63 -144 -156 -144h-75v-114h-70zM295 258c0 52 -35 86 -86 86h-75v-172h75c51 0 86 35 86 86z" />
    <glyph glyph-name="E.smcp" horiz-adv-x="391" 
d="M131 448v-167h186v-56h-186v-169h213v-56h-280v504h277v-56h-210z" />
    <glyph glyph-name="Eacute.smcp" horiz-adv-x="391" 
d="M131 448v-167h186v-56h-186v-169h213v-56h-280v504h277v-56h-210zM135 556l126 126l39 -39l-126 -126z" />
    <glyph glyph-name="Ebreve.smcp" horiz-adv-x="391" 
d="M131 448v-167h186v-56h-186v-169h213v-56h-280v504h277v-56h-210zM203 588c43 0 77 16 102 42l39 -39c-36 -37 -83 -59 -141 -59s-105 23 -141 60l39 39c25 -26 59 -43 102 -43z" />
    <glyph glyph-name="Ecaron.smcp" horiz-adv-x="391" 
d="M131 448v-167h186v-56h-186v-169h213v-56h-280v504h277v-56h-210zM203 517l-126 126l39 39l87 -87l87 87l39 -39z" />
    <glyph glyph-name="Ecircumflex.smcp" horiz-adv-x="391" 
d="M131 448v-167h186v-56h-186v-169h213v-56h-280v504h277v-56h-210zM203 682l126 -126l-39 -39l-87 87l-87 -87l-39 39z" />
    <glyph glyph-name="Edieresis.smcp" horiz-adv-x="391" 
d="M131 448v-167h186v-56h-186v-169h213v-56h-280v504h277v-56h-210zM61 578c0 27 21 48 47 48c27 0 48 -21 48 -48c0 -26 -21 -47 -48 -47c-26 0 -47 21 -47 47zM248 578c0 27 21 48 48 48s48 -21 48 -48c0 -26 -21 -47 -48 -47s-48 21 -48 47z" />
    <glyph glyph-name="Edotaccent.smcp" horiz-adv-x="391" 
d="M131 448v-167h186v-56h-186v-169h213v-56h-280v504h277v-56h-210zM153 590c0 28 22 50 50 50s50 -22 50 -50s-22 -50 -50 -50s-50 22 -50 50z" />
    <glyph glyph-name="Egrave.smcp" horiz-adv-x="391" 
d="M131 448v-167h186v-56h-186v-169h213v-56h-280v504h277v-56h-210zM145 682l126 -126l-39 -39l-126 126z" />
    <glyph glyph-name="Emacron.smcp" horiz-adv-x="391" 
d="M131 448v-167h186v-56h-186v-169h213v-56h-280v504h277v-56h-210zM81 547v48h245v-48h-245z" />
    <glyph glyph-name="Eogonek.smcp" horiz-adv-x="391" 
d="M250 -39c0 -36 23 -57 55 -57c16 0 30 5 40 15l28 -27c-17 -18 -40 -27 -68 -27c-55 0 -94 38 -94 96c0 14 3 27 10 39h-157v504h277v-56h-210v-167h186v-56h-186v-169h213v-56h-84c-6 -10 -10 -25 -10 -39z" />
    <glyph glyph-name="F.smcp" horiz-adv-x="373" 
d="M131 448v-167h175v-56h-175v-225h-67v504h267v-56h-200z" />
    <glyph glyph-name="G.smcp" horiz-adv-x="566" 
d="M311 214v56h191v-204c-47 -46 -113 -72 -191 -72c-156 0 -262 104 -262 258c0 153 106 258 262 258c78 0 144 -27 191 -73l-44 -43c-34 35 -84 55 -144 55c-116 0 -196 -80 -196 -197s80 -198 196 -198c48 0 88 13 120 36v124h-123z" />
    <glyph glyph-name="Gbreve.smcp" horiz-adv-x="566" 
d="M311 214v56h191v-204c-47 -46 -113 -72 -191 -72c-156 0 -262 104 -262 258c0 153 106 258 262 258c78 0 144 -27 191 -73l-44 -43c-34 35 -84 55 -144 55c-116 0 -196 -80 -196 -197s80 -198 196 -198c48 0 88 13 120 36v124h-123zM309 588c43 0 77 16 102 42l39 -39
c-36 -37 -83 -59 -141 -59s-105 23 -141 60l39 39c25 -26 59 -43 102 -43z" />
    <glyph glyph-name="Gcircumflex.smcp" horiz-adv-x="566" 
d="M311 214v56h191v-204c-47 -46 -113 -72 -191 -72c-156 0 -262 104 -262 258c0 153 106 258 262 258c78 0 144 -27 191 -73l-44 -43c-34 35 -84 55 -144 55c-116 0 -196 -80 -196 -197s80 -198 196 -198c48 0 88 13 120 36v124h-123zM310 682l126 -126l-39 -39l-87 87
l-87 -87l-39 39z" />
    <glyph glyph-name="Gcommaaccent.smcp" horiz-adv-x="566" 
d="M311 214v56h191v-204c-47 -46 -113 -72 -191 -72c-156 0 -262 104 -262 258c0 153 106 258 262 258c78 0 144 -27 191 -73l-44 -43c-34 35 -84 55 -144 55c-116 0 -196 -80 -196 -197s80 -198 196 -198c48 0 88 13 120 36v124h-123zM279 -195l-23 22c20 21 37 43 41 65
c-20 3 -36 21 -36 42c0 24 19 42 43 42c21 0 42 -13 42 -49c0 -47 -35 -91 -67 -122z" />
    <glyph glyph-name="Gdotaccent.smcp" horiz-adv-x="566" 
d="M311 214v56h191v-204c-47 -46 -113 -72 -191 -72c-156 0 -262 104 -262 258c0 153 106 258 262 258c78 0 144 -27 191 -73l-44 -43c-34 35 -84 55 -144 55c-116 0 -196 -80 -196 -197s80 -198 196 -198c48 0 88 13 120 36v124h-123zM260 590c0 28 22 50 50 50
s50 -22 50 -50s-22 -50 -50 -50s-50 22 -50 50z" />
    <glyph glyph-name="H.smcp" horiz-adv-x="535" 
d="M131 504v-223h273v223h67v-504h-67v225h-273v-225h-67v504h67z" />
    <glyph glyph-name="Hbar.smcp" horiz-adv-x="545" 
d="M84 0v365h-43v51h43v88h67v-88h238v88h67v-88h48v-51h-48v-365h-67v225h-238v-225h-67zM151 281h238v84h-238v-84z" />
    <glyph glyph-name="Hcircumflex.smcp" horiz-adv-x="535" 
d="M131 504v-223h273v223h67v-504h-67v225h-273v-225h-67v504h67zM268 682l126 -126l-39 -39l-87 87l-87 -87l-39 39z" />
    <glyph glyph-name="I.smcp" horiz-adv-x="194" 
d="M63 0v504h67v-504h-67z" />
    <glyph glyph-name="Iacute.smcp" horiz-adv-x="194" 
d="M63 0v504h67v-504h-67zM30 556l126 126l39 -39l-126 -126z" />
    <glyph glyph-name="Ibreve.smcp" horiz-adv-x="194" 
d="M63 0v504h67v-504h-67zM97 588c43 0 77 16 102 42l39 -39c-36 -37 -83 -59 -141 -59s-105 23 -141 60l39 39c25 -26 59 -43 102 -43z" />
    <glyph glyph-name="Icircumflex.smcp" horiz-adv-x="194" 
d="M63 0v504h67v-504h-67zM98 682l126 -126l-39 -39l-87 87l-87 -87l-39 39z" />
    <glyph glyph-name="Idieresis.smcp" horiz-adv-x="195" 
d="M63 0v504h68v-504h-68zM-2 575c0 21 17 38 39 38s39 -17 39 -38c0 -22 -17 -39 -39 -39s-39 17 -39 39zM118 575c0 21 17 39 39 39s40 -18 40 -39c0 -22 -18 -39 -40 -39s-39 17 -39 39z" />
    <glyph glyph-name="Idotaccent.smcp" horiz-adv-x="194" 
d="M63 0v504h67v-504h-67zM47 590c0 28 22 50 50 50s50 -22 50 -50s-22 -50 -50 -50s-50 22 -50 50z" />
    <glyph glyph-name="Igrave.smcp" horiz-adv-x="194" 
d="M63 0v504h67v-504h-67zM40 682l126 -126l-39 -39l-126 126z" />
    <glyph glyph-name="Imacron.smcp" horiz-adv-x="194" 
d="M63 0v504h67v-504h-67zM-25 547v48h245v-48h-245z" />
    <glyph glyph-name="Iogonek.smcp" horiz-adv-x="194" 
d="M63 0v504h67v-504h-67zM92 -39c0 -36 23 -57 55 -57c16 0 30 5 40 15l28 -27c-17 -18 -40 -27 -68 -27c-55 0 -94 38 -94 96c0 14 3 27 10 39h39c-6 -10 -10 -25 -10 -39z" />
    <glyph glyph-name="Itilde.smcp" horiz-adv-x="194" 
d="M63 0v504h67v-504h-67zM2 543h-43c0 53 35 88 84 88c59 0 65 -48 108 -48c24 0 42 18 42 44h43c0 -53 -35 -88 -85 -88c-60 0 -64 48 -107 48c-24 0 -42 -17 -42 -44z" />
    <glyph glyph-name="IJ.smcp" horiz-adv-x="396" 
d="M64 180v324h67v-324h-67zM266 139v365h67v-365c0 -86 -61 -145 -149 -145c-43 0 -82 15 -108 41l44 43c14 -15 36 -24 62 -24c49 0 84 35 84 85z" />
    <glyph glyph-name="J.smcp" horiz-adv-x="361" 
d="M231 139v365h67v-365c0 -86 -61 -145 -149 -145c-43 0 -82 15 -108 41l44 43c14 -15 36 -24 62 -24c49 0 84 35 84 85z" />
    <glyph glyph-name="Jcircumflex.smcp" horiz-adv-x="361" 
d="M231 139v365h67v-365c0 -86 -61 -145 -149 -145c-43 0 -82 15 -108 41l44 43c14 -15 36 -24 62 -24c49 0 84 35 84 85zM264 682l126 -126l-39 -39l-87 87l-87 -87l-39 39z" />
    <glyph glyph-name="K.smcp" horiz-adv-x="475" 
d="M63 0v504h67v-504h-67zM355 0l-221 259l206 245h85l-207 -245l224 -259h-87z" />
    <glyph glyph-name="Kcommaaccent.smcp" horiz-adv-x="475" 
d="M63 0v504h67v-504h-67zM355 0l-221 259l206 245h85l-207 -245l224 -259h-87zM214 -195l-23 22c20 21 37 43 41 65c-20 3 -36 21 -36 42c0 24 19 42 43 42c21 0 42 -13 42 -49c0 -47 -35 -91 -67 -122z" />
    <glyph glyph-name="L.smcp" horiz-adv-x="370" 
d="M131 504v-448h198v-56h-265v504h67z" />
    <glyph glyph-name="Lacute.smcp" horiz-adv-x="370" 
d="M131 504v-448h198v-56h-265v504h67zM102 556l126 126l39 -39l-126 -126z" />
    <glyph glyph-name="Lcaron.smcp" horiz-adv-x="370" 
d="M131 504v-448h198v-56h-265v504h67zM99 517l-126 126l39 39l87 -87l87 87l39 -39z" />
    <glyph glyph-name="Lcommaaccent.smcp" horiz-adv-x="370" 
d="M131 504v-448h198v-56h-265v504h67zM172 -195l-23 22c20 21 37 43 41 65c-20 3 -36 21 -36 42c0 24 19 42 43 42c21 0 42 -13 42 -49c0 -47 -35 -91 -67 -122z" />
    <glyph glyph-name="Ldot.smcp" horiz-adv-x="370" 
d="M131 504v-448h198v-56h-265v504h67zM223 238c0 28 22 50 50 50s50 -22 50 -50s-22 -50 -50 -50s-50 22 -50 50z" />
    <glyph glyph-name="Lslash.smcp" horiz-adv-x="397" 
d="M19 163l73 71v270h67v-217l63 61l33 -34l-96 -93v-165h197v-56h-264v168l-39 -38z" />
    <glyph glyph-name="M.smcp" horiz-adv-x="621" 
d="M489 0v366l-165 -255h-27l-166 255v-366h-67v504h51l195 -296l196 296h51v-504h-68z" />
    <glyph glyph-name="N.smcp" horiz-adv-x="552" 
d="M64 504h45l312 -376v376h67v-504h-45l-312 375v-375h-67v504z" />
    <glyph glyph-name="Nacute.smcp" horiz-adv-x="552" 
d="M64 504h45l312 -376v376h67v-504h-45l-312 375v-375h-67v504zM208 556l126 126l39 -39l-126 -126z" />
    <glyph glyph-name="Ncaron.smcp" horiz-adv-x="552" 
d="M64 504h45l312 -376v376h67v-504h-45l-312 375v-375h-67v504zM276 517l-126 126l39 39l87 -87l87 87l39 -39z" />
    <glyph glyph-name="Ncommaaccent.smcp" horiz-adv-x="552" 
d="M64 504h45l312 -376v376h67v-504h-45l-312 375v-375h-67v504zM253 -195l-23 22c20 21 37 43 41 65c-20 3 -36 21 -36 42c0 24 19 42 43 42c21 0 42 -13 42 -49c0 -47 -35 -91 -67 -122z" />
    <glyph glyph-name="Ntilde.smcp" horiz-adv-x="552" 
d="M64 504h45l312 -376v376h67v-504h-45l-312 375v-375h-67v504zM180 543h-43c0 53 35 88 84 88c59 0 65 -48 108 -48c24 0 42 18 42 44h43c0 -53 -35 -88 -85 -88c-60 0 -64 48 -107 48c-24 0 -42 -17 -42 -44z" />
    <glyph glyph-name="Eng.smcp" horiz-adv-x="552" 
d="M382 -180v43c23 0 39 12 39 36v127l-290 349v-375h-67v504h45l312 -376v376h67v-607c0 -49 -31 -81 -79 -81c-9 0 -21 1 -27 4z" />
    <glyph glyph-name="O.smcp" horiz-adv-x="615" 
d="M48 252c0 153 105 258 260 258c154 0 259 -105 259 -258c0 -154 -105 -258 -259 -258c-155 0 -260 104 -260 258zM117 252c0 -117 78 -198 191 -198s189 81 189 198s-76 197 -189 197s-191 -80 -191 -197z" />
    <glyph glyph-name="Oacute.smcp" horiz-adv-x="615" 
d="M48 252c0 153 105 258 260 258c154 0 259 -105 259 -258c0 -154 -105 -258 -259 -258c-155 0 -260 104 -260 258zM117 252c0 -117 78 -198 191 -198s189 81 189 198s-76 197 -189 197s-191 -80 -191 -197zM239 556l126 126l39 -39l-126 -126z" />
    <glyph glyph-name="Obreve.smcp" horiz-adv-x="615" 
d="M48 252c0 153 105 258 260 258c154 0 259 -105 259 -258c0 -154 -105 -258 -259 -258c-155 0 -260 104 -260 258zM117 252c0 -117 78 -198 191 -198s189 81 189 198s-76 197 -189 197s-191 -80 -191 -197zM308 588c43 0 77 16 102 42l39 -39c-36 -37 -83 -59 -141 -59
s-105 23 -141 60l39 39c25 -26 59 -43 102 -43z" />
    <glyph glyph-name="Ocircumflex.smcp" horiz-adv-x="615" 
d="M48 252c0 153 105 258 260 258c154 0 259 -105 259 -258c0 -154 -105 -258 -259 -258c-155 0 -260 104 -260 258zM117 252c0 -117 78 -198 191 -198s189 81 189 198s-76 197 -189 197s-191 -80 -191 -197zM308 682l126 -126l-39 -39l-87 87l-87 -87l-39 39z" />
    <glyph glyph-name="Odieresis.smcp" horiz-adv-x="615" 
d="M48 252c0 153 105 258 260 258c154 0 259 -105 259 -258c0 -154 -105 -258 -259 -258c-155 0 -260 104 -260 258zM117 252c0 -117 78 -198 191 -198s189 81 189 198s-76 197 -189 197s-191 -80 -191 -197zM166 578c0 27 21 48 47 48c27 0 48 -21 48 -48
c0 -26 -21 -47 -48 -47c-26 0 -47 21 -47 47zM353 578c0 27 21 48 48 48s48 -21 48 -48c0 -26 -21 -47 -48 -47s-48 21 -48 47z" />
    <glyph glyph-name="Ograve.smcp" horiz-adv-x="615" 
d="M48 252c0 153 105 258 260 258c154 0 259 -105 259 -258c0 -154 -105 -258 -259 -258c-155 0 -260 104 -260 258zM117 252c0 -117 78 -198 191 -198s189 81 189 198s-76 197 -189 197s-191 -80 -191 -197zM249 682l126 -126l-39 -39l-126 126z" />
    <glyph glyph-name="Ohungarumlaut.smcp" horiz-adv-x="615" 
d="M48 252c0 153 105 258 260 258c154 0 259 -105 259 -258c0 -154 -105 -258 -259 -258c-155 0 -260 104 -260 258zM117 252c0 -117 78 -198 191 -198s189 81 189 198s-76 197 -189 197s-191 -80 -191 -197zM165 556l126 126l39 -39l-126 -126zM315 556l126 126l39 -39
l-126 -126z" />
    <glyph glyph-name="Omacron.smcp" horiz-adv-x="615" 
d="M48 252c0 153 105 258 260 258c154 0 259 -105 259 -258c0 -154 -105 -258 -259 -258c-155 0 -260 104 -260 258zM117 252c0 -117 78 -198 191 -198s189 81 189 198s-76 197 -189 197s-191 -80 -191 -197zM185 547v48h245v-48h-245z" />
    <glyph glyph-name="Oslash.smcp" horiz-adv-x="616" 
d="M48 -6l66 76c-42 45 -66 108 -66 182c0 153 105 258 260 258c59 0 111 -16 153 -44l38 44h69l-68 -77c43 -45 67 -108 67 -181c0 -154 -105 -258 -259 -258c-60 0 -112 15 -154 43l-37 -43h-69zM117 252c0 -52 15 -97 42 -131l259 296c-30 20 -68 32 -110 32
c-113 0 -191 -80 -191 -197zM497 252c0 52 -15 96 -41 130l-259 -296c31 -20 68 -32 111 -32c113 0 189 81 189 198z" />
    <glyph glyph-name="Oslashacute.smcp" horiz-adv-x="616" 
d="M48 -6l66 76c-42 45 -66 108 -66 182c0 153 105 258 260 258c59 0 111 -16 153 -44l38 44h69l-68 -77c43 -45 67 -108 67 -181c0 -154 -105 -258 -259 -258c-60 0 -112 15 -154 43l-37 -43h-69zM117 252c0 -52 15 -97 42 -131l259 296c-30 20 -68 32 -110 32
c-113 0 -191 -80 -191 -197zM497 252c0 52 -15 96 -41 130l-259 -296c31 -20 68 -32 111 -32c113 0 189 81 189 198zM239 556l126 126l39 -39l-126 -126z" />
    <glyph glyph-name="Otilde.smcp" horiz-adv-x="615" 
d="M48 252c0 153 105 258 260 258c154 0 259 -105 259 -258c0 -154 -105 -258 -259 -258c-155 0 -260 104 -260 258zM117 252c0 -117 78 -198 191 -198s189 81 189 198s-76 197 -189 197s-191 -80 -191 -197zM212 543h-43c0 53 35 88 84 88c59 0 65 -48 108 -48
c24 0 42 18 42 44h43c0 -53 -35 -88 -85 -88c-60 0 -64 48 -107 48c-24 0 -42 -17 -42 -44z" />
    <glyph glyph-name="OE.smcp" horiz-adv-x="679" 
d="M438 448v-167h169v-56h-169v-169h197v-56h-263c-19 -4 -40 -6 -61 -6c-156 0 -262 104 -262 258c0 153 106 258 262 258c21 0 41 -3 61 -6h259v-56h-193zM311 54c21 0 41 3 59 10v376c-18 6 -38 9 -59 9c-114 0 -193 -80 -193 -197s79 -198 193 -198z" />
    <glyph glyph-name="P.smcp" horiz-adv-x="414" 
d="M64 0v504h145c93 0 156 -57 156 -144c0 -88 -63 -145 -156 -145h-75v-215h-70zM295 360c0 51 -35 86 -86 86h-75v-172h75c51 0 86 34 86 86z" />
    <glyph glyph-name="Q.smcp" horiz-adv-x="616" 
d="M532 -18l-62 62c-43 -32 -99 -50 -162 -50c-155 0 -260 104 -260 258c0 153 105 258 260 258c154 0 259 -105 259 -258c0 -66 -20 -123 -55 -166l63 -61zM117 252c0 -117 78 -198 190 -198c46 0 88 11 118 34l-79 78l42 43l74 -73c23 31 35 70 35 116
c0 117 -77 197 -190 197c-112 0 -190 -80 -190 -197z" />
    <glyph glyph-name="R.smcp" horiz-adv-x="426" 
d="M316 0l-117 215h-65v-215h-70v504h151c93 0 156 -57 156 -144c0 -71 -41 -122 -105 -139l128 -221h-78zM301 360c0 51 -35 86 -86 86h-81v-172h81c51 0 86 34 86 86z" />
    <glyph glyph-name="Racute.smcp" horiz-adv-x="426" 
d="M316 0l-117 215h-65v-215h-70v504h151c93 0 156 -57 156 -144c0 -71 -41 -122 -105 -139l128 -221h-78zM301 360c0 51 -35 86 -86 86h-81v-172h81c51 0 86 34 86 86zM140 556l126 126l39 -39l-126 -126z" />
    <glyph glyph-name="Rcaron.smcp" horiz-adv-x="426" 
d="M316 0l-117 215h-65v-215h-70v504h151c93 0 156 -57 156 -144c0 -71 -41 -122 -105 -139l128 -221h-78zM301 360c0 51 -35 86 -86 86h-81v-172h81c51 0 86 34 86 86zM208 517l-126 126l39 39l87 -87l87 87l39 -39z" />
    <glyph glyph-name="Rcommaaccent.smcp" horiz-adv-x="426" 
d="M316 0l-117 215h-65v-215h-70v504h151c93 0 156 -57 156 -144c0 -71 -41 -122 -105 -139l128 -221h-78zM301 360c0 51 -35 86 -86 86h-81v-172h81c51 0 86 34 86 86zM190 -195l-23 22c20 21 37 43 41 65c-20 3 -36 21 -36 42c0 24 19 42 43 42c21 0 42 -13 42 -49
c0 -47 -35 -91 -67 -122z" />
    <glyph glyph-name="S.smcp" horiz-adv-x="425" 
d="M358 448l-42 -43c-24 25 -67 44 -106 44c-61 0 -85 -44 -85 -77c0 -109 247 -70 247 -231c0 -77 -54 -147 -162 -147c-65 0 -124 26 -167 69l42 42c29 -31 76 -51 118 -51c71 0 99 49 99 86c0 105 -246 64 -246 230c0 74 47 140 147 140c58 0 115 -23 155 -62z" />
    <glyph glyph-name="Sacute.smcp" horiz-adv-x="425" 
d="M358 448l-42 -43c-24 25 -67 44 -106 44c-61 0 -85 -44 -85 -77c0 -109 247 -70 247 -231c0 -77 -54 -147 -162 -147c-65 0 -124 26 -167 69l42 42c29 -31 76 -51 118 -51c71 0 99 49 99 86c0 105 -246 64 -246 230c0 74 47 140 147 140c58 0 115 -23 155 -62zM135 556
l126 126l39 -39l-126 -126z" />
    <glyph glyph-name="Scaron.smcp" horiz-adv-x="425" 
d="M358 448l-42 -43c-24 25 -67 44 -106 44c-61 0 -85 -44 -85 -77c0 -109 247 -70 247 -231c0 -77 -54 -147 -162 -147c-65 0 -124 26 -167 69l42 42c29 -31 76 -51 118 -51c71 0 99 49 99 86c0 105 -246 64 -246 230c0 74 47 140 147 140c58 0 115 -23 155 -62zM204 517
l-126 126l39 39l87 -87l87 87l39 -39z" />
    <glyph glyph-name="Scedilla.smcp" horiz-adv-x="425" 
d="M358 448l-42 -43c-24 25 -67 44 -106 44c-61 0 -85 -44 -85 -77c0 -109 247 -70 247 -231c0 -74 -50 -141 -149 -146v-40c40 -7 66 -34 66 -77c0 -47 -34 -79 -83 -79c-25 0 -46 9 -61 24l26 26c9 -9 20 -14 35 -14c27 0 47 17 47 45c0 26 -19 46 -65 46v69
c-56 5 -107 30 -145 68l42 42c29 -31 76 -51 118 -51c71 0 99 49 99 86c0 105 -246 64 -246 230c0 74 47 140 147 140c58 0 115 -23 155 -62z" />
    <glyph glyph-name="Scircumflex.smcp" horiz-adv-x="425" 
d="M358 448l-42 -43c-24 25 -67 44 -106 44c-61 0 -85 -44 -85 -77c0 -109 247 -70 247 -231c0 -77 -54 -147 -162 -147c-65 0 -124 26 -167 69l42 42c29 -31 76 -51 118 -51c71 0 99 49 99 86c0 105 -246 64 -246 230c0 74 47 140 147 140c58 0 115 -23 155 -62zM204 682
l126 -126l-39 -39l-87 87l-87 -87l-39 39z" />
    <glyph glyph-name="Scommaaccent.smcp" horiz-adv-x="425" 
d="M358 448l-42 -43c-24 25 -67 44 -106 44c-61 0 -85 -44 -85 -77c0 -109 247 -70 247 -231c0 -77 -54 -147 -162 -147c-65 0 -124 26 -167 69l42 42c29 -31 76 -51 118 -51c71 0 99 49 99 86c0 105 -246 64 -246 230c0 74 47 140 147 140c58 0 115 -23 155 -62zM187 -195
l-23 22c20 21 37 43 41 65c-20 3 -36 21 -36 42c0 24 19 42 43 42c21 0 42 -13 42 -49c0 -47 -35 -91 -67 -122z" />
    <glyph glyph-name="T.smcp" horiz-adv-x="439" 
d="M253 448v-448h-67v448h-145v56h357v-56h-145z" />
    <glyph glyph-name="Tbar.smcp" horiz-adv-x="439" 
d="M81 240v52h105v156h-145v56h357v-56h-145v-156h105v-52h-105v-240h-67v240h-105z" />
    <glyph glyph-name="Tcaron.smcp" horiz-adv-x="439" 
d="M253 448v-448h-67v448h-145v56h357v-56h-145zM219 517l-126 126l39 39l87 -87l87 87l39 -39z" />
    <glyph glyph-name="Tcommaaccent.smcp" horiz-adv-x="439" 
d="M253 448v-448h-67v448h-145v56h357v-56h-145zM196 -195l-23 22c20 21 37 43 41 65c-20 3 -36 21 -36 42c0 24 19 42 43 42c21 0 42 -13 42 -49c0 -47 -35 -91 -67 -122z" />
    <glyph glyph-name="uni021A.smcp" horiz-adv-x="439" 
d="M253 448v-448h-67v448h-145v56h357v-56h-145zM196 -195l-23 22c20 21 37 43 41 65c-20 3 -36 21 -36 42c0 24 19 42 43 42c21 0 42 -13 42 -49c0 -47 -35 -91 -67 -122z" />
    <glyph glyph-name="U.smcp" horiz-adv-x="520" 
d="M388 185v319h68v-319c0 -114 -80 -191 -197 -191s-195 77 -195 191v319h67v-319c0 -78 53 -131 128 -131c76 0 129 53 129 131z" />
    <glyph glyph-name="Uacute.smcp" horiz-adv-x="520" 
d="M388 185v319h68v-319c0 -114 -80 -191 -197 -191s-195 77 -195 191v319h67v-319c0 -78 53 -131 128 -131c76 0 129 53 129 131zM192 556l126 126l39 -39l-126 -126z" />
    <glyph glyph-name="Ubreve.smcp" horiz-adv-x="520" 
d="M388 185v319h68v-319c0 -114 -80 -191 -197 -191s-195 77 -195 191v319h67v-319c0 -78 53 -131 128 -131c76 0 129 53 129 131zM260 588c43 0 77 16 102 42l39 -39c-36 -37 -83 -59 -141 -59s-105 23 -141 60l39 39c25 -26 59 -43 102 -43z" />
    <glyph glyph-name="Ucircumflex.smcp" horiz-adv-x="520" 
d="M388 185v319h68v-319c0 -114 -80 -191 -197 -191s-195 77 -195 191v319h67v-319c0 -78 53 -131 128 -131c76 0 129 53 129 131zM260 682l126 -126l-39 -39l-87 87l-87 -87l-39 39z" />
    <glyph glyph-name="Udieresis.smcp" horiz-adv-x="520" 
d="M388 185v319h68v-319c0 -114 -80 -191 -197 -191s-195 77 -195 191v319h67v-319c0 -78 53 -131 128 -131c76 0 129 53 129 131zM118 578c0 27 21 48 47 48c27 0 48 -21 48 -48c0 -26 -21 -47 -48 -47c-26 0 -47 21 -47 47zM305 578c0 27 21 48 48 48s48 -21 48 -48
c0 -26 -21 -47 -48 -47s-48 21 -48 47z" />
    <glyph glyph-name="Ugrave.smcp" horiz-adv-x="520" 
d="M388 185v319h68v-319c0 -114 -80 -191 -197 -191s-195 77 -195 191v319h67v-319c0 -78 53 -131 128 -131c76 0 129 53 129 131zM201 682l126 -126l-39 -39l-126 126z" />
    <glyph glyph-name="Uhungarumlaut.smcp" horiz-adv-x="520" 
d="M388 185v319h68v-319c0 -114 -80 -191 -197 -191s-195 77 -195 191v319h67v-319c0 -78 53 -131 128 -131c76 0 129 53 129 131zM117 556l126 126l39 -39l-126 -126zM267 556l126 126l39 -39l-126 -126z" />
    <glyph glyph-name="Umacron.smcp" horiz-adv-x="520" 
d="M388 185v319h68v-319c0 -114 -80 -191 -197 -191s-195 77 -195 191v319h67v-319c0 -78 53 -131 128 -131c76 0 129 53 129 131zM137 547v48h245v-48h-245z" />
    <glyph glyph-name="Uogonek.smcp" horiz-adv-x="520" 
d="M296 -39c0 -36 23 -57 55 -57c16 0 30 5 40 15l28 -27c-17 -18 -40 -27 -68 -27c-55 0 -94 38 -94 96c0 12 2 23 7 33h-5c-117 0 -195 77 -195 191v319h67v-319c0 -78 53 -131 128 -131c76 0 129 53 129 131v319h68v-319c0 -99 -60 -170 -151 -187c-6 -10 -9 -24 -9 -37z
" />
    <glyph glyph-name="Uring.smcp" horiz-adv-x="520" 
d="M388 185v319h68v-319c0 -114 -80 -191 -197 -191s-195 77 -195 191v319h67v-319c0 -78 53 -131 128 -131c76 0 129 53 129 131zM172 601c0 54 36 90 88 90c53 0 88 -36 88 -90s-35 -90 -88 -90c-52 0 -88 36 -88 90zM208 600c0 -32 21 -53 52 -53s52 21 52 53
c0 33 -22 54 -52 54c-31 0 -52 -21 -52 -54z" />
    <glyph glyph-name="Utilde.smcp" horiz-adv-x="520" 
d="M388 185v319h68v-319c0 -114 -80 -191 -197 -191s-195 77 -195 191v319h67v-319c0 -78 53 -131 128 -131c76 0 129 53 129 131zM164 543h-43c0 53 35 88 84 88c59 0 65 -48 108 -48c24 0 42 18 42 44h43c0 -53 -35 -88 -85 -88c-60 0 -64 48 -107 48
c-24 0 -42 -17 -42 -44z" />
    <glyph glyph-name="V.smcp" horiz-adv-x="564" 
d="M534 504l-221 -504h-63l-221 504h80l173 -416l173 416h79z" />
    <glyph glyph-name="W.smcp" horiz-adv-x="822" 
d="M793 504l-184 -504h-67l-131 387l-130 -387h-68l-184 504h79l138 -399l130 399h70l130 -399l139 399h78z" />
    <glyph glyph-name="Wacute.smcp" horiz-adv-x="822" 
d="M793 504l-184 -504h-67l-131 387l-130 -387h-68l-184 504h79l138 -399l130 399h70l130 -399l139 399h78zM342 556l126 126l39 -39l-126 -126z" />
    <glyph glyph-name="Wcircumflex.smcp" horiz-adv-x="822" 
d="M793 504l-184 -504h-67l-131 387l-130 -387h-68l-184 504h79l138 -399l130 399h70l130 -399l139 399h78zM410 682l126 -126l-39 -39l-87 87l-87 -87l-39 39z" />
    <glyph glyph-name="Wdieresis.smcp" horiz-adv-x="822" 
d="M793 504l-184 -504h-67l-131 387l-130 -387h-68l-184 504h79l138 -399l130 399h70l130 -399l139 399h78zM269 578c0 27 21 48 47 48c27 0 48 -21 48 -48c0 -26 -21 -47 -48 -47c-26 0 -47 21 -47 47zM456 578c0 27 21 48 48 48s48 -21 48 -48c0 -26 -21 -47 -48 -47
s-48 21 -48 47z" />
    <glyph glyph-name="Wgrave.smcp" horiz-adv-x="822" 
d="M793 504l-184 -504h-67l-131 387l-130 -387h-68l-184 504h79l138 -399l130 399h70l130 -399l139 399h78zM353 682l126 -126l-39 -39l-126 126z" />
    <glyph glyph-name="X.smcp" horiz-adv-x="545" 
d="M427 0l-155 210l-155 -210h-86l191 255l-186 249h87l149 -203l149 203h87l-186 -249l192 -255h-87z" />
    <glyph glyph-name="Y.smcp" horiz-adv-x="524" 
d="M228 0v213l-197 291h78l153 -225l153 225h77l-197 -292v-212h-67z" />
    <glyph glyph-name="Yacute.smcp" horiz-adv-x="524" 
d="M228 0v213l-197 291h78l153 -225l153 225h77l-197 -292v-212h-67zM193 556l126 126l39 -39l-126 -126z" />
    <glyph glyph-name="Ycircumflex.smcp" horiz-adv-x="524" 
d="M228 0v213l-197 291h78l153 -225l153 225h77l-197 -292v-212h-67zM262 682l126 -126l-39 -39l-87 87l-87 -87l-39 39z" />
    <glyph glyph-name="Ydieresis.smcp" horiz-adv-x="524" 
d="M228 0v213l-197 291h78l153 -225l153 225h77l-197 -292v-212h-67zM120 578c0 27 21 48 47 48c27 0 48 -21 48 -48c0 -26 -21 -47 -48 -47c-26 0 -47 21 -47 47zM307 578c0 27 21 48 48 48s48 -21 48 -48c0 -26 -21 -47 -48 -47s-48 21 -48 47z" />
    <glyph glyph-name="Ygrave.smcp" horiz-adv-x="524" 
d="M228 0v213l-197 291h78l153 -225l153 225h77l-197 -292v-212h-67zM203 682l126 -126l-39 -39l-126 126z" />
    <glyph glyph-name="Z.smcp" horiz-adv-x="490" 
d="M53 448v56h387v-21l-293 -427h294v-56h-392v21l292 427h-288z" />
    <glyph glyph-name="Zacute.smcp" horiz-adv-x="490" 
d="M53 448v56h387v-21l-293 -427h294v-56h-392v21l292 427h-288zM177 556l126 126l39 -39l-126 -126z" />
    <glyph glyph-name="Zcaron.smcp" horiz-adv-x="490" 
d="M53 448v56h387v-21l-293 -427h294v-56h-392v21l292 427h-288zM244 517l-126 126l39 39l87 -87l87 87l39 -39z" />
    <glyph glyph-name="Zdotaccent.smcp" horiz-adv-x="490" 
d="M53 448v56h387v-21l-293 -427h294v-56h-392v21l292 427h-288zM195 590c0 28 22 50 50 50s50 -22 50 -50s-22 -50 -50 -50s-50 22 -50 50z" />
    <glyph glyph-name="uni018F.smcp" horiz-adv-x="570" 
d="M522 252c0 -154 -97 -258 -237 -258c-141 0 -237 104 -237 258v25h402c-10 103 -86 172 -191 172c-60 0 -109 -20 -143 -55l-42 43c45 46 110 73 188 73c154 0 260 -105 260 -258zM285 54c90 0 155 67 164 167h-329c9 -100 74 -167 165 -167z" />
    <glyph glyph-name="a" unicode="a" horiz-adv-x="453" 
d="M418 49v-50c-7 -3 -20 -5 -32 -5c-42 0 -71 19 -83 51c-34 -33 -79 -53 -129 -53c-89 0 -131 62 -131 130c0 93 76 140 185 140c43 0 68 -7 68 -7v60c0 39 -25 80 -94 80c-36 0 -78 -11 -103 -36l-39 39c40 40 89 59 148 59c111 0 163 -65 163 -142v-227
c0 -26 16 -39 47 -39zM196 55c34 0 73 14 100 42v105s-23 7 -62 7c-72 0 -116 -24 -116 -79c0 -37 20 -75 78 -75z" />
    <glyph glyph-name="aacute" unicode="&#xe1;" horiz-adv-x="453" 
d="M418 49v-50c-7 -3 -20 -5 -32 -5c-42 0 -71 19 -83 51c-34 -33 -79 -53 -129 -53c-89 0 -131 62 -131 130c0 93 76 140 185 140c43 0 68 -7 68 -7v60c0 39 -25 80 -94 80c-36 0 -78 -11 -103 -36l-39 39c40 40 89 59 148 59c111 0 163 -65 163 -142v-227
c0 -26 16 -39 47 -39zM196 55c34 0 73 14 100 42v105s-23 7 -62 7c-72 0 -116 -24 -116 -79c0 -37 20 -75 78 -75zM149 550l126 126l39 -39l-126 -126z" />
    <glyph glyph-name="abreve" unicode="&#x103;" horiz-adv-x="453" 
d="M418 49v-50c-7 -3 -20 -5 -32 -5c-42 0 -71 19 -83 51c-34 -33 -79 -53 -129 -53c-89 0 -131 62 -131 130c0 93 76 140 185 140c43 0 68 -7 68 -7v60c0 39 -25 80 -94 80c-36 0 -78 -11 -103 -36l-39 39c40 40 89 59 148 59c111 0 163 -65 163 -142v-227
c0 -26 16 -39 47 -39zM196 55c34 0 73 14 100 42v105s-23 7 -62 7c-72 0 -116 -24 -116 -79c0 -37 20 -75 78 -75zM216 582c43 0 77 16 102 42l39 -39c-36 -37 -83 -59 -141 -59s-105 23 -141 60l39 39c25 -26 59 -43 102 -43z" />
    <glyph glyph-name="acircumflex" unicode="&#xe2;" horiz-adv-x="453" 
d="M418 49v-50c-7 -3 -20 -5 -32 -5c-42 0 -71 19 -83 51c-34 -33 -79 -53 -129 -53c-89 0 -131 62 -131 130c0 93 76 140 185 140c43 0 68 -7 68 -7v60c0 39 -25 80 -94 80c-36 0 -78 -11 -103 -36l-39 39c40 40 89 59 148 59c111 0 163 -65 163 -142v-227
c0 -26 16 -39 47 -39zM196 55c34 0 73 14 100 42v105s-23 7 -62 7c-72 0 -116 -24 -116 -79c0 -37 20 -75 78 -75zM214 676l126 -126l-39 -39l-87 87l-87 -87l-39 39z" />
    <glyph glyph-name="adieresis" unicode="&#xe4;" horiz-adv-x="453" 
d="M418 49v-50c-7 -3 -20 -5 -32 -5c-42 0 -71 19 -83 51c-34 -33 -79 -53 -129 -53c-89 0 -131 62 -131 130c0 93 76 140 185 140c43 0 68 -7 68 -7v60c0 39 -25 80 -94 80c-36 0 -78 -11 -103 -36l-39 39c40 40 89 59 148 59c111 0 163 -65 163 -142v-227
c0 -26 16 -39 47 -39zM196 55c34 0 73 14 100 42v105s-23 7 -62 7c-72 0 -116 -24 -116 -79c0 -37 20 -75 78 -75zM264 572c0 27 21 48 48 48s48 -21 48 -48c0 -26 -21 -47 -48 -47s-48 21 -48 47zM77 572c0 27 21 48 47 48c27 0 48 -21 48 -48c0 -26 -21 -47 -48 -47
c-26 0 -47 21 -47 47z" />
    <glyph glyph-name="agrave" unicode="&#xe0;" horiz-adv-x="453" 
d="M418 49v-50c-7 -3 -20 -5 -32 -5c-42 0 -71 19 -83 51c-34 -33 -79 -53 -129 -53c-89 0 -131 62 -131 130c0 93 76 140 185 140c43 0 68 -7 68 -7v60c0 39 -25 80 -94 80c-36 0 -78 -11 -103 -36l-39 39c40 40 89 59 148 59c111 0 163 -65 163 -142v-227
c0 -26 16 -39 47 -39zM196 55c34 0 73 14 100 42v105s-23 7 -62 7c-72 0 -116 -24 -116 -79c0 -37 20 -75 78 -75zM145 676l126 -126l-39 -39l-126 126z" />
    <glyph glyph-name="amacron" unicode="&#x101;" horiz-adv-x="453" 
d="M418 49v-50c-7 -3 -20 -5 -32 -5c-42 0 -71 19 -83 51c-34 -33 -79 -53 -129 -53c-89 0 -131 62 -131 130c0 93 76 140 185 140c43 0 68 -7 68 -7v60c0 39 -25 80 -94 80c-36 0 -78 -11 -103 -36l-39 39c40 40 89 59 148 59c111 0 163 -65 163 -142v-227
c0 -26 16 -39 47 -39zM196 55c34 0 73 14 100 42v105s-23 7 -62 7c-72 0 -116 -24 -116 -79c0 -37 20 -75 78 -75zM91 542v48h245v-48h-245z" />
    <glyph glyph-name="aogonek" unicode="&#x105;" horiz-adv-x="453" 
d="M383 -39c0 -36 23 -57 55 -57c16 0 30 5 40 15l28 -27c-17 -18 -40 -27 -68 -27c-55 0 -94 38 -94 96c0 14 3 26 9 38c-24 7 -41 23 -50 46c-34 -33 -79 -53 -129 -53c-89 0 -131 62 -131 130c0 93 76 140 185 140c43 0 68 -7 68 -7v60c0 39 -25 80 -94 80
c-36 0 -78 -11 -103 -36l-39 39c40 40 89 59 148 59c111 0 163 -65 163 -142v-227c0 -26 16 -39 47 -39v-50c-7 -2 -18 -4 -29 -5c-4 -9 -6 -21 -6 -33zM196 55c34 0 73 14 100 42v105s-23 7 -62 7c-72 0 -116 -24 -116 -79c0 -37 20 -75 78 -75z" />
    <glyph glyph-name="aring" unicode="&#xe5;" horiz-adv-x="453" 
d="M418 49v-50c-7 -3 -20 -5 -32 -5c-42 0 -71 19 -83 51c-34 -33 -79 -53 -129 -53c-89 0 -131 62 -131 130c0 93 76 140 185 140c43 0 68 -7 68 -7v60c0 39 -25 80 -94 80c-36 0 -78 -11 -103 -36l-39 39c40 40 89 59 148 59c111 0 163 -65 163 -142v-227
c0 -26 16 -39 47 -39zM128 595c0 54 36 90 88 90c53 0 88 -36 88 -90s-35 -90 -88 -90c-52 0 -88 36 -88 90zM196 55c34 0 73 14 100 42v105s-23 7 -62 7c-72 0 -116 -24 -116 -79c0 -37 20 -75 78 -75zM164 594c0 -32 21 -53 52 -53s52 21 52 53c0 33 -22 54 -52 54
c-31 0 -52 -21 -52 -54z" />
    <glyph glyph-name="atilde" unicode="&#xe3;" horiz-adv-x="453" 
d="M418 49v-50c-7 -3 -20 -5 -32 -5c-42 0 -71 19 -83 51c-34 -33 -79 -53 -129 -53c-89 0 -131 62 -131 130c0 93 76 140 185 140c43 0 68 -7 68 -7v60c0 39 -25 80 -94 80c-36 0 -78 -11 -103 -36l-39 39c40 40 89 59 148 59c111 0 163 -65 163 -142v-227
c0 -26 16 -39 47 -39zM196 55c34 0 73 14 100 42v105s-23 7 -62 7c-72 0 -116 -24 -116 -79c0 -37 20 -75 78 -75zM125 538h-43c0 53 35 88 84 88c59 0 65 -48 108 -48c24 0 42 18 42 44h43c0 -53 -35 -88 -85 -88c-60 0 -64 48 -107 48c-24 0 -42 -17 -42 -44z" />
    <glyph glyph-name="ae" unicode="&#xe6;" horiz-adv-x="719" 
d="M296 260v53c0 38 -27 82 -90 82c-35 0 -79 -15 -100 -37l-42 42c36 36 91 57 148 57s96 -22 119 -51c36 33 83 51 141 51c133 0 205 -94 205 -253h-306v-92c27 -33 69 -52 122 -52c51 0 92 17 119 46l46 -47c-41 -42 -99 -67 -170 -67c-72 0 -133 24 -173 69
c-35 -43 -86 -69 -141 -69c-89 0 -129 63 -129 124c0 94 96 146 217 146c17 0 26 -1 34 -2zM371 313v-54h230c-8 81 -53 132 -128 132c-44 0 -81 -18 -105 -49c1 -9 3 -19 3 -29zM296 102v106c-8 1 -16 2 -30 2c-83 0 -145 -33 -145 -87c0 -28 17 -68 76 -68
c34 0 72 16 99 47z" />
    <glyph glyph-name="aeacute" unicode="&#x1fd;" horiz-adv-x="719" 
d="M296 260v53c0 38 -27 82 -90 82c-35 0 -79 -15 -100 -37l-42 42c36 36 91 57 148 57s96 -22 119 -51c36 33 83 51 141 51c133 0 205 -94 205 -253h-306v-92c27 -33 69 -52 122 -52c51 0 92 17 119 46l46 -47c-41 -42 -99 -67 -170 -67c-72 0 -133 24 -173 69
c-35 -43 -86 -69 -141 -69c-89 0 -129 63 -129 124c0 94 96 146 217 146c17 0 26 -1 34 -2zM371 313v-54h230c-8 81 -53 132 -128 132c-44 0 -81 -18 -105 -49c1 -9 3 -19 3 -29zM296 102v106c-8 1 -16 2 -30 2c-83 0 -145 -33 -145 -87c0 -28 17 -68 76 -68
c34 0 72 16 99 47zM307 550l126 126l39 -39l-126 -126z" />
    <glyph glyph-name="b" unicode="b" horiz-adv-x="539" 
d="M251 -8c-61 0 -131 15 -179 63v695h75v-330c34 24 77 37 125 37c132 0 222 -94 222 -233c0 -138 -87 -232 -243 -232zM417 223c0 100 -63 167 -156 167c-45 0 -86 -16 -114 -48v-250c30 -23 72 -32 110 -32c102 0 160 67 160 163z" />
    <glyph glyph-name="c" unicode="c" horiz-adv-x="477" 
d="M122 225c0 -98 64 -165 157 -165c49 0 89 17 116 46l47 -47c-41 -42 -98 -67 -167 -67c-137 0 -230 94 -230 233c0 138 93 232 230 232c69 0 126 -25 167 -68l-47 -46c-27 29 -67 47 -116 47c-93 0 -157 -67 -157 -165z" />
    <glyph glyph-name="cacute" unicode="&#x107;" horiz-adv-x="477" 
d="M122 225c0 -98 64 -165 157 -165c49 0 89 17 116 46l47 -47c-41 -42 -98 -67 -167 -67c-137 0 -230 94 -230 233c0 138 93 232 230 232c69 0 126 -25 167 -68l-47 -46c-27 29 -67 47 -116 47c-93 0 -157 -67 -157 -165zM203 550l126 126l39 -39l-126 -126z" />
    <glyph glyph-name="ccaron" unicode="&#x10d;" horiz-adv-x="477" 
d="M122 225c0 -98 64 -165 157 -165c49 0 89 17 116 46l47 -47c-41 -42 -98 -67 -167 -67c-137 0 -230 94 -230 233c0 138 93 232 230 232c69 0 126 -25 167 -68l-47 -46c-27 29 -67 47 -116 47c-93 0 -157 -67 -157 -165zM264 511l-126 126l39 39l87 -87l87 87l39 -39z" />
    <glyph glyph-name="ccedilla" unicode="&#xe7;" horiz-adv-x="477" 
d="M122 225c0 -98 64 -165 157 -165c49 0 89 17 116 46l47 -47c-39 -40 -92 -64 -155 -67v-51c40 -7 66 -34 66 -77c0 -47 -34 -79 -83 -79c-25 0 -46 9 -61 24l26 26c9 -9 20 -14 35 -14c27 0 47 17 47 45c0 26 -19 46 -65 46v81c-124 10 -207 101 -207 232
c0 138 93 232 230 232c69 0 126 -25 167 -68l-47 -46c-27 29 -67 47 -116 47c-93 0 -157 -67 -157 -165z" />
    <glyph glyph-name="ccircumflex" unicode="&#x109;" horiz-adv-x="477" 
d="M122 225c0 -98 64 -165 157 -165c49 0 89 17 116 46l47 -47c-41 -42 -98 -67 -167 -67c-137 0 -230 94 -230 233c0 138 93 232 230 232c69 0 126 -25 167 -68l-47 -46c-27 29 -67 47 -116 47c-93 0 -157 -67 -157 -165zM265 676l126 -126l-39 -39l-87 87l-87 -87l-39 39z
" />
    <glyph glyph-name="cdotaccent" unicode="&#x10b;" horiz-adv-x="477" 
d="M122 225c0 -98 64 -165 157 -165c49 0 89 17 116 46l47 -47c-41 -42 -98 -67 -167 -67c-137 0 -230 94 -230 233c0 138 93 232 230 232c69 0 126 -25 167 -68l-47 -46c-27 29 -67 47 -116 47c-93 0 -157 -67 -157 -165zM213 585c0 28 22 50 50 50s50 -22 50 -50
s-22 -50 -50 -50s-50 22 -50 50z" />
    <glyph glyph-name="d" unicode="d" horiz-adv-x="541" 
d="M468 0h-75v36c-36 -28 -81 -44 -132 -44c-129 0 -216 94 -216 233c0 138 92 232 228 232c45 0 86 -12 120 -32v325h75v-750zM122 225c0 -98 64 -165 157 -165c47 0 87 16 114 43v244c-27 27 -66 43 -114 43c-93 0 -157 -67 -157 -165z" />
    <glyph glyph-name="dcaron" unicode="&#x10f;" horiz-adv-x="658" 
d="M468 0h-75v36c-36 -28 -81 -44 -132 -44c-129 0 -216 94 -216 233c0 138 92 232 228 232c45 0 86 -12 120 -32v325h75v-750zM122 225c0 -98 64 -165 157 -165c47 0 87 16 114 43v244c-27 27 -66 43 -114 43c-93 0 -157 -67 -157 -165zM582 558l-26 27c22 23 41 48 47 73
c-24 4 -42 24 -42 49c0 28 22 50 50 50c24 0 50 -15 50 -58c0 -54 -42 -104 -79 -141z" />
    <glyph glyph-name="dcroat" unicode="&#x111;" horiz-adv-x="556" 
d="M468 0h-75v37c-35 -29 -81 -45 -132 -45c-129 0 -216 94 -216 233c0 138 92 232 228 232c46 0 87 -12 120 -35v155h-132v60h132v113h75v-113h58v-60h-58v-577zM122 225c0 -98 64 -165 157 -165c47 0 87 15 114 44v243c-27 27 -67 43 -114 43c-93 0 -157 -67 -157 -165z
" />
    <glyph glyph-name="eth" unicode="&#xf0;" horiz-adv-x="555" 
d="M167 536l-30 52l86 49l-63 83l67 37l62 -82l92 52l30 -51l-85 -49c124 -185 184 -279 184 -395c0 -148 -94 -240 -232 -240c-140 0 -233 95 -233 234s98 231 231 231c33 0 64 -9 85 -21c-30 50 -64 102 -100 154zM432 225c0 98 -63 165 -155 165s-155 -67 -155 -165
s63 -165 155 -165s155 67 155 165z" />
    <glyph glyph-name="thorn" unicode="&#xfe;" horiz-adv-x="541" 
d="M72 750h75v-338c35 29 81 45 133 45c129 0 216 -94 216 -232c0 -139 -92 -233 -228 -233c-46 0 -87 11 -121 32v-274h-75v1000zM418 225c0 98 -64 165 -157 165c-47 0 -87 -17 -114 -45v-243c27 -27 67 -42 114 -42c93 0 157 67 157 165z" />
    <glyph glyph-name="e" unicode="e" horiz-adv-x="508" 
d="M465 204h-341c7 -87 66 -144 158 -144c50 0 91 17 119 46l45 -47c-41 -42 -98 -67 -169 -67c-138 0 -232 93 -232 235c0 136 85 230 217 230c134 0 203 -98 203 -253zM262 391c-75 0 -129 -51 -138 -132h266c-9 81 -54 132 -128 132z" />
    <glyph glyph-name="eacute" unicode="&#xe9;" horiz-adv-x="508" 
d="M465 204h-341c7 -87 66 -144 158 -144c50 0 91 17 119 46l45 -47c-41 -42 -98 -67 -169 -67c-138 0 -232 93 -232 235c0 136 85 230 217 230c134 0 203 -98 203 -253zM262 391c-75 0 -129 -51 -138 -132h266c-9 81 -54 132 -128 132zM197 550l126 126l39 -39l-126 -126z
" />
    <glyph glyph-name="ebreve" unicode="&#x115;" horiz-adv-x="508" 
d="M465 204h-341c7 -87 66 -144 158 -144c50 0 91 17 119 46l45 -47c-41 -42 -98 -67 -169 -67c-138 0 -232 93 -232 235c0 136 85 230 217 230c134 0 203 -98 203 -253zM262 391c-75 0 -129 -51 -138 -132h266c-9 81 -54 132 -128 132zM260 582c43 0 77 16 102 42l39 -39
c-36 -37 -83 -59 -141 -59s-105 23 -141 60l39 39c25 -26 59 -43 102 -43z" />
    <glyph glyph-name="ecaron" unicode="&#x11b;" horiz-adv-x="508" 
d="M465 204h-341c7 -87 66 -144 158 -144c50 0 91 17 119 46l45 -47c-41 -42 -98 -67 -169 -67c-138 0 -232 93 -232 235c0 136 85 230 217 230c134 0 203 -98 203 -253zM262 391c-75 0 -129 -51 -138 -132h266c-9 81 -54 132 -128 132zM260 511l-126 126l39 39l87 -87
l87 87l39 -39z" />
    <glyph glyph-name="ecircumflex" unicode="&#xea;" horiz-adv-x="508" 
d="M465 204h-341c7 -87 66 -144 158 -144c50 0 91 17 119 46l45 -47c-41 -42 -98 -67 -169 -67c-138 0 -232 93 -232 235c0 136 85 230 217 230c134 0 203 -98 203 -253zM262 391c-75 0 -129 -51 -138 -132h266c-9 81 -54 132 -128 132zM260 676l126 -126l-39 -39l-87 87
l-87 -87l-39 39z" />
    <glyph glyph-name="edieresis" unicode="&#xeb;" horiz-adv-x="508" 
d="M465 204h-341c7 -87 66 -144 158 -144c50 0 91 17 119 46l45 -47c-41 -42 -98 -67 -169 -67c-138 0 -232 93 -232 235c0 136 85 230 217 230c134 0 203 -98 203 -253zM262 391c-75 0 -129 -51 -138 -132h266c-9 81 -54 132 -128 132zM119 572c0 27 21 48 47 48
c27 0 48 -21 48 -48c0 -26 -21 -47 -48 -47c-26 0 -47 21 -47 47zM306 572c0 27 21 48 48 48s48 -21 48 -48c0 -26 -21 -47 -48 -47s-48 21 -48 47z" />
    <glyph glyph-name="edotaccent" unicode="&#x117;" horiz-adv-x="508" 
d="M465 204h-341c7 -87 66 -144 158 -144c50 0 91 17 119 46l45 -47c-41 -42 -98 -67 -169 -67c-138 0 -232 93 -232 235c0 136 85 230 217 230c134 0 203 -98 203 -253zM262 391c-75 0 -129 -51 -138 -132h266c-9 81 -54 132 -128 132zM211 585c0 28 22 50 50 50
s50 -22 50 -50s-22 -50 -50 -50s-50 22 -50 50z" />
    <glyph glyph-name="egrave" unicode="&#xe8;" horiz-adv-x="508" 
d="M465 204h-341c7 -87 66 -144 158 -144c50 0 91 17 119 46l45 -47c-41 -42 -98 -67 -169 -67c-138 0 -232 93 -232 235c0 136 85 230 217 230c134 0 203 -98 203 -253zM262 391c-75 0 -129 -51 -138 -132h266c-9 81 -54 132 -128 132zM197 676l126 -126l-39 -39l-126 126z
" />
    <glyph glyph-name="emacron" unicode="&#x113;" horiz-adv-x="508" 
d="M465 204h-341c7 -87 66 -144 158 -144c50 0 91 17 119 46l45 -47c-41 -42 -98 -67 -169 -67c-138 0 -232 93 -232 235c0 136 85 230 217 230c134 0 203 -98 203 -253zM262 391c-75 0 -129 -51 -138 -132h266c-9 81 -54 132 -128 132zM137 542v48h245v-48h-245z" />
    <glyph glyph-name="eogonek" unicode="&#x119;" horiz-adv-x="508" 
d="M328 -39c0 -36 23 -57 55 -57c16 0 30 5 40 15l28 -27c-17 -18 -40 -27 -68 -27c-55 0 -94 38 -94 96c0 11 2 22 6 32c-6 -1 -12 -1 -18 -1c-138 0 -232 93 -232 235c0 136 85 230 217 230c134 0 203 -98 203 -253h-341c7 -87 66 -144 158 -144c50 0 91 17 119 46l45 -47
c-29 -30 -66 -51 -109 -60c-6 -10 -9 -25 -9 -38zM262 391c-75 0 -129 -51 -138 -132h266c-9 81 -54 132 -128 132z" />
    <glyph glyph-name="f" unicode="f" horiz-adv-x="322" 
d="M32 390v60h63v155c0 92 61 152 153 152c19 0 38 -3 54 -10v-64c-11 6 -26 10 -41 10c-52 0 -89 -36 -89 -88v-155h130v-60h-130v-390h-77v390h-63z" />
    <glyph glyph-name="g" unicode="g" horiz-adv-x="495" 
d="M22 -118c0 59 41 102 103 123c-39 17 -58 43 -58 75s21 60 63 76c-51 26 -78 77 -78 137c0 99 73 164 178 164c48 0 89 -14 120 -38c22 24 52 38 84 38c9 0 17 -1 26 -2v-60c-6 1 -12 2 -20 2c-21 0 -41 -8 -55 -18c14 -24 22 -52 22 -84c0 -97 -72 -163 -179 -163
c-57 0 -88 -21 -88 -50s40 -50 105 -50c129 0 212 -55 212 -138c0 -90 -98 -152 -230 -152c-126 0 -205 58 -205 140zM100 -118c0 -48 47 -81 127 -81c85 0 153 38 153 92c0 48 -55 80 -135 80c-89 0 -145 -37 -145 -91zM127 295c0 -61 43 -103 104 -103s103 42 103 103
c0 60 -42 102 -103 102s-104 -42 -104 -102z" />
    <glyph glyph-name="gbreve" unicode="&#x11f;" horiz-adv-x="495" 
d="M22 -118c0 59 41 102 103 123c-39 17 -58 43 -58 75s21 60 63 76c-51 26 -78 77 -78 137c0 99 73 164 178 164c48 0 89 -14 120 -38c22 24 52 38 84 38c9 0 17 -1 26 -2v-60c-6 1 -12 2 -20 2c-21 0 -41 -8 -55 -18c14 -24 22 -52 22 -84c0 -97 -72 -163 -179 -163
c-57 0 -88 -21 -88 -50s40 -50 105 -50c129 0 212 -55 212 -138c0 -90 -98 -152 -230 -152c-126 0 -205 58 -205 140zM100 -118c0 -48 47 -81 127 -81c85 0 153 38 153 92c0 48 -55 80 -135 80c-89 0 -145 -37 -145 -91zM127 295c0 -61 43 -103 104 -103s103 42 103 103
c0 60 -42 102 -103 102s-104 -42 -104 -102zM230 582c43 0 77 16 102 42l39 -39c-36 -37 -83 -59 -141 -59s-105 23 -141 60l39 39c25 -26 59 -43 102 -43z" />
    <glyph glyph-name="gcircumflex" unicode="&#x11d;" horiz-adv-x="495" 
d="M22 -118c0 59 41 102 103 123c-39 17 -58 43 -58 75s21 60 63 76c-51 26 -78 77 -78 137c0 99 73 164 178 164c48 0 89 -14 120 -38c22 24 52 38 84 38c9 0 17 -1 26 -2v-60c-6 1 -12 2 -20 2c-21 0 -41 -8 -55 -18c14 -24 22 -52 22 -84c0 -97 -72 -163 -179 -163
c-57 0 -88 -21 -88 -50s40 -50 105 -50c129 0 212 -55 212 -138c0 -90 -98 -152 -230 -152c-126 0 -205 58 -205 140zM100 -118c0 -48 47 -81 127 -81c85 0 153 38 153 92c0 48 -55 80 -135 80c-89 0 -145 -37 -145 -91zM127 295c0 -61 43 -103 104 -103s103 42 103 103
c0 60 -42 102 -103 102s-104 -42 -104 -102zM229 676l126 -126l-39 -39l-87 87l-87 -87l-39 39z" />
    <glyph glyph-name="gcommaaccent" unicode="&#x123;" horiz-adv-x="495" 
d="M22 -118c0 59 41 102 103 123c-39 17 -58 43 -58 75s21 60 63 76c-51 26 -78 77 -78 137c0 99 73 164 178 164c48 0 89 -14 120 -38c22 24 52 38 84 38c9 0 17 -1 26 -2v-60c-6 1 -12 2 -20 2c-21 0 -41 -8 -55 -18c14 -24 22 -52 22 -84c0 -97 -72 -163 -179 -163
c-57 0 -88 -21 -88 -50s40 -50 105 -50c129 0 212 -55 212 -138c0 -90 -98 -152 -230 -152c-126 0 -205 58 -205 140zM100 -118c0 -48 47 -81 127 -81c85 0 153 38 153 92c0 48 -55 80 -135 80c-89 0 -145 -37 -145 -91zM127 295c0 -61 43 -103 104 -103s103 42 103 103
c0 60 -42 102 -103 102s-104 -42 -104 -102zM257 684l23 -22c-20 -21 -37 -43 -41 -65c20 -3 36 -21 36 -42c0 -24 -19 -42 -43 -42c-21 0 -42 13 -42 49c0 47 35 91 67 122z" />
    <glyph glyph-name="gdotaccent" unicode="&#x121;" horiz-adv-x="495" 
d="M22 -118c0 59 41 102 103 123c-39 17 -58 43 -58 75s21 60 63 76c-51 26 -78 77 -78 137c0 99 73 164 178 164c48 0 89 -14 120 -38c22 24 52 38 84 38c9 0 17 -1 26 -2v-60c-6 1 -12 2 -20 2c-21 0 -41 -8 -55 -18c14 -24 22 -52 22 -84c0 -97 -72 -163 -179 -163
c-57 0 -88 -21 -88 -50s40 -50 105 -50c129 0 212 -55 212 -138c0 -90 -98 -152 -230 -152c-126 0 -205 58 -205 140zM100 -118c0 -48 47 -81 127 -81c85 0 153 38 153 92c0 48 -55 80 -135 80c-89 0 -145 -37 -145 -91zM127 295c0 -61 43 -103 104 -103s103 42 103 103
c0 60 -42 102 -103 102s-104 -42 -104 -102zM178 585c0 28 22 50 50 50s50 -22 50 -50s-22 -50 -50 -50s-50 22 -50 50z" />
    <glyph glyph-name="h" unicode="h" horiz-adv-x="523" 
d="M72 750h75v-338c35 29 80 45 132 45c102 0 169 -75 169 -185v-272h-75v272c0 70 -45 118 -112 118c-47 0 -87 -17 -114 -45v-345h-75v750z" />
    <glyph glyph-name="hbar" unicode="&#x127;" horiz-adv-x="538" 
d="M30 590v60h57v100h75v-100h173v-60h-173v-178c35 29 80 45 132 45c102 0 169 -75 169 -185v-272h-75v272c0 70 -45 118 -112 118c-47 0 -87 -17 -114 -45v-345h-75v590h-57z" />
    <glyph glyph-name="hcircumflex" unicode="&#x125;" horiz-adv-x="523" 
d="M72 750h75v-338c35 29 80 45 132 45c102 0 169 -75 169 -185v-272h-75v272c0 70 -45 118 -112 118c-47 0 -87 -17 -114 -45v-345h-75v750zM274 911l126 -126l-39 -39l-87 87l-87 -87l-39 39z" />
    <glyph glyph-name="i" unicode="i" 
d="M72 0v450h75v-450h-75zM60 585c0 28 22 50 50 50s50 -22 50 -50s-22 -50 -50 -50s-50 22 -50 50z" />
    <glyph glyph-name="iacute" unicode="&#xed;" 
d="M47 550l126 126l39 -39l-126 -126zM72 0v450h75v-450h-75z" />
    <glyph glyph-name="ibreve" unicode="&#x12d;" 
d="M110 582c43 0 77 16 102 42l39 -39c-36 -37 -83 -59 -141 -59s-105 23 -141 60l39 39c25 -26 59 -43 102 -43zM72 0v450h75v-450h-75z" />
    <glyph glyph-name="icircumflex" unicode="&#xee;" 
d="M72 0v450h75v-450h-75zM110 676l126 -126l-39 -39l-87 87l-87 -87l-39 39z" />
    <glyph glyph-name="idieresis" unicode="&#xef;" 
d="M72 0v450h75v-450h-75zM-14 572c0 27 21 48 47 48c27 0 48 -21 48 -48c0 -26 -21 -47 -48 -47c-26 0 -47 21 -47 47zM138 572c0 27 21 48 48 48s48 -21 48 -48c0 -26 -21 -47 -48 -47s-48 21 -48 47z" />
    <glyph glyph-name="igrave" unicode="&#xec;" 
d="M46 676l126 -126l-39 -39l-126 126zM72 0v450h75v-450h-75z" />
    <glyph glyph-name="imacron" unicode="&#x12b;" 
d="M-13 542v48h245v-48h-245zM72 0v450h75v-450h-75z" />
    <glyph glyph-name="iogonek" unicode="&#x12f;" 
d="M72 0v450h75v-450h-75zM60 585c0 28 22 50 50 50s50 -22 50 -50s-22 -50 -50 -50s-50 22 -50 50zM101 -39c0 -36 23 -57 55 -57c16 0 30 5 40 15l28 -27c-17 -18 -40 -27 -68 -27c-55 0 -94 38 -94 96c0 14 3 27 10 39h39c-6 -10 -10 -25 -10 -39z" />
    <glyph glyph-name="itilde" unicode="&#x129;" 
d="M14 538h-43c0 53 35 88 84 88c59 0 65 -48 108 -48c24 0 42 18 42 44h43c0 -53 -35 -88 -85 -88c-60 0 -64 48 -107 48c-24 0 -42 -17 -42 -44zM72 0v450h75v-450h-75z" />
    <glyph glyph-name="ij" unicode="&#x133;" horiz-adv-x="440" 
d="M72 0v450h75v-450h-75zM60 585c0 28 22 50 50 50s50 -22 50 -50s-22 -50 -50 -50s-50 22 -50 50zM280 585c0 28 22 50 50 50s50 -22 50 -50s-22 -50 -50 -50s-50 22 -50 50zM227 -250v50c40 0 65 20 65 63v587h75v-589c0 -73 -41 -116 -105 -116c-12 0 -28 2 -35 5z" />
    <glyph glyph-name="dotlessi" unicode="&#x131;" 
d="M72 0v450h75v-450h-75z" />
    <glyph glyph-name="j" unicode="j" 
d="M60 585c0 28 22 50 50 50s50 -22 50 -50s-22 -50 -50 -50s-50 22 -50 50zM7 -250v50c40 0 65 20 65 63v587h75v-589c0 -73 -41 -116 -105 -116c-12 0 -28 2 -35 5z" />
    <glyph glyph-name="jcircumflex" unicode="&#x135;" 
d="M7 -250v50c40 0 65 20 65 63v587h75v-589c0 -73 -41 -116 -105 -116c-12 0 -28 2 -35 5zM110 676l126 -126l-39 -39l-87 87l-87 -87l-39 39z" />
    <glyph glyph-name="dotlessj" unicode="&#x237;" 
d="M7 -250v50c40 0 65 20 65 63v587h75v-589c0 -73 -41 -116 -105 -116c-12 0 -28 2 -35 5z" />
    <glyph glyph-name="k" unicode="k" horiz-adv-x="459" 
d="M147 0h-75v750h75v-503l178 203h90l-188 -211l209 -239h-89l-200 231v-231z" />
    <glyph glyph-name="kcommaaccent" unicode="&#x137;" horiz-adv-x="459" 
d="M147 0h-75v750h75v-503l178 203h90l-188 -211l209 -239h-89l-200 231v-231zM210 -219l-23 22c20 21 37 43 41 65c-20 3 -36 21 -36 42c0 24 19 42 43 42c21 0 42 -13 42 -49c0 -47 -35 -91 -67 -122z" />
    <glyph glyph-name="l" unicode="l" horiz-adv-x="247" 
d="M215 50v-50c-7 -3 -25 -5 -37 -5c-65 0 -106 43 -106 116v639h75v-637c0 -43 26 -63 68 -63z" />
    <glyph glyph-name="lacute" unicode="&#x13a;" horiz-adv-x="247" 
d="M215 50v-50c-7 -3 -25 -5 -37 -5c-65 0 -106 43 -106 116v639h75v-637c0 -43 26 -63 68 -63zM41 810l126 126l39 -39l-126 -126z" />
    <glyph glyph-name="lcaron" unicode="&#x13e;" horiz-adv-x="372" 
d="M215 50v-50c-7 -3 -25 -5 -37 -5c-65 0 -106 43 -106 116v639h75v-637c0 -43 26 -63 68 -63zM273 558l-26 27c22 23 41 48 47 73c-24 4 -42 24 -42 49c0 28 22 50 50 50c24 0 50 -15 50 -58c0 -54 -42 -104 -79 -141z" />
    <glyph glyph-name="lcommaaccent" unicode="&#x13c;" horiz-adv-x="247" 
d="M215 50v-50c-7 -3 -25 -5 -37 -5c-65 0 -106 43 -106 116v639h75v-637c0 -43 26 -63 68 -63zM111 -219l-23 22c20 21 37 43 41 65c-20 3 -36 21 -36 42c0 24 19 42 43 42c21 0 42 -13 42 -49c0 -47 -35 -91 -67 -122z" />
    <glyph glyph-name="ldot" unicode="&#x140;" horiz-adv-x="378" 
d="M215 50v-50c-7 -3 -25 -5 -37 -5c-65 0 -106 43 -106 116v639h75v-637c0 -43 26 -63 68 -63zM250 325c0 28 22 50 50 50s50 -22 50 -50s-22 -50 -50 -50s-50 22 -50 50z" />
    <glyph glyph-name="lslash" unicode="&#x142;" horiz-adv-x="292" 
d="M242 50v-50c-7 -3 -25 -5 -37 -5c-64 0 -105 43 -105 116v171l-54 -53l-39 39l93 92v390h75v-332l61 61l39 -39l-100 -100v-227c0 -43 26 -63 67 -63z" />
    <glyph glyph-name="m" unicode="m" horiz-adv-x="761" 
d="M613 0v302c0 52 -33 88 -81 88s-90 -16 -119 -44c3 -14 5 -29 5 -44v-302h-75v302c0 52 -33 88 -82 88c-47 0 -87 -17 -114 -45v-345h-75v450h75v-38c35 29 80 45 132 45c51 0 91 -23 115 -62c38 40 92 62 155 62c85 0 139 -63 139 -155v-302h-75z" />
    <glyph glyph-name="n" unicode="n" horiz-adv-x="520" 
d="M72 450h75v-38c35 29 80 45 132 45c102 0 169 -75 169 -185v-272h-75v272c0 70 -45 118 -112 118c-47 0 -87 -17 -114 -45v-345h-75v450z" />
    <glyph glyph-name="nacute" unicode="&#x144;" horiz-adv-x="520" 
d="M72 450h75v-38c35 29 80 45 132 45c102 0 169 -75 169 -185v-272h-75v272c0 70 -45 118 -112 118c-47 0 -87 -17 -114 -45v-345h-75v450zM197 550l126 126l39 -39l-126 -126z" />
    <glyph glyph-name="ncaron" unicode="&#x148;" horiz-adv-x="520" 
d="M72 450h75v-38c35 29 80 45 132 45c102 0 169 -75 169 -185v-272h-75v272c0 70 -45 118 -112 118c-47 0 -87 -17 -114 -45v-345h-75v450zM260 511l-126 126l39 39l87 -87l87 87l39 -39z" />
    <glyph glyph-name="ncommaaccent" unicode="&#x146;" horiz-adv-x="520" 
d="M72 450h75v-38c35 29 80 45 132 45c102 0 169 -75 169 -185v-272h-75v272c0 70 -45 118 -112 118c-47 0 -87 -17 -114 -45v-345h-75v450zM235 -219l-23 22c20 21 37 43 41 65c-20 3 -36 21 -36 42c0 24 19 42 43 42c21 0 42 -13 42 -49c0 -47 -35 -91 -67 -122z" />
    <glyph glyph-name="ntilde" unicode="&#xf1;" horiz-adv-x="520" 
d="M72 450h75v-38c35 29 80 45 132 45c102 0 169 -75 169 -185v-272h-75v272c0 70 -45 118 -112 118c-47 0 -87 -17 -114 -45v-345h-75v450zM159 538h-43c0 53 35 88 84 88c59 0 65 -48 108 -48c24 0 42 18 42 44h43c0 -53 -35 -88 -85 -88c-60 0 -64 48 -107 48
c-24 0 -42 -17 -42 -44z" />
    <glyph glyph-name="eng" unicode="&#x14b;" horiz-adv-x="520" 
d="M308 -250v50c40 0 65 20 65 63v409c0 70 -44 118 -116 118c-41 0 -83 -17 -110 -45v-345h-75v450h75v-38c35 29 80 45 129 45c106 0 172 -75 172 -185v-411c0 -73 -41 -116 -106 -116c-12 0 -27 2 -34 5z" />
    <glyph glyph-name="o" unicode="o" horiz-adv-x="549" 
d="M44 225c0 138 93 232 230 232s231 -94 231 -232c0 -139 -94 -233 -231 -233s-230 94 -230 233zM121 225c0 -98 62 -165 153 -165c90 0 153 67 153 165s-63 165 -153 165c-91 0 -153 -67 -153 -165z" />
    <glyph glyph-name="oacute" unicode="&#xf3;" horiz-adv-x="549" 
d="M44 225c0 138 93 232 230 232s231 -94 231 -232c0 -139 -94 -233 -231 -233s-230 94 -230 233zM121 225c0 -98 62 -165 153 -165c90 0 153 67 153 165s-63 165 -153 165c-91 0 -153 -67 -153 -165zM212 550l126 126l39 -39l-126 -126z" />
    <glyph glyph-name="obreve" unicode="&#x14f;" horiz-adv-x="549" 
d="M44 225c0 138 93 232 230 232s231 -94 231 -232c0 -139 -94 -233 -231 -233s-230 94 -230 233zM121 225c0 -98 62 -165 153 -165c90 0 153 67 153 165s-63 165 -153 165c-91 0 -153 -67 -153 -165zM274 582c43 0 77 16 102 42l39 -39c-36 -37 -83 -59 -141 -59
s-105 23 -141 60l39 39c25 -26 59 -43 102 -43z" />
    <glyph glyph-name="ocircumflex" unicode="&#xf4;" horiz-adv-x="549" 
d="M44 225c0 138 93 232 230 232s231 -94 231 -232c0 -139 -94 -233 -231 -233s-230 94 -230 233zM121 225c0 -98 62 -165 153 -165c90 0 153 67 153 165s-63 165 -153 165c-91 0 -153 -67 -153 -165zM274 676l126 -126l-39 -39l-87 87l-87 -87l-39 39z" />
    <glyph glyph-name="odieresis" unicode="&#xf6;" horiz-adv-x="549" 
d="M44 225c0 138 93 232 230 232s231 -94 231 -232c0 -139 -94 -233 -231 -233s-230 94 -230 233zM121 225c0 -98 62 -165 153 -165c90 0 153 67 153 165s-63 165 -153 165c-91 0 -153 -67 -153 -165zM133 572c0 27 21 48 47 48c27 0 48 -21 48 -48c0 -26 -21 -47 -48 -47
c-26 0 -47 21 -47 47zM320 572c0 27 21 48 48 48s48 -21 48 -48c0 -26 -21 -47 -48 -47s-48 21 -48 47z" />
    <glyph glyph-name="ograve" unicode="&#xf2;" horiz-adv-x="549" 
d="M44 225c0 138 93 232 230 232s231 -94 231 -232c0 -139 -94 -233 -231 -233s-230 94 -230 233zM121 225c0 -98 62 -165 153 -165c90 0 153 67 153 165s-63 165 -153 165c-91 0 -153 -67 -153 -165zM211 676l126 -126l-39 -39l-126 126z" />
    <glyph glyph-name="ohungarumlaut" unicode="&#x151;" horiz-adv-x="549" 
d="M44 225c0 138 93 232 230 232s231 -94 231 -232c0 -139 -94 -233 -231 -233s-230 94 -230 233zM121 225c0 -98 62 -165 153 -165c90 0 153 67 153 165s-63 165 -153 165c-91 0 -153 -67 -153 -165zM137 550l126 126l39 -39l-126 -126zM287 550l126 126l39 -39l-126 -126z
" />
    <glyph glyph-name="omacron" unicode="&#x14d;" horiz-adv-x="549" 
d="M44 225c0 138 93 232 230 232s231 -94 231 -232c0 -139 -94 -233 -231 -233s-230 94 -230 233zM121 225c0 -98 62 -165 153 -165c90 0 153 67 153 165s-63 165 -153 165c-91 0 -153 -67 -153 -165zM152 542v48h245v-48h-245z" />
    <glyph glyph-name="oslash" unicode="&#xf8;" horiz-adv-x="549" 
d="M51 -8l53 68c-38 40 -60 97 -60 165c0 138 93 232 230 232c45 0 85 -11 119 -29l27 34h77l-55 -70c40 -41 63 -99 63 -167c0 -139 -94 -233 -231 -233c-46 0 -87 10 -122 30l-23 -30h-78zM432 225c0 44 -13 82 -34 111l-204 -261c23 -13 50 -20 80 -20
c94 0 158 69 158 170zM116 225c0 -43 11 -81 32 -109l204 260c-22 12 -49 19 -78 19c-94 0 -158 -69 -158 -170z" />
    <glyph glyph-name="oslashacute" unicode="&#x1ff;" horiz-adv-x="549" 
d="M51 -8l53 68c-38 40 -60 97 -60 165c0 138 93 232 230 232c45 0 85 -11 119 -29l27 34h77l-55 -70c40 -41 63 -99 63 -167c0 -139 -94 -233 -231 -233c-46 0 -87 10 -122 30l-23 -30h-78zM432 225c0 44 -13 82 -34 111l-204 -261c23 -13 50 -20 80 -20
c94 0 158 69 158 170zM116 225c0 -43 11 -81 32 -109l204 260c-22 12 -49 19 -78 19c-94 0 -158 -69 -158 -170zM212 550l126 126l39 -39l-126 -126z" />
    <glyph glyph-name="otilde" unicode="&#xf5;" horiz-adv-x="549" 
d="M44 225c0 138 93 232 230 232s231 -94 231 -232c0 -139 -94 -233 -231 -233s-230 94 -230 233zM121 225c0 -98 62 -165 153 -165c90 0 153 67 153 165s-63 165 -153 165c-91 0 -153 -67 -153 -165zM178 538h-43c0 53 35 88 84 88c59 0 65 -48 108 -48c24 0 42 18 42 44
h43c0 -53 -35 -88 -85 -88c-60 0 -64 48 -107 48c-24 0 -42 -17 -42 -44z" />
    <glyph glyph-name="oe" unicode="&#x153;" horiz-adv-x="830" 
d="M788 204h-337c7 -87 65 -144 156 -144c49 0 90 17 117 46l45 -47c-40 -42 -97 -67 -167 -67c-68 0 -124 24 -164 65c-40 -41 -96 -65 -164 -65c-137 0 -230 94 -230 233c0 138 93 232 230 232c66 0 121 -23 161 -63c37 40 87 63 151 63c131 0 202 -94 202 -253zM274 60
c52 0 94 22 121 58c-15 31 -23 68 -23 109c0 40 7 75 21 106c-27 35 -68 57 -119 57c-91 0 -153 -67 -153 -165s62 -165 153 -165zM587 391c-74 0 -127 -51 -136 -132h262c-9 81 -53 132 -126 132z" />
    <glyph glyph-name="p" unicode="p" horiz-adv-x="541" 
d="M72 450h75v-38c35 29 81 45 133 45c129 0 216 -94 216 -232c0 -139 -92 -233 -228 -233c-46 0 -87 11 -121 32v-274h-75v700zM418 225c0 98 -64 165 -157 165c-47 0 -87 -17 -114 -45v-243c27 -27 67 -42 114 -42c93 0 157 67 157 165z" />
    <glyph glyph-name="q" unicode="q" horiz-adv-x="539" 
d="M284 457c74 0 145 -24 183 -64v-643h-75v279c-34 -24 -77 -37 -125 -37c-132 0 -222 94 -222 233c0 138 90 232 239 232zM122 225c0 -98 63 -165 156 -165c44 0 86 16 114 46v251c-27 22 -70 33 -110 33c-100 0 -160 -67 -160 -165z" />
    <glyph glyph-name="r" unicode="r" horiz-adv-x="335" 
d="M269 456c11 0 21 -1 31 -2v-66c-11 2 -23 3 -35 3c-48 0 -91 -24 -118 -62v-329h-75v450h75v-55c33 38 76 61 122 61z" />
    <glyph glyph-name="racute" unicode="&#x155;" horiz-adv-x="335" 
d="M269 456c11 0 21 -1 31 -2v-66c-11 2 -23 3 -35 3c-48 0 -91 -24 -118 -62v-329h-75v450h75v-55c33 38 76 61 122 61zM125 550l126 126l39 -39l-126 -126z" />
    <glyph glyph-name="rcaron" unicode="&#x159;" horiz-adv-x="335" 
d="M269 456c11 0 21 -1 31 -2v-66c-11 2 -23 3 -35 3c-48 0 -91 -24 -118 -62v-329h-75v450h75v-55c33 38 76 61 122 61zM187 511l-126 126l39 39l87 -87l87 87l39 -39z" />
    <glyph glyph-name="rcommaaccent" unicode="&#x157;" horiz-adv-x="335" 
d="M269 456c11 0 21 -1 31 -2v-66c-11 2 -23 3 -35 3c-48 0 -91 -24 -118 -62v-329h-75v450h75v-55c33 38 76 61 122 61zM85 -219l-23 22c20 21 37 43 41 65c-20 3 -36 21 -36 42c0 24 19 42 43 42c21 0 42 -13 42 -49c0 -47 -35 -91 -67 -122z" />
    <glyph glyph-name="s" unicode="s" horiz-adv-x="382" 
d="M325 403l-44 -44c-19 21 -58 35 -88 35c-48 0 -67 -35 -67 -63c0 -40 40 -55 93 -77c59 -25 118 -53 118 -126c0 -67 -49 -136 -150 -136c-58 0 -113 23 -148 61l44 44c23 -27 64 -42 99 -42c59 0 80 40 80 70c0 36 -32 50 -89 74c-63 25 -122 53 -122 130
c0 65 43 128 136 128c52 0 104 -19 138 -54z" />
    <glyph glyph-name="sacute" unicode="&#x15b;" horiz-adv-x="382" 
d="M325 403l-44 -44c-19 21 -58 35 -88 35c-48 0 -67 -35 -67 -63c0 -40 40 -55 93 -77c59 -25 118 -53 118 -126c0 -67 -49 -136 -150 -136c-58 0 -113 23 -148 61l44 44c23 -27 64 -42 99 -42c59 0 80 40 80 70c0 36 -32 50 -89 74c-63 25 -122 53 -122 130
c0 65 43 128 136 128c52 0 104 -19 138 -54zM122 550l126 126l39 -39l-126 -126z" />
    <glyph glyph-name="scaron" unicode="&#x161;" horiz-adv-x="382" 
d="M325 403l-44 -44c-19 21 -58 35 -88 35c-48 0 -67 -35 -67 -63c0 -40 40 -55 93 -77c59 -25 118 -53 118 -126c0 -67 -49 -136 -150 -136c-58 0 -113 23 -148 61l44 44c23 -27 64 -42 99 -42c59 0 80 40 80 70c0 36 -32 50 -89 74c-63 25 -122 53 -122 130
c0 65 43 128 136 128c52 0 104 -19 138 -54zM184 511l-126 126l39 39l87 -87l87 87l39 -39z" />
    <glyph glyph-name="scedilla" unicode="&#x15f;" horiz-adv-x="382" 
d="M325 403l-44 -44c-19 21 -58 35 -88 35c-48 0 -67 -35 -67 -63c0 -40 40 -55 93 -77c59 -25 118 -53 118 -126c0 -64 -44 -129 -135 -135v-52c40 -7 66 -34 66 -77c0 -47 -34 -79 -83 -79c-25 0 -46 9 -61 24l26 26c9 -9 20 -14 35 -14c27 0 47 17 47 45
c0 26 -19 46 -65 46v81c-51 5 -97 26 -128 60l44 44c23 -27 64 -42 99 -42c59 0 80 40 80 70c0 36 -32 50 -89 74c-63 25 -122 53 -122 130c0 65 43 128 136 128c52 0 104 -19 138 -54z" />
    <glyph glyph-name="scircumflex" unicode="&#x15d;" horiz-adv-x="382" 
d="M325 403l-44 -44c-19 21 -58 35 -88 35c-48 0 -67 -35 -67 -63c0 -40 40 -55 93 -77c59 -25 118 -53 118 -126c0 -67 -49 -136 -150 -136c-58 0 -113 23 -148 61l44 44c23 -27 64 -42 99 -42c59 0 80 40 80 70c0 36 -32 50 -89 74c-63 25 -122 53 -122 130
c0 65 43 128 136 128c52 0 104 -19 138 -54zM184 676l126 -126l-39 -39l-87 87l-87 -87l-39 39z" />
    <glyph glyph-name="scommaaccent" unicode="&#x219;" horiz-adv-x="382" 
d="M325 403l-44 -44c-19 21 -58 35 -88 35c-48 0 -67 -35 -67 -63c0 -40 40 -55 93 -77c59 -25 118 -53 118 -126c0 -67 -49 -136 -150 -136c-58 0 -113 23 -148 61l44 44c23 -27 64 -42 99 -42c59 0 80 40 80 70c0 36 -32 50 -89 74c-63 25 -122 53 -122 130
c0 65 43 128 136 128c52 0 104 -19 138 -54zM162 -219l-23 22c20 21 37 43 41 65c-20 3 -36 21 -36 42c0 24 19 42 43 42c21 0 42 -13 42 -49c0 -47 -35 -91 -67 -122z" />
    <glyph glyph-name="t" unicode="t" horiz-adv-x="317" 
d="M27 390v60h58v100h77v-100h120v-60h-120v-250c0 -49 32 -83 80 -83c14 0 29 3 40 10v-65c-16 -7 -35 -10 -53 -10c-88 0 -144 59 -144 148v250h-58z" />
    <glyph glyph-name="tbar" unicode="&#x167;" horiz-adv-x="317" 
d="M27 242v58h58v90h-58v60h58v100h77v-100h120v-60h-120v-90h120v-58h-120v-102c0 -49 32 -83 80 -83c14 0 29 3 40 10v-65c-16 -7 -35 -10 -53 -10c-88 0 -144 59 -144 148v102h-58z" />
    <glyph glyph-name="tcaron" unicode="&#x165;" horiz-adv-x="357" 
d="M27 390v60h58v100h77v-100h120v-60h-120v-250c0 -49 32 -83 80 -83c14 0 29 3 40 10v-65c-16 -7 -35 -10 -53 -10c-88 0 -144 59 -144 148v250h-58zM266 533l-26 27c22 23 41 48 47 73c-24 4 -42 24 -42 49c0 28 22 50 50 50c24 0 50 -15 50 -58c0 -54 -42 -104 -79 -141
z" />
    <glyph glyph-name="tcommaaccent" unicode="&#x163;" horiz-adv-x="317" 
d="M27 390v60h58v100h77v-100h120v-60h-120v-250c0 -49 32 -83 80 -83c14 0 29 3 40 10v-65c-16 -7 -35 -10 -53 -10c-88 0 -144 59 -144 148v250h-58zM150 -219l-23 22c20 21 37 43 41 65c-20 3 -36 21 -36 42c0 24 19 42 43 42c21 0 42 -13 42 -49c0 -47 -35 -91 -67 -122
z" />
    <glyph glyph-name="uni021B" unicode="&#x21b;" horiz-adv-x="317" 
d="M27 390v60h58v100h77v-100h120v-60h-120v-250c0 -49 32 -83 80 -83c14 0 29 3 40 10v-65c-16 -7 -35 -10 -53 -10c-88 0 -144 59 -144 148v250h-58zM150 -219l-23 22c20 21 37 43 41 65c-20 3 -36 21 -36 42c0 24 19 42 43 42c21 0 42 -13 42 -49c0 -47 -35 -91 -67 -122
z" />
    <glyph glyph-name="u" unicode="u" horiz-adv-x="530" 
d="M458 450v-265c0 -115 -78 -193 -193 -193s-193 78 -193 193v265h78v-265c0 -74 47 -125 117 -125c69 0 117 51 117 125v265h74z" />
    <glyph glyph-name="uacute" unicode="&#xfa;" horiz-adv-x="530" 
d="M458 450v-265c0 -115 -78 -193 -193 -193s-193 78 -193 193v265h78v-265c0 -74 47 -125 117 -125c69 0 117 51 117 125v265h74zM202 550l126 126l39 -39l-126 -126z" />
    <glyph glyph-name="ubreve" unicode="&#x16d;" horiz-adv-x="530" 
d="M458 450v-265c0 -115 -78 -193 -193 -193s-193 78 -193 193v265h78v-265c0 -74 47 -125 117 -125c69 0 117 51 117 125v265h74zM265 582c43 0 77 16 102 42l39 -39c-36 -37 -83 -59 -141 -59s-105 23 -141 60l39 39c25 -26 59 -43 102 -43z" />
    <glyph glyph-name="ucircumflex" unicode="&#xfb;" horiz-adv-x="530" 
d="M458 450v-265c0 -115 -78 -193 -193 -193s-193 78 -193 193v265h78v-265c0 -74 47 -125 117 -125c69 0 117 51 117 125v265h74zM265 676l126 -126l-39 -39l-87 87l-87 -87l-39 39z" />
    <glyph glyph-name="udieresis" unicode="&#xfc;" horiz-adv-x="530" 
d="M458 450v-265c0 -115 -78 -193 -193 -193s-193 78 -193 193v265h78v-265c0 -74 47 -125 117 -125c69 0 117 51 117 125v265h74zM123 572c0 27 21 48 47 48c27 0 48 -21 48 -48c0 -26 -21 -47 -48 -47c-26 0 -47 21 -47 47zM310 572c0 27 21 48 48 48s48 -21 48 -48
c0 -26 -21 -47 -48 -47s-48 21 -48 47z" />
    <glyph glyph-name="uhungarumlaut" unicode="&#x171;" horiz-adv-x="530" 
d="M458 450v-265c0 -115 -78 -193 -193 -193s-193 78 -193 193v265h78v-265c0 -74 47 -125 117 -125c69 0 117 51 117 125v265h74zM127 550l126 126l39 -39l-126 -126zM277 550l126 126l39 -39l-126 -126z" />
    <glyph glyph-name="ugrave" unicode="&#xf9;" horiz-adv-x="530" 
d="M458 450v-265c0 -115 -78 -193 -193 -193s-193 78 -193 193v265h78v-265c0 -74 47 -125 117 -125c69 0 117 51 117 125v265h74zM201 676l126 -126l-39 -39l-126 126z" />
    <glyph glyph-name="umacron" unicode="&#x16b;" horiz-adv-x="530" 
d="M458 450v-265c0 -115 -78 -193 -193 -193s-193 78 -193 193v265h78v-265c0 -74 47 -125 117 -125c69 0 117 51 117 125v265h74zM142 542v48h245v-48h-245z" />
    <glyph glyph-name="uogonek" unicode="&#x173;" horiz-adv-x="530" 
d="M311 -39c0 -36 23 -57 55 -57c16 0 30 5 40 15l28 -27c-17 -18 -40 -27 -68 -27c-55 0 -94 38 -94 96c0 11 2 22 6 32c-5 0 -9 -1 -13 -1c-115 0 -193 78 -193 193v265h78v-265c0 -74 47 -125 117 -125c69 0 117 51 117 125v265h74v-265c0 -96 -54 -166 -138 -186
c-6 -10 -9 -25 -9 -38z" />
    <glyph glyph-name="uring" unicode="&#x16f;" horiz-adv-x="530" 
d="M458 450v-265c0 -115 -78 -193 -193 -193s-193 78 -193 193v265h78v-265c0 -74 47 -125 117 -125c69 0 117 51 117 125v265h74zM177 595c0 54 36 90 88 90c53 0 88 -36 88 -90s-35 -90 -88 -90c-52 0 -88 36 -88 90zM213 594c0 -32 21 -53 52 -53s52 21 52 53
c0 33 -22 54 -52 54c-31 0 -52 -21 -52 -54z" />
    <glyph glyph-name="utilde" unicode="&#x169;" horiz-adv-x="530" 
d="M458 450v-265c0 -115 -78 -193 -193 -193s-193 78 -193 193v265h78v-265c0 -74 47 -125 117 -125c69 0 117 51 117 125v265h74zM169 538h-43c0 53 35 88 84 88c59 0 65 -48 108 -48c24 0 42 18 42 44h43c0 -53 -35 -88 -85 -88c-60 0 -64 48 -107 48
c-24 0 -42 -17 -42 -44z" />
    <glyph glyph-name="v" unicode="v" horiz-adv-x="493" 
d="M477 450l-196 -450h-70l-196 450h84l147 -357l148 357h83z" />
    <glyph glyph-name="w" unicode="w" horiz-adv-x="745" 
d="M729 450l-167 -450h-78l-112 345l-111 -345h-79l-167 450h86l120 -359l113 359h76l113 -359l120 359h86z" />
    <glyph glyph-name="wacute" unicode="&#x1e83;" horiz-adv-x="745" 
d="M729 450l-167 -450h-78l-112 345l-111 -345h-79l-167 450h86l120 -359l113 359h76l113 -359l120 359h86zM310 550l126 126l39 -39l-126 -126z" />
    <glyph glyph-name="wcircumflex" unicode="&#x175;" horiz-adv-x="745" 
d="M729 450l-167 -450h-78l-112 345l-111 -345h-79l-167 450h86l120 -359l113 359h76l113 -359l120 359h86zM372 676l126 -126l-39 -39l-87 87l-87 -87l-39 39z" />
    <glyph glyph-name="wdieresis" unicode="&#x1e85;" horiz-adv-x="745" 
d="M729 450l-167 -450h-78l-112 345l-111 -345h-79l-167 450h86l120 -359l113 359h76l113 -359l120 359h86zM232 572c0 27 21 48 47 48c27 0 48 -21 48 -48c0 -26 -21 -47 -48 -47c-26 0 -47 21 -47 47zM419 572c0 27 21 48 48 48s48 -21 48 -48c0 -26 -21 -47 -48 -47
s-48 21 -48 47z" />
    <glyph glyph-name="wgrave" unicode="&#x1e81;" horiz-adv-x="745" 
d="M729 450l-167 -450h-78l-112 345l-111 -345h-79l-167 450h86l120 -359l113 359h76l113 -359l120 359h86zM310 676l126 -126l-39 -39l-126 126z" />
    <glyph glyph-name="x" unicode="x" horiz-adv-x="479" 
d="M372 0l-133 181l-132 -181h-87l170 229l-163 221h88l124 -172l125 172h87l-163 -221l171 -229h-87z" />
    <glyph glyph-name="y" unicode="y" horiz-adv-x="493" 
d="M477 450l-308 -700h-83l125 250l-196 450h84l147 -360l148 360h83z" />
    <glyph glyph-name="yacute" unicode="&#xfd;" horiz-adv-x="493" 
d="M477 450l-308 -700h-83l125 250l-196 450h84l147 -360l148 360h83zM183 550l126 126l39 -39l-126 -126z" />
    <glyph glyph-name="ycircumflex" unicode="&#x177;" horiz-adv-x="493" 
d="M477 450l-308 -700h-83l125 250l-196 450h84l147 -360l148 360h83zM247 676l126 -126l-39 -39l-87 87l-87 -87l-39 39z" />
    <glyph glyph-name="ydieresis" unicode="&#xff;" horiz-adv-x="493" 
d="M477 450l-308 -700h-83l125 250l-196 450h84l147 -360l148 360h83zM105 572c0 27 21 48 47 48c27 0 48 -21 48 -48c0 -26 -21 -47 -48 -47c-26 0 -47 21 -47 47zM292 572c0 27 21 48 48 48s48 -21 48 -48c0 -26 -21 -47 -48 -47s-48 21 -48 47z" />
    <glyph glyph-name="ygrave" unicode="&#x1ef3;" horiz-adv-x="493" 
d="M477 450l-308 -700h-83l125 250l-196 450h84l147 -360l148 360h83zM184 676l126 -126l-39 -39l-126 126z" />
    <glyph glyph-name="z" unicode="z" horiz-adv-x="465" 
d="M51 390v60h367v-28l-262 -362h262v-60h-371v28l262 362h-258z" />
    <glyph glyph-name="zacute" unicode="&#x17a;" horiz-adv-x="465" 
d="M51 390v60h367v-28l-262 -362h262v-60h-371v28l262 362h-258zM170 550l126 126l39 -39l-126 -126z" />
    <glyph glyph-name="zcaron" unicode="&#x17e;" horiz-adv-x="465" 
d="M51 390v60h367v-28l-262 -362h262v-60h-371v28l262 362h-258zM232 511l-126 126l39 39l87 -87l87 87l39 -39z" />
    <glyph glyph-name="zdotaccent" unicode="&#x17c;" horiz-adv-x="465" 
d="M51 390v60h367v-28l-262 -362h262v-60h-371v28l262 362h-258zM182 585c0 28 22 50 50 50s50 -22 50 -50s-22 -50 -50 -50s-50 22 -50 50z" />
    <glyph glyph-name="germandbls" unicode="&#xdf;" horiz-adv-x="600" 
d="M150 570v-570h-78v570c0 111 80 187 198 187s198 -76 198 -187c0 -86 -48 -152 -123 -173c0 -144 208 -91 208 -264c0 -70 -49 -141 -150 -141c-58 0 -113 23 -148 61l46 46c24 -27 62 -43 97 -43c58 0 80 43 80 73c0 114 -208 74 -208 259v62c71 0 120 48 120 119
s-49 121 -120 121s-120 -50 -120 -120z" />
    <glyph glyph-name="longs" unicode="&#x17f;" horiz-adv-x="302" 
d="M72 0v605c0 92 59 152 151 152c19 0 38 -3 54 -10v-64c-11 6 -26 10 -41 10c-52 0 -86 -36 -86 -88v-605h-78z" />
    <glyph glyph-name="uni01DD" unicode="&#x1dd;" horiz-adv-x="508" 
d="M45 245h341c-7 87 -66 145 -158 145c-50 0 -91 -17 -119 -47l-45 47c41 43 98 67 169 67c138 0 232 -93 232 -235c0 -135 -86 -230 -215 -230c-130 0 -205 98 -205 253zM248 58c75 0 129 52 138 133h-266c9 -81 54 -133 128 -133z" />
    <glyph glyph-name="germandbls.smcp" horiz-adv-x="464" 
d="M131 368v-368h-73v368c0 84 61 142 151 142s151 -57 151 -140c0 -56 -34 -100 -86 -117c0 -82 149 -50 149 -162c0 -50 -40 -97 -117 -97c-45 0 -87 17 -115 46l43 43c16 -18 43 -31 67 -31c37 0 52 22 52 40c0 61 -149 40 -149 158v54c49 0 83 27 83 69
c0 43 -32 75 -78 75s-78 -33 -78 -80z" />
    <glyph glyph-name="zero" unicode="0" horiz-adv-x="565" 
d="M50 350c0 212 94 357 232 357c139 0 233 -145 233 -357c0 -213 -94 -358 -233 -358c-138 0 -232 145 -232 358zM127 350c0 -172 63 -290 155 -290s155 118 155 290s-63 290 -155 290s-155 -118 -155 -290z" />
    <glyph glyph-name="one" unicode="1" horiz-adv-x="317" 
d="M32 612v60l185 32v-704h-75v633z" />
    <glyph glyph-name="two" unicode="2" horiz-adv-x="517" 
d="M49 66l303 303c27 27 40 68 40 117c0 90 -56 153 -136 153c-81 0 -136 -63 -136 -153h-78c0 132 87 221 214 221s214 -89 214 -221c0 -69 -23 -128 -63 -168l-253 -253h316v-65h-421v66z" />
    <glyph glyph-name="three" unicode="3" horiz-adv-x="532" 
d="M219 348v64h46c66 0 112 47 112 114s-46 114 -112 114c-67 0 -113 -47 -113 -114h-77c0 107 77 181 190 181s190 -74 190 -181c0 -68 -33 -119 -85 -145c70 -28 115 -91 115 -178c0 -125 -89 -211 -220 -211s-220 86 -220 211h77c0 -85 58 -143 143 -143
c84 0 142 58 142 143s-58 145 -142 145h-46z" />
    <glyph glyph-name="four" unicode="4" horiz-adv-x="548" 
d="M359 0v135h-319v37l314 528h77v-500h63v-65h-60v-135h-75zM133 200h228v386z" />
    <glyph glyph-name="five" unicode="5" horiz-adv-x="517" 
d="M470 214c0 -132 -87 -222 -214 -222s-214 85 -214 209h75c0 -83 57 -141 139 -141c80 0 136 63 136 154c0 99 -63 167 -154 167c-48 0 -88 -16 -115 -42l-55 21l43 340h307v-65h-240l-29 -208c25 14 58 22 93 22c136 0 228 -95 228 -235z" />
    <glyph glyph-name="six" unicode="6" horiz-adv-x="530" 
d="M292 707l65 -37c-58 -79 -120 -172 -169 -259c21 12 47 19 78 19c129 0 219 -87 219 -218s-89 -220 -221 -220c-130 0 -219 87 -219 226c0 133 67 227 247 489zM122 212c0 -90 58 -152 143 -152c84 0 142 62 142 152c0 91 -58 153 -142 153c-85 0 -143 -62 -143 -153z
" />
    <glyph glyph-name="seven" unicode="7" horiz-adv-x="524" 
d="M50 635v65h424v-28l-252 -672h-80l235 635h-327z" />
    <glyph glyph-name="eight" unicode="8" horiz-adv-x="535" 
d="M77 526c0 107 77 181 190 181s190 -74 190 -181c0 -68 -33 -119 -85 -145c71 -28 115 -91 115 -178c0 -125 -89 -211 -220 -211s-220 86 -220 211c0 87 44 150 114 178c-52 26 -84 77 -84 145zM125 203c0 -85 58 -143 142 -143c85 0 143 58 143 143s-58 144 -143 144
c-84 0 -142 -59 -142 -144zM155 526c0 -67 46 -113 112 -113c67 0 113 46 113 113s-46 114 -113 114c-66 0 -112 -47 -112 -114z" />
    <glyph glyph-name="nine" unicode="9" horiz-adv-x="530" 
d="M237 -8l-64 37c57 80 120 173 169 260c-22 -12 -48 -19 -78 -19c-130 0 -219 86 -219 218c0 130 88 219 220 219c131 0 220 -86 220 -225c0 -133 -68 -228 -248 -490zM407 487c0 91 -58 153 -142 153c-85 0 -143 -62 -143 -153c0 -90 58 -152 143 -152
c84 0 142 62 142 152z" />
    <glyph glyph-name="comma" unicode="," 
d="M81 -107l-26 27c22 23 41 48 47 73c-24 4 -42 24 -42 49c0 28 22 50 50 50c24 0 50 -15 50 -58c0 -54 -42 -104 -79 -141z" />
    <glyph glyph-name="period" unicode="." 
d="M60 42c0 28 22 50 50 50s50 -22 50 -50s-22 -50 -50 -50s-50 22 -50 50z" />
    <glyph glyph-name="currency" unicode="&#xa4;" horiz-adv-x="530" 
d="M95 300c0 38 10 72 28 98l-83 84l42 43l85 -85c26 19 60 30 98 30s72 -11 98 -30l85 85l42 -43l-84 -84c19 -26 29 -60 29 -98c0 -39 -10 -73 -29 -100l84 -83l-43 -42l-84 84c-26 -19 -60 -29 -98 -29s-72 10 -98 29l-84 -84l-43 42l83 83c-18 27 -28 61 -28 100z
M163 300c0 -67 42 -113 102 -113c61 0 103 46 103 113c0 66 -42 112 -103 112c-60 0 -102 -46 -102 -112z" />
    <glyph glyph-name="cent" unicode="&#xa2;" horiz-adv-x="477" 
d="M242 -100v94c-119 14 -197 103 -197 231c0 126 78 216 197 230v95h45v-93c63 -3 116 -28 155 -68l-47 -46c-26 27 -63 45 -108 47v-330c45 1 82 18 108 46l47 -47c-39 -40 -92 -64 -155 -67v-92h-45zM122 225c0 -85 47 -146 120 -161v322c-73 -16 -120 -77 -120 -161z
" />
    <glyph glyph-name="dollar" unicode="$" horiz-adv-x="541" 
d="M245 -100v93c-78 5 -149 37 -199 92l48 49c38 -43 96 -68 151 -72v260c-89 34 -183 75 -183 196c0 94 57 183 183 189v93h45v-95c64 -7 126 -35 171 -81l-49 -49c-28 30 -75 54 -122 60v-248c91 -36 191 -74 191 -194c0 -96 -62 -190 -191 -200v-93h-45zM401 191
c0 60 -50 88 -111 113v-240c79 14 111 79 111 127zM142 520c0 -59 45 -90 103 -115v231c-74 -9 -103 -68 -103 -116z" />
    <glyph glyph-name="Euro" unicode="&#x20ac;" horiz-adv-x="756" 
d="M45 395v45h66c35 162 165 267 344 267c105 0 194 -37 256 -101l-50 -50c-48 51 -118 81 -203 81c-133 0 -232 -77 -265 -197h267v-45h-275c-2 -15 -3 -30 -3 -45c0 -16 1 -31 3 -45h275v-45h-267c33 -121 132 -198 265 -198c85 0 154 29 203 80l50 -49
c-62 -64 -151 -101 -256 -101c-179 0 -309 105 -344 268h-66v45h59c-1 14 -2 29 -2 45c0 15 1 30 2 45h-59z" />
    <glyph glyph-name="sterling" unicode="&#xa3;" horiz-adv-x="522" 
d="M45 320v60h75v137c0 116 82 190 196 190c60 0 110 -21 144 -55l-50 -51c-21 23 -52 36 -91 36c-71 0 -121 -46 -121 -120v-137h177v-60h-177v-202c59 -16 101 -62 152 -62c36 0 59 24 59 59h61c0 -74 -49 -123 -118 -123c-82 0 -129 67 -190 67c-36 0 -59 -23 -59 -59
h-61c0 58 31 102 78 117v203h-75z" />
    <glyph glyph-name="yen" unicode="&#xa5;" horiz-adv-x="677" 
d="M159 220v45h140v36l-267 399h90l216 -322l216 322h90l-267 -400v-35h140v-45h-140v-83h140v-45h-140v-92h-78v92h-140v45h140v83h-140z" />
    <glyph glyph-name="uni20B4" unicode="&#x20b4;" horiz-adv-x="437" 
d="M47 390v45h208l13 13c25 25 43 47 43 90c0 59 -45 101 -108 101c-44 0 -81 -17 -106 -47l-48 48c37 43 90 67 154 67c110 0 184 -68 184 -167c0 -45 -16 -77 -38 -105h41v-45h-83l-78 -78h161v-45h-206l-15 -15c-25 -25 -43 -47 -43 -90c0 -60 45 -102 108 -102
c44 0 81 18 106 48l48 -49c-37 -42 -90 -67 -154 -67c-110 0 -184 68 -184 167c0 45 16 78 40 108h-43v45h85l78 78h-163z" />
    <glyph glyph-name="florin" unicode="&#x192;" horiz-adv-x="325" 
d="M40 -250v50c32 0 55 17 55 53v537h-63v60h63v155c0 92 58 152 150 152c19 0 38 -3 55 -10v-64c-12 6 -27 10 -42 10c-52 0 -86 -36 -86 -88v-155h128v-60h-128v-539c0 -66 -40 -106 -99 -106c-10 0 -26 2 -33 5z" />
    <glyph glyph-name="numbersign" unicode="#" horiz-adv-x="606" 
d="M332 0l28 175h-170l-27 -175h-76l28 175h-75v60h84l36 230h-84v60h93l28 175h76l-29 -175h170l28 175h76l-29 -175h77v-60h-85l-37 -230h87v-60h-96l-27 -175h-76zM236 465l-37 -230h170l36 230h-169z" />
    <glyph glyph-name="zero.fitted" horiz-adv-x="530" 
d="M37 350c0 212 92 357 228 357s228 -145 228 -357c0 -213 -92 -358 -228 -358s-228 145 -228 358zM114 350c0 -172 61 -290 151 -290c89 0 150 118 150 290s-61 290 -150 290c-90 0 -151 -118 -151 -290z" />
    <glyph glyph-name="one.fitted" horiz-adv-x="530" 
d="M101 0v60h125v573l-133 -21v60l208 32v-644h126v-60h-326z" />
    <glyph glyph-name="two.fitted" horiz-adv-x="530" 
d="M54 66l306 303c26 27 40 68 40 117c0 90 -57 153 -138 153s-137 -63 -137 -153h-78c0 132 87 221 215 221s215 -89 215 -221c0 -69 -27 -128 -67 -168l-256 -253h323v-65h-423v66z" />
    <glyph glyph-name="three.fitted" horiz-adv-x="530" 
d="M217 348v64h46c67 0 113 47 113 114s-46 114 -113 114c-66 0 -112 -47 -112 -114h-77c0 107 77 181 189 181c114 0 190 -74 190 -181c0 -68 -33 -119 -84 -145c70 -28 114 -91 114 -178c0 -125 -89 -211 -220 -211c-130 0 -219 86 -219 211h77c0 -85 58 -143 142 -143
c85 0 143 58 143 143s-58 145 -143 145h-46z" />
    <glyph glyph-name="four.fitted" horiz-adv-x="530" 
d="M348 0v135h-316v37l312 528h77v-500h62v-65h-60v-135h-75zM126 200h225v386z" />
    <glyph glyph-name="five.fitted" horiz-adv-x="530" 
d="M477 214c0 -132 -87 -222 -215 -222s-215 85 -215 209h75c0 -83 57 -141 140 -141c81 0 138 63 138 154c0 99 -64 167 -156 167c-49 0 -89 -16 -116 -42l-55 21l44 340h308v-65h-242l-29 -208c25 14 59 22 94 22c137 0 229 -95 229 -235z" />
    <glyph glyph-name="six.fitted" horiz-adv-x="530" 
d="M292 707l65 -37c-58 -79 -121 -172 -170 -259c22 12 48 19 79 19c130 0 220 -87 220 -218s-89 -220 -222 -220c-131 0 -221 87 -221 226c0 133 68 227 249 489zM121 212c0 -90 59 -152 144 -152s144 62 144 152c0 91 -59 153 -144 153s-144 -62 -144 -153z" />
    <glyph glyph-name="seven.fitted" horiz-adv-x="530" 
d="M52 635v65h425v-28l-252 -672h-81l237 635h-329z" />
    <glyph glyph-name="eight.fitted" horiz-adv-x="530" 
d="M74 526c0 107 78 181 191 181s190 -74 190 -181c0 -68 -33 -119 -85 -145c71 -28 116 -91 116 -178c0 -125 -90 -211 -221 -211c-132 0 -221 86 -221 211c0 87 44 150 114 178c-52 26 -84 77 -84 145zM121 203c0 -85 59 -143 144 -143s143 58 143 143s-58 144 -143 144
s-144 -59 -144 -144zM152 526c0 -67 46 -113 113 -113c66 0 113 46 113 113s-47 114 -113 114c-67 0 -113 -47 -113 -114z" />
    <glyph glyph-name="nine.fitted" horiz-adv-x="530" 
d="M237 -8l-65 37c58 80 121 173 170 260c-22 -12 -47 -19 -78 -19c-130 0 -220 86 -220 218c0 130 89 219 221 219c131 0 221 -86 221 -225c0 -133 -68 -228 -249 -490zM408 487c0 91 -58 153 -143 153s-144 -62 -144 -153c0 -90 59 -152 144 -152s143 62 143 152z" />
    <glyph glyph-name="onesuperior" unicode="&#xb9;" horiz-adv-x="183" 
d="M26 650v36l100 16v-352h-45v310z" />
    <glyph glyph-name="twosuperior" unicode="&#xb2;" horiz-adv-x="279" 
d="M32 388l150 150c12 12 19 32 19 54c0 42 -26 71 -62 71c-38 0 -63 -29 -63 -71h-47c0 66 44 112 110 112c64 0 108 -46 108 -112c0 -35 -13 -63 -33 -84l-120 -120h153v-38h-215v38z" />
    <glyph glyph-name="threesuperior" unicode="&#xb3;" horiz-adv-x="287" 
d="M120 520v38h23c31 0 52 22 52 53s-21 52 -52 52c-30 0 -51 -21 -51 -52h-47c0 55 40 93 98 93c59 0 99 -38 99 -93c0 -33 -16 -58 -40 -71c33 -15 53 -45 53 -87c0 -64 -45 -107 -112 -107c-66 0 -112 43 -112 107h47c0 -40 27 -67 65 -67c39 0 66 27 66 67
c0 39 -27 67 -66 67h-23z" />
    <glyph glyph-name="onehalf" unicode="&#xbd;" horiz-adv-x="686" 
d="M26 650v36l100 16v-352h-45v310zM97 0l369 700h56l-368 -700h-57zM439 38l150 150c12 12 19 32 19 54c0 42 -26 71 -62 71c-38 0 -63 -29 -63 -71h-47c0 66 44 112 110 112c64 0 108 -46 108 -112c0 -35 -13 -63 -33 -84l-120 -120h153v-38h-215v38z" />
    <glyph glyph-name="onequarter" unicode="&#xbc;" horiz-adv-x="634" 
d="M26 650v36l100 16v-352h-45v310zM97 0l369 700h56l-368 -700h-57zM524 0v65h-158v21l156 264h45v-246h31v-39h-29v-65h-45zM422 104h104v178z" />
    <glyph glyph-name="threequarters" unicode="&#xbe;" horiz-adv-x="652" 
d="M120 520v38h23c31 0 52 22 52 53s-21 52 -52 52c-30 0 -51 -21 -51 -52h-47c0 55 40 93 98 93c59 0 99 -38 99 -93c0 -33 -16 -58 -40 -71c33 -15 53 -45 53 -87c0 -64 -45 -107 -112 -107c-66 0 -112 43 -112 107h47c0 -40 27 -67 65 -67c39 0 66 27 66 67
c0 39 -27 67 -66 67h-23zM140 0l368 700h57l-369 -700h-56zM542 0v65h-158v21l156 264h45v-246h31v-39h-29v-65h-45zM440 104h104v178z" />
    <glyph glyph-name="zero.sup" horiz-adv-x="301" 
d="M33 525c0 106 48 179 118 179s117 -73 117 -179c0 -107 -47 -179 -117 -179s-118 72 -118 179zM80 525c0 -83 28 -139 71 -139c41 0 70 56 70 139c0 82 -29 138 -70 138c-43 0 -71 -56 -71 -138z" />
    <glyph glyph-name="one.sup" horiz-adv-x="183" 
d="M26 650v36l100 16v-352h-45v310z" />
    <glyph glyph-name="two.sup" horiz-adv-x="279" 
d="M32 388l150 150c12 12 19 32 19 54c0 42 -26 71 -62 71c-38 0 -63 -29 -63 -71h-47c0 66 44 112 110 112c64 0 108 -46 108 -112c0 -35 -13 -63 -33 -84l-120 -120h153v-38h-215v38z" />
    <glyph glyph-name="three.sup" horiz-adv-x="287" 
d="M120 520v38h23c31 0 52 22 52 53s-21 52 -52 52c-30 0 -51 -21 -51 -52h-47c0 55 40 93 98 93c59 0 99 -38 99 -93c0 -33 -16 -58 -40 -71c33 -15 53 -45 53 -87c0 -64 -45 -107 -112 -107c-66 0 -112 43 -112 107h47c0 -40 27 -67 65 -67c39 0 66 27 66 67
c0 39 -27 67 -66 67h-23z" />
    <glyph glyph-name="four.sup" horiz-adv-x="297" 
d="M186 350v65h-158v21l156 264h46v-246h30v-39h-29v-65h-45zM85 454h103v178z" />
    <glyph glyph-name="five.sup" horiz-adv-x="279" 
d="M247 458c0 -67 -44 -112 -108 -112c-66 0 -110 43 -110 106h45c0 -38 26 -66 65 -66c36 0 62 29 62 72c0 46 -30 77 -72 77c-22 0 -41 -7 -53 -20l-33 12l21 173h157v-39h-118l-12 -94c11 6 26 9 41 9c69 0 115 -48 115 -118z" />
    <glyph glyph-name="six.sup" horiz-adv-x="286" 
d="M155 704l39 -22c-28 -37 -60 -82 -84 -124c9 5 21 7 33 7c65 0 111 -43 111 -109s-44 -110 -112 -110c-66 0 -111 43 -111 114s41 131 124 244zM78 456c0 -41 27 -70 65 -70s64 29 64 70c0 42 -26 71 -64 71s-65 -29 -65 -71z" />
    <glyph glyph-name="seven.sup" horiz-adv-x="284" 
d="M33 661v39h217v-15l-122 -335h-48l112 311h-159z" />
    <glyph glyph-name="eight.sup" horiz-adv-x="288" 
d="M45 611c0 55 41 93 99 93s98 -38 98 -93c0 -33 -15 -58 -40 -71c33 -15 54 -45 54 -87c0 -64 -45 -107 -112 -107s-112 43 -112 107c0 42 20 72 53 87c-25 13 -40 38 -40 71zM78 453c0 -40 27 -67 66 -67s65 27 65 67c0 39 -26 66 -65 66s-66 -27 -66 -66zM92 611
c0 -31 21 -52 52 -52s52 21 52 52s-21 52 -52 52s-52 -21 -52 -52z" />
    <glyph glyph-name="nine.sup" horiz-adv-x="286" 
d="M130 346l-39 22c29 37 61 82 84 123c-9 -4 -20 -7 -33 -7c-66 0 -111 43 -111 110c0 65 45 110 112 110c66 0 111 -43 111 -114c0 -72 -41 -131 -124 -244zM207 593c0 42 -26 70 -64 70s-65 -28 -65 -70s27 -70 65 -70s64 28 64 70z" />
    <glyph glyph-name="comma.sup" horiz-adv-x="131" 
d="M50 293l-15 15c12 12 21 25 25 38c-13 3 -23 14 -23 28c0 16 12 28 29 28c12 0 28 -8 28 -32c0 -30 -24 -57 -44 -77z" />
    <glyph glyph-name="period.sup" horiz-adv-x="131" 
d="M37 374c0 16 12 28 28 28s29 -12 29 -28s-13 -28 -29 -28s-28 12 -28 28z" />
    <glyph glyph-name="parenleft.sup" horiz-adv-x="167" 
d="M135 729v-34c-28 0 -52 -69 -52 -170c0 -102 24 -171 52 -171v-33c-55 0 -98 82 -98 204c0 121 43 204 98 204z" />
    <glyph glyph-name="parenright.sup" horiz-adv-x="167" 
d="M32 695v34c55 0 98 -83 98 -204c0 -122 -43 -204 -98 -204v34c27 0 51 68 51 170c0 101 -24 170 -51 170z" />
    <glyph glyph-name="hyphen.sup" horiz-adv-x="189" 
d="M37 507v36h115v-36h-115z" />
    <glyph glyph-name="zero.sub" horiz-adv-x="301" 
d="M33 125c0 106 48 179 118 179s117 -73 117 -179c0 -107 -47 -179 -117 -179s-118 72 -118 179zM80 125c0 -83 28 -139 71 -139c41 0 70 56 70 139c0 82 -29 138 -70 138c-43 0 -71 -56 -71 -138z" />
    <glyph glyph-name="one.sub" horiz-adv-x="183" 
d="M26 250v36l100 16v-352h-45v310z" />
    <glyph glyph-name="two.sub" horiz-adv-x="279" 
d="M32 -12l150 150c12 12 19 32 19 54c0 42 -26 71 -62 71c-38 0 -63 -29 -63 -71h-47c0 66 44 112 110 112c64 0 108 -46 108 -112c0 -35 -13 -63 -33 -84l-120 -120h153v-38h-215v38z" />
    <glyph glyph-name="three.sub" horiz-adv-x="287" 
d="M120 120v38h23c31 0 52 22 52 53s-21 52 -52 52c-30 0 -51 -21 -51 -52h-47c0 55 40 93 98 93c59 0 99 -38 99 -93c0 -33 -16 -58 -40 -71c33 -15 53 -45 53 -87c0 -64 -45 -107 -112 -107c-66 0 -112 43 -112 107h47c0 -40 27 -67 65 -67c39 0 66 27 66 67
c0 39 -27 67 -66 67h-23z" />
    <glyph glyph-name="four.sub" horiz-adv-x="297" 
d="M186 -50v65h-158v21l156 264h46v-246h30v-39h-29v-65h-45zM85 54h103v178z" />
    <glyph glyph-name="five.sub" horiz-adv-x="279" 
d="M247 58c0 -67 -44 -112 -108 -112c-66 0 -110 43 -110 106h45c0 -39 26 -66 65 -66c36 0 62 29 62 72c0 46 -30 77 -72 77c-22 0 -41 -7 -53 -20l-33 12l21 173h157v-39h-118l-12 -94c11 6 26 9 41 9c69 0 115 -48 115 -118z" />
    <glyph glyph-name="six.sub" horiz-adv-x="286" 
d="M155 304l39 -22c-28 -37 -60 -82 -84 -124c9 5 21 7 33 7c65 0 111 -43 111 -109s-44 -110 -112 -110c-66 0 -111 43 -111 114s41 131 124 244zM78 56c0 -41 27 -70 65 -70s64 29 64 70c0 42 -26 71 -64 71s-65 -29 -65 -71z" />
    <glyph glyph-name="seven.sub" horiz-adv-x="284" 
d="M33 261v39h217v-15l-122 -335h-48l112 311h-159z" />
    <glyph glyph-name="eight.sub" horiz-adv-x="288" 
d="M45 211c0 55 41 93 99 93s98 -38 98 -93c0 -33 -15 -58 -40 -71c33 -15 54 -45 54 -87c0 -64 -45 -107 -112 -107s-112 43 -112 107c0 42 20 72 53 87c-25 13 -40 38 -40 71zM78 53c0 -40 27 -67 66 -67s65 27 65 67c0 39 -26 66 -65 66s-66 -27 -66 -66zM92 211
c0 -31 21 -52 52 -52s52 21 52 52s-21 52 -52 52s-52 -21 -52 -52z" />
    <glyph glyph-name="nine.sub" horiz-adv-x="286" 
d="M130 -54l-39 22c29 37 61 82 84 123c-9 -4 -20 -7 -33 -7c-66 0 -111 43 -111 110c0 65 45 110 112 110c66 0 111 -43 111 -114c0 -72 -41 -131 -124 -244zM207 193c0 42 -26 70 -64 70s-65 -28 -65 -70s27 -70 65 -70s64 28 64 70z" />
    <glyph glyph-name="comma.sub" horiz-adv-x="131" 
d="M50 -107l-15 15c12 12 21 25 25 38c-13 3 -23 14 -23 28c0 16 12 28 29 28c12 0 28 -8 28 -32c0 -30 -24 -57 -44 -77z" />
    <glyph glyph-name="period.sub" horiz-adv-x="131" 
d="M37 -26c0 16 12 28 28 28s29 -12 29 -28s-13 -28 -29 -28s-28 12 -28 28z" />
    <glyph glyph-name="parenleft.sub" horiz-adv-x="167" 
d="M135 329v-34c-28 0 -52 -69 -52 -170c0 -102 24 -171 52 -171v-33c-55 0 -98 82 -98 204c0 121 43 204 98 204z" />
    <glyph glyph-name="parenright.sub" horiz-adv-x="167" 
d="M32 295v34c55 0 98 -83 98 -204c0 -122 -43 -204 -98 -204v34c27 0 51 68 51 170c0 101 -24 170 -51 170z" />
    <glyph glyph-name="hyphen.sub" horiz-adv-x="189" 
d="M37 107v36h115v-36h-115z" />
    <glyph glyph-name="exclam" unicode="!" 
d="M60 42c0 28 22 50 50 50s50 -22 50 -50s-22 -50 -50 -50s-50 22 -50 50zM72 192v508h75v-508h-75z" />
    <glyph glyph-name="quotedbl" unicode="&#x22;" horiz-adv-x="365" 
d="M72 450v250h65v-250h-65zM227 450v250h65v-250h-65z" />
    <glyph glyph-name="quotesingle" unicode="'" horiz-adv-x="210" 
d="M72 450v250h65v-250h-65z" />
    <glyph glyph-name="quotesinglbase" unicode="&#x201a;" 
d="M81 -107l-26 27c22 23 41 48 47 73c-24 4 -42 24 -42 49c0 28 22 50 50 50c24 0 50 -15 50 -58c0 -54 -42 -104 -79 -141z" />
    <glyph glyph-name="quotedblbase" unicode="&#x201e;" horiz-adv-x="355" 
d="M81 -107l-26 27c22 23 41 48 47 73c-24 4 -42 24 -42 49c0 28 22 50 50 50c24 0 50 -15 50 -58c0 -54 -42 -104 -79 -141zM216 -107l-26 27c22 23 41 48 47 73c-24 4 -42 24 -42 49c0 28 22 50 50 50c24 0 50 -15 50 -58c0 -54 -42 -104 -79 -141z" />
    <glyph glyph-name="quoteleft" unicode="&#x2018;" 
d="M139 707l26 -26c-22 -23 -41 -48 -47 -74c24 -4 42 -24 42 -49c0 -28 -22 -50 -50 -50c-24 0 -50 16 -50 58c0 55 42 105 79 141z" />
    <glyph glyph-name="quoteright" unicode="&#x2019;" 
d="M81 508l-26 27c22 23 41 48 47 73c-24 4 -42 24 -42 49c0 28 22 50 50 50c24 0 50 -15 50 -58c0 -54 -42 -104 -79 -141z" />
    <glyph glyph-name="quotedblleft" unicode="&#x201c;" horiz-adv-x="355" 
d="M274 732l26 -26c-22 -23 -41 -48 -47 -74c24 -4 42 -24 42 -49c0 -28 -22 -50 -50 -50c-24 0 -50 16 -50 58c0 55 42 105 79 141zM139 732l26 -26c-22 -23 -41 -48 -47 -74c24 -4 42 -24 42 -49c0 -28 -22 -50 -50 -50c-24 0 -50 16 -50 58c0 55 42 105 79 141z" />
    <glyph glyph-name="quotedblright" unicode="&#x201d;" horiz-adv-x="355" 
d="M81 533l-26 27c22 23 41 48 47 73c-24 4 -42 24 -42 49c0 28 22 50 50 50c24 0 50 -15 50 -58c0 -54 -42 -104 -79 -141zM216 533l-26 27c22 23 41 48 47 73c-24 4 -42 24 -42 49c0 28 22 50 50 50c24 0 50 -15 50 -58c0 -54 -42 -104 -79 -141z" />
    <glyph glyph-name="ampersand" unicode="&#x26;" horiz-adv-x="612" 
d="M340 348v64h227v-64h-75v-145c0 -125 -89 -211 -220 -211s-220 86 -220 211c0 87 45 150 115 178c-52 26 -85 77 -85 145c0 107 77 181 190 181s190 -74 190 -181h-77c0 67 -46 114 -113 114c-66 0 -112 -47 -112 -114s46 -114 112 -114h28v-64h-28
c-84 0 -142 -60 -142 -145s58 -143 142 -143c85 0 143 58 143 143v145h-75z" />
    <glyph glyph-name="asterisk" unicode="*" horiz-adv-x="446" 
d="M223 474l-82 -113l-45 34l81 112l-132 43l18 54l131 -43v139h57v-139l132 44l18 -54l-133 -44l83 -113l-47 -33z" />
    <glyph glyph-name="plus" unicode="+" horiz-adv-x="435" 
d="M60 262v60h127v128h60v-128h128v-60h-128v-127h-60v127h-127z" />
    <glyph glyph-name="plusminus" unicode="&#xb1;" horiz-adv-x="435" 
d="M60 272v60h127v128h60v-128h128v-60h-128v-127h-60v127h-127zM60 52v60h315v-60h-315z" />
    <glyph glyph-name="slash" unicode="/" horiz-adv-x="550" 
d="M52 -50l369 800h76l-369 -800h-76z" />
    <glyph glyph-name="backslash" unicode="\" horiz-adv-x="550" 
d="M128 750l369 -800h-76l-369 800h76z" />
    <glyph glyph-name="fraction" unicode="&#x2044;" horiz-adv-x="550" 
d="M52 0l369 700h76l-368 -700h-77z" />
    <glyph glyph-name="at" unicode="@" horiz-adv-x="1050" 
d="M835 -73l48 -47c-84 -89 -212 -138 -355 -138c-286 0 -478 196 -478 483c0 286 193 482 477 482c290 0 473 -198 473 -443c0 -205 -127 -272 -224 -272c-54 0 -98 18 -117 52c-37 -33 -85 -52 -141 -52c-129 0 -216 94 -216 233c0 138 94 232 234 232
c81 0 148 -27 188 -74v-271c0 -35 30 -52 66 -52c59 0 132 50 132 196c0 215 -151 384 -394 384c-238 0 -401 -169 -401 -415s162 -415 403 -415c120 0 234 41 305 117zM380 225c0 -98 64 -165 157 -165c45 0 85 15 112 41v254c-28 22 -69 35 -114 35
c-93 0 -155 -67 -155 -165z" />
    <glyph glyph-name="parenleft" unicode="(" horiz-adv-x="297" 
d="M252 757v-57c-59 0 -115 -183 -115 -450s56 -450 115 -450v-58c-105 0 -192 206 -192 508c0 301 87 507 192 507z" />
    <glyph glyph-name="parenright" unicode=")" horiz-adv-x="297" 
d="M45 700v57c105 0 192 -206 192 -507c0 -302 -87 -508 -192 -508v58c59 0 115 183 115 450s-56 450 -115 450z" />
    <glyph glyph-name="bracketleft" unicode="[" horiz-adv-x="297" 
d="M247 750v-60h-100v-880h100v-60h-175v1000h175z" />
    <glyph glyph-name="bracketright" unicode="]" horiz-adv-x="297" 
d="M50 690v60h175v-1000h-175v60h100v880h-100z" />
    <glyph glyph-name="braceleft" unicode="{" horiz-adv-x="317" 
d="M277 -200v-58c-88 0 -157 90 -157 220v95c0 97 -37 163 -80 163v57c43 0 80 66 80 163v97c0 130 69 220 157 220v-57c-43 0 -80 -66 -80 -163v-97c0 -92 -34 -161 -84 -192c50 -30 84 -99 84 -191v-95c0 -96 37 -162 80 -162z" />
    <glyph glyph-name="braceright" unicode="}" horiz-adv-x="317" 
d="M40 -258v58c43 0 80 66 80 162v95c0 92 34 161 84 191c-50 31 -84 100 -84 192v97c0 97 -37 163 -80 163v57c88 0 157 -90 157 -220v-97c0 -97 37 -163 80 -163v-57c-43 0 -80 -66 -80 -163v-95c0 -130 -69 -220 -157 -220z" />
    <glyph glyph-name="exclamdown" unicode="&#xa1;" 
d="M60 407c0 28 22 50 50 50s50 -22 50 -50s-22 -50 -50 -50s-50 22 -50 50zM72 257h75v-507h-75v507z" />
    <glyph glyph-name="questiondown" unicode="&#xbf;" horiz-adv-x="471" 
d="M385 -135l49 -49c-52 -48 -119 -74 -193 -74c-131 0 -196 87 -196 181c0 149 156 127 156 277v57h75v-57c0 -183 -154 -171 -154 -276c0 -52 35 -114 121 -114c52 0 108 22 142 55zM288 407c0 -28 -22 -50 -50 -50s-50 22 -50 50s22 50 50 50s50 -22 50 -50z" />
    <glyph glyph-name="guillemotleft" unicode="&#xab;" horiz-adv-x="470" 
d="M206 79l-171 171l171 171l39 -39l-132 -132l132 -132zM376 79l-171 171l171 171l39 -39l-132 -132l132 -132z" />
    <glyph glyph-name="guillemotright" unicode="&#xbb;" horiz-adv-x="470" 
d="M430 250l-171 -171l-39 39l132 132l-132 132l39 39zM260 250l-171 -171l-39 39l132 132l-132 132l39 39z" />
    <glyph glyph-name="guilsinglleft" unicode="&#x2039;" horiz-adv-x="300" 
d="M206 79l-171 171l171 171l39 -39l-132 -132l132 -132z" />
    <glyph glyph-name="guilsinglright" unicode="&#x203a;" horiz-adv-x="300" 
d="M260 250l-171 -171l-39 39l132 132l-132 132l39 39z" />
    <glyph glyph-name="hyphen" unicode="-" horiz-adv-x="340" 
d="M60 235v60h220v-60h-220z" />
    <glyph glyph-name="endash" unicode="&#x2013;" horiz-adv-x="500" 
d="M60 235v60h380v-60h-380z" />
    <glyph glyph-name="emdash" unicode="&#x2014;" horiz-adv-x="700" 
d="M60 235v60h580v-60h-580z" />
    <glyph glyph-name="periodcentered" unicode="&#xb7;" 
d="M60 250c0 28 22 50 50 50s50 -22 50 -50s-22 -50 -50 -50s-50 22 -50 50z" />
    <glyph glyph-name="colon" unicode=":" 
d="M60 42c0 28 22 50 50 50s50 -22 50 -50s-22 -50 -50 -50s-50 22 -50 50zM60 407c0 28 22 50 50 50s50 -22 50 -50s-22 -50 -50 -50s-50 22 -50 50z" />
    <glyph glyph-name="semicolon" unicode=";" 
d="M60 407c0 28 22 50 50 50s50 -22 50 -50s-22 -50 -50 -50s-50 22 -50 50zM81 -107l-26 27c22 23 41 48 47 73c-24 4 -42 24 -42 49c0 28 22 50 50 50c24 0 50 -15 50 -58c0 -54 -42 -104 -79 -141z" />
    <glyph glyph-name="less" unicode="&#x3c;" horiz-adv-x="410" 
d="M316 109l-281 191l281 191l44 -44l-219 -147l219 -147z" />
    <glyph glyph-name="equal" unicode="=" horiz-adv-x="475" 
d="M60 325v60h355v-60h-355zM60 150v60h355v-60h-355z" />
    <glyph glyph-name="logicalnot" unicode="&#xac;" horiz-adv-x="500" 
d="M60 270v60h380v-175h-60v115h-320z" />
    <glyph glyph-name="greater" unicode="&#x3e;" horiz-adv-x="410" 
d="M370 300l-281 -191l-44 44l218 147l-218 147l44 44z" />
    <glyph glyph-name="question" unicode="?" horiz-adv-x="471" 
d="M86 584l-49 49c52 49 119 74 193 74c131 0 196 -87 196 -180c0 -149 -156 -127 -156 -277v-58h-75v58c0 182 154 171 154 276c0 52 -35 114 -121 114c-52 0 -108 -22 -142 -56zM183 42c0 28 22 50 50 50s50 -22 50 -50s-22 -50 -50 -50s-50 22 -50 50z" />
    <glyph glyph-name="asciicircum" unicode="^" horiz-adv-x="452" 
d="M226 676l191 -191l-39 -39l-152 152l-152 -152l-39 39z" />
    <glyph glyph-name="underscore" unicode="_" horiz-adv-x="450" 
d="M0 -160v60h450v-60h-450z" />
    <glyph glyph-name="bar" unicode="|" 
d="M72 -250v1000h75v-1000h-75z" />
    <glyph glyph-name="brokenbar" unicode="&#xa6;" 
d="M72 -250v450h75v-450h-75zM147 750v-450h-75v450h75z" />
    <glyph glyph-name="percent" unicode="%" horiz-adv-x="857" 
d="M206 0l369 700h76l-368 -700h-77zM40 537c0 101 69 170 170 170s170 -69 170 -170s-69 -170 -170 -170s-170 69 -170 170zM107 537c0 -66 42 -112 103 -112c60 0 102 46 102 112c0 67 -42 113 -102 113c-61 0 -103 -46 -103 -113zM477 162c0 101 69 170 170 170
s170 -69 170 -170s-69 -170 -170 -170s-170 69 -170 170zM545 162c0 -66 42 -112 102 -112c61 0 103 46 103 112c0 67 -42 113 -103 113c-60 0 -102 -46 -102 -113z" />
    <glyph glyph-name="perthousand" unicode="&#x2030;" horiz-adv-x="1250" 
d="M206 0l369 700h76l-368 -700h-77zM40 537c0 101 69 170 170 170s170 -69 170 -170s-69 -170 -170 -170s-170 69 -170 170zM107 537c0 -66 42 -112 103 -112c60 0 102 46 102 112c0 67 -42 113 -102 113c-61 0 -103 -46 -103 -113zM477 162c0 101 69 170 170 170
s170 -69 170 -170s-69 -170 -170 -170s-170 69 -170 170zM545 162c0 -66 42 -112 102 -112c61 0 103 46 103 112c0 67 -42 113 -103 113c-60 0 -102 -46 -102 -113zM870 162c0 101 69 170 170 170s170 -69 170 -170s-69 -170 -170 -170s-170 69 -170 170zM937 162
c0 -66 42 -112 103 -112c60 0 102 46 102 112c0 67 -42 113 -102 113c-61 0 -103 -46 -103 -113z" />
    <glyph glyph-name="ellipsis" unicode="&#x2026;" horiz-adv-x="660" 
d="M60 42c0 28 22 50 50 50s50 -22 50 -50s-22 -50 -50 -50s-50 22 -50 50zM280 42c0 28 22 50 50 50s50 -22 50 -50s-22 -50 -50 -50s-50 22 -50 50zM500 42c0 28 22 50 50 50s50 -22 50 -50s-22 -50 -50 -50s-50 22 -50 50z" />
    <glyph glyph-name="asciitilde" unicode="~" horiz-adv-x="432" 
d="M86 248h-51c0 65 46 108 107 108c78 0 87 -63 147 -63c33 0 57 24 57 59h51c0 -65 -45 -108 -108 -108c-79 0 -86 64 -146 64c-33 0 -57 -24 -57 -60z" />
    <glyph glyph-name="dagger" unicode="&#x2020;" horiz-adv-x="500" 
d="M60 390v60h152v300h75v-300h153v-60h-153v-640h-75v640h-152z" />
    <glyph glyph-name="daggerdbl" unicode="&#x2021;" horiz-adv-x="500" 
d="M60 65v60h152v265h-152v60h152v300h75v-300h153v-60h-153v-265h153v-60h-153v-315h-75v315h-152z" />
    <glyph glyph-name="figuredash" unicode="&#x2012;" horiz-adv-x="500" 
d="M60 320v60h380v-60h-380z" />
    <glyph glyph-name="minus" unicode="&#x2212;" horiz-adv-x="435" 
d="M60 272v60h315v-60h-315z" />
    <glyph glyph-name="bullet" unicode="&#x2022;" horiz-adv-x="259" 
d="M57 275c0 40 32 72 72 72c41 0 72 -32 72 -72c0 -41 -31 -72 -72 -72c-40 0 -72 31 -72 72z" />
    <glyph glyph-name="trademark" unicode="&#x2122;" horiz-adv-x="684" 
d="M167 661v-311h-47v311h-97v39h241v-39h-97zM598 350v255l-111 -178h-18l-111 178v-255h-47v350h35l132 -206l131 206h36v-350h-47z" />
    <glyph glyph-name="section" unicode="&#xa7;" horiz-adv-x="423" 
d="M162 439l204 -204l-50 -50l-206 206c-38 38 -65 83 -65 146c0 101 74 170 184 170c64 0 117 -24 154 -67l-48 -48c-25 30 -62 47 -106 47c-63 0 -107 -42 -107 -102c0 -44 14 -73 40 -98zM261 10l-204 205l50 50l206 -206c38 -38 65 -84 65 -147
c0 -101 -74 -170 -184 -170c-64 0 -117 25 -154 67l48 49c25 -30 62 -48 106 -48c63 0 107 43 107 103c0 43 -15 72 -40 97z" />
    <glyph glyph-name="copyright" unicode="&#xa9;" horiz-adv-x="805" 
d="M50 350c0 212 142 357 352 357s353 -145 353 -357c0 -213 -143 -358 -353 -358s-352 145 -352 358zM108 350c0 -185 120 -312 294 -312c175 0 295 127 295 312c0 184 -120 311 -295 311c-174 0 -294 -127 -294 -311zM280 350c0 -81 54 -138 132 -138c40 0 73 14 96 38
l30 -29c-31 -32 -76 -50 -128 -50c-106 0 -178 72 -178 179c0 106 72 179 178 179c52 0 97 -19 128 -51l-30 -29c-23 24 -56 38 -96 38c-78 0 -132 -56 -132 -137z" />
    <glyph glyph-name="ordfeminine" unicode="&#xaa;" horiz-adv-x="260" 
d="M232 483v-31c-4 -2 -12 -3 -18 -3c-22 0 -37 10 -45 26c-18 -18 -44 -28 -69 -28c-49 0 -72 35 -72 69c0 53 53 82 119 82c9 0 14 -1 18 -2v26c0 19 -14 43 -47 43c-19 0 -40 -8 -52 -20l-26 25c21 21 49 34 82 34c59 0 90 -39 90 -82v-119c0 -13 8 -20 20 -20zM115 487
c16 0 37 6 50 22v55c-4 1 -9 1 -16 1c-41 0 -73 -16 -73 -44c0 -14 9 -34 39 -34z" />
    <glyph glyph-name="uni00AD" unicode="&#xad;" horiz-adv-x="340" 
d="M60 235v60h220v-60h-220z" />
    <glyph glyph-name="registered" unicode="&#xae;" horiz-adv-x="805" 
d="M50 350c0 212 142 357 352 357s353 -145 353 -357c0 -213 -143 -358 -353 -358s-352 145 -352 358zM108 350c0 -185 120 -312 294 -312c175 0 295 127 295 312c0 184 -120 311 -295 311c-174 0 -294 -127 -294 -311zM472 174l-80 150h-42v-150h-48v350h102
c63 0 106 -39 106 -100c0 -49 -28 -84 -71 -96l86 -154h-53zM462 424c0 35 -23 59 -58 59h-54v-119h54c35 0 58 24 58 60z" />
    <glyph glyph-name="degree" unicode="&#xb0;" horiz-adv-x="290" 
d="M45 602c0 62 41 103 100 103c61 0 101 -41 101 -103c0 -61 -40 -102 -101 -102c-59 0 -100 41 -100 102zM86 602c0 -37 24 -61 59 -61c36 0 60 24 60 61s-25 61 -60 61s-59 -24 -59 -61z" />
    <glyph glyph-name="mu" unicode="&#xb5;" horiz-adv-x="530" 
d="M17 -200v50c33 0 55 17 55 53v547h78v-265c0 -74 47 -125 117 -125c69 0 117 51 117 125v265h74v-265c0 -115 -78 -193 -193 -193c-46 0 -87 12 -118 35v-126c0 -66 -38 -106 -96 -106c-11 0 -27 2 -34 5z" />
    <glyph glyph-name="paragraph" unicode="&#xb6;" horiz-adv-x="577" 
d="M354 700v-700h-72v317h-30c-119 0 -200 75 -200 191c0 117 81 192 200 192h102zM432 0v700h72v-700h-72z" />
    <glyph glyph-name="ordmasculine" unicode="&#xba;" horiz-adv-x="315" 
d="M29 576c0 76 52 128 128 128c77 0 129 -52 129 -128c0 -77 -52 -129 -129 -129c-76 0 -128 52 -128 129zM78 576c0 -52 32 -86 79 -86c48 0 80 34 80 86c0 50 -32 85 -80 85c-47 0 -79 -35 -79 -85z" />
    <glyph glyph-name="multiply" unicode="&#xd7;" horiz-adv-x="435" 
d="M100 130l-43 42l118 118l-118 117l43 43l117 -118l118 118l42 -43l-117 -117l117 -118l-42 -42l-118 117z" />
    <glyph glyph-name="divide" unicode="&#xf7;" horiz-adv-x="500" 
d="M60 237v60h380v-60h-380zM203 102c0 26 21 46 47 46s46 -20 46 -46s-20 -46 -46 -46s-47 20 -47 46zM203 432c0 26 21 46 47 46s46 -20 46 -46s-20 -46 -46 -46s-47 20 -47 46z" />
    <glyph glyph-name="afii61352" unicode="&#x2116;" horiz-adv-x="995" 
d="M75 700h52l433 -553v553h77v-700h-52l-433 553v-553h-77v700zM709 576c0 76 52 128 128 128c77 0 129 -52 129 -128c0 -77 -52 -129 -129 -129c-76 0 -128 52 -128 129zM758 576c0 -52 32 -86 79 -86c48 0 80 34 80 86c0 50 -32 85 -80 85c-47 0 -79 -35 -79 -85z" />
    <glyph glyph-name="zero.smcp" horiz-adv-x="436" 
d="M45 252c0 153 70 258 173 258s173 -105 173 -258c0 -154 -70 -258 -173 -258s-173 104 -173 258zM112 252c0 -119 43 -200 106 -200s106 81 106 200c0 118 -43 200 -106 200s-106 -82 -106 -200z" />
    <glyph glyph-name="one.smcp" horiz-adv-x="260" 
d="M34 432v52l146 23v-507h-65v446z" />
    <glyph glyph-name="two.smcp" horiz-adv-x="404" 
d="M44 55l223 217c18 18 27 45 27 77c0 60 -38 102 -94 102c-55 0 -94 -42 -94 -102h-67c0 96 65 161 161 161s161 -65 161 -161c0 -50 -16 -92 -47 -121l-178 -172h225v-56h-317v55z" />
    <glyph glyph-name="three.smcp" horiz-adv-x="415" 
d="M173 245v55h34c46 0 77 31 77 76c0 44 -31 76 -77 76s-78 -32 -78 -76h-67c0 79 58 134 145 134c86 0 145 -55 145 -134c0 -47 -23 -83 -60 -103c49 -21 80 -65 80 -125c0 -91 -67 -154 -165 -154c-99 0 -166 63 -166 154h67c0 -57 40 -96 99 -96c58 0 98 39 98 96
s-40 97 -98 97h-34z" />
    <glyph glyph-name="four.smcp" horiz-adv-x="430" 
d="M272 0v94h-234v31l231 379h66v-354h45v-56h-43v-94h-65zM119 150h155v255z" />
    <glyph glyph-name="five.smcp" horiz-adv-x="404" 
d="M361 155c0 -96 -65 -161 -161 -161s-161 62 -161 153h65c0 -55 39 -95 96 -95c56 0 94 43 94 103c0 67 -44 112 -107 112c-34 0 -62 -11 -80 -29l-48 17l31 249h232v-56h-174l-19 -135c16 8 39 12 61 12c103 0 171 -69 171 -170z" />
    <glyph glyph-name="six.smcp" horiz-adv-x="412" 
d="M225 510l55 -32c-42 -53 -89 -118 -124 -178c15 7 31 11 50 11c97 0 164 -63 164 -158s-66 -159 -165 -159c-97 0 -164 62 -164 164c0 104 59 190 184 352zM108 153c0 -60 40 -101 98 -101c57 0 97 41 97 101s-40 102 -97 102c-58 0 -98 -42 -98 -102z" />
    <glyph glyph-name="seven.smcp" horiz-adv-x="410" 
d="M45 448v56h320v-21l-182 -483h-70l168 448h-236z" />
    <glyph glyph-name="eight.smcp" horiz-adv-x="416" 
d="M63 376c0 79 59 134 145 134s145 -55 145 -134c0 -47 -23 -83 -60 -103c50 -21 80 -65 80 -125c0 -91 -66 -154 -165 -154c-98 0 -165 63 -165 154c0 60 30 104 79 125c-37 20 -59 56 -59 103zM110 148c0 -57 40 -96 98 -96s98 39 98 96s-40 96 -98 96s-98 -39 -98 -96z
M131 376c0 -45 31 -75 77 -75s78 30 78 75c0 44 -32 76 -78 76s-77 -32 -77 -76z" />
    <glyph glyph-name="nine.smcp" horiz-adv-x="412" 
d="M187 -6l-56 32c42 53 90 118 124 178c-14 -7 -31 -11 -50 -11c-97 0 -164 62 -164 158c0 94 66 159 165 159c98 0 164 -63 164 -165c0 -103 -59 -189 -183 -351zM303 350c0 60 -40 102 -97 102c-58 0 -98 -42 -98 -102s40 -101 98 -101c57 0 97 41 97 101z" />
    <glyph glyph-name="Euro.smcp" horiz-adv-x="578" 
d="M41 281v38h49c27 116 123 191 255 191c79 0 145 -27 191 -73l-43 -43c-35 35 -84 55 -144 55c-92 0 -162 -51 -187 -130h188v-38h-195c-1 -10 -2 -19 -2 -29c0 -11 1 -21 2 -30h195v-37h-188c25 -80 95 -131 187 -131c60 0 109 20 144 55l43 -43
c-46 -45 -112 -72 -191 -72c-132 0 -228 74 -255 191h-49v37h43c-1 9 -1 20 -1 30s0 19 1 29h-43z" />
    <glyph glyph-name="sterling.smcp" horiz-adv-x="408" 
d="M41 226v51h56v94c0 85 62 139 148 139c45 0 83 -16 109 -41l-44 -43c-14 14 -36 23 -62 23c-49 0 -84 -30 -84 -78v-94h128v-51h-128v-136c40 -12 69 -41 104 -41c25 0 41 16 41 40h53c0 -58 -39 -95 -93 -95c-60 0 -93 46 -136 46c-25 0 -41 -15 -41 -40h-53
c0 44 23 77 58 89v137h-56z" />
    <glyph glyph-name="yen.smcp" horiz-adv-x="524" 
d="M128 154v38h100v21l-197 291h78l153 -225l153 225h77l-197 -292v-20h100v-38h-100v-54h100v-37h-100v-63h-67v63h-100v37h100v54h-100z" />
    <glyph glyph-name="uni20B4.smcp" horiz-adv-x="346" 
d="M43 279v37h153l9 8c18 17 29 32 29 60c0 39 -31 67 -74 67c-31 0 -57 -12 -74 -31l-42 41c28 31 68 49 116 49c84 0 140 -51 140 -124c0 -29 -9 -51 -23 -70h26v-37h-59l-54 -52h113v-37h-152l-10 -10c-18 -17 -30 -32 -30 -60c0 -40 31 -68 75 -68c31 0 57 12 74 32
l41 -42c-28 -31 -67 -48 -115 -48c-84 0 -141 50 -141 124c0 29 10 52 25 72h-27v37h62l53 52h-115z" />
    <glyph glyph-name="numbersign.smcp" horiz-adv-x="473" 
d="M256 0l19 121h-119l-19 -121h-65l19 121h-53v51h61l25 160h-61v51h68l20 121h66l-21 -121h120l19 121h65l-19 -121h54v-51h-62l-25 -160h62v-51h-70l-19 -121h-65zM190 332l-26 -160h119l25 160h-118z" />
    <glyph glyph-name="zero.fitted.smcp" horiz-adv-x="412" 
d="M36 252c0 153 68 258 170 258c101 0 170 -105 170 -258c0 -154 -69 -258 -170 -258c-102 0 -170 104 -170 258zM103 252c0 -119 42 -200 103 -200s103 81 103 200c0 118 -42 200 -103 200s-103 -82 -103 -200z" />
    <glyph glyph-name="one.fitted.smcp" horiz-adv-x="412" 
d="M81 0v51h91v395l-98 -14v52l163 23v-456h92v-51h-248z" />
    <glyph glyph-name="two.fitted.smcp" horiz-adv-x="412" 
d="M47 55l224 217c19 18 28 45 28 77c0 60 -39 102 -95 102s-95 -42 -95 -102h-67c0 96 66 161 162 161c97 0 162 -65 162 -161c0 -50 -22 -92 -52 -121l-180 -172h232v-56h-319v55z" />
    <glyph glyph-name="three.fitted.smcp" horiz-adv-x="412" 
d="M171 245v55h34c46 0 78 31 78 76c0 44 -32 76 -78 76c-45 0 -77 -32 -77 -76h-67c0 79 58 134 144 134c87 0 145 -55 145 -134c0 -47 -23 -83 -59 -103c49 -21 79 -65 79 -125c0 -91 -66 -154 -165 -154c-98 0 -165 63 -165 154h67c0 -57 40 -96 98 -96s98 39 98 96
s-40 97 -98 97h-34z" />
    <glyph glyph-name="four.fitted.smcp" horiz-adv-x="412" 
d="M262 0v94h-231v31l228 379h66v-354h45v-56h-43v-94h-65zM112 150h152v255z" />
    <glyph glyph-name="five.fitted.smcp" horiz-adv-x="412" 
d="M366 155c0 -96 -65 -161 -162 -161c-96 0 -162 62 -162 153h65c0 -55 40 -95 97 -95c56 0 95 43 95 103c0 67 -45 112 -109 112c-34 0 -62 -11 -80 -29l-48 17l32 249h233v-56h-176l-19 -135c16 8 40 12 62 12c103 0 172 -69 172 -170z" />
    <glyph glyph-name="six.fitted.smcp" horiz-adv-x="412" 
d="M224 510l56 -32c-42 -53 -89 -118 -124 -178c14 7 31 11 51 11c96 0 165 -63 165 -158s-67 -159 -167 -159c-97 0 -165 62 -165 164c0 104 59 190 184 352zM107 153c0 -60 41 -101 99 -101c57 0 98 41 98 101s-41 102 -98 102c-58 0 -99 -42 -99 -102z" />
    <glyph glyph-name="seven.fitted.smcp" horiz-adv-x="412" 
d="M46 448v56h320v-21l-182 -483h-70l168 448h-236z" />
    <glyph glyph-name="eight.fitted.smcp" horiz-adv-x="412" 
d="M61 376c0 79 59 134 145 134s145 -55 145 -134c0 -47 -23 -83 -59 -103c49 -21 80 -65 80 -125c0 -91 -67 -154 -166 -154c-98 0 -166 63 -166 154c0 60 31 104 80 125c-37 20 -59 56 -59 103zM107 148c0 -57 41 -96 99 -96s99 39 99 96s-41 96 -99 96s-99 -39 -99 -96z
M128 376c0 -45 33 -75 78 -75c46 0 78 30 78 75c0 44 -32 76 -78 76c-45 0 -78 -32 -78 -76z" />
    <glyph glyph-name="nine.fitted.smcp" horiz-adv-x="413" 
d="M187 -6l-56 32c43 53 90 118 125 178c-15 -7 -31 -11 -51 -11c-96 0 -164 62 -164 158c0 94 67 159 165 159s165 -63 165 -165c0 -103 -59 -189 -184 -351zM304 350c0 60 -40 102 -98 102s-98 -42 -98 -102s40 -101 98 -101s98 41 98 101z" />
    <glyph glyph-name="exclam.smcp" horiz-adv-x="185" 
d="M51 35c0 23 18 41 41 41s42 -18 42 -41s-19 -41 -42 -41s-41 18 -41 41zM60 142v362h65v-362h-65z" />
    <glyph glyph-name="ampersand.smcp" horiz-adv-x="470" 
d="M258 245v55h170v-55h-51v-97c0 -91 -67 -154 -165 -154c-99 0 -166 63 -166 154c0 60 31 104 80 125c-36 20 -59 56 -59 103c0 79 58 134 145 134c86 0 145 -55 145 -134h-68c0 44 -31 76 -77 76s-78 -32 -78 -76c0 -45 32 -76 78 -76h20v-55h-20c-59 0 -99 -40 -99 -97
s40 -96 99 -96c58 0 98 39 98 96v97h-52z" />
    <glyph glyph-name="slash.smcp" horiz-adv-x="430" 
d="M45 -36l275 576h65l-275 -576h-65z" />
    <glyph glyph-name="backslash.smcp" horiz-adv-x="430" 
d="M110 540l275 -576h-65l-275 576h65z" />
    <glyph glyph-name="at.smcp" horiz-adv-x="614" 
d="M472 97l31 -31c-46 -47 -117 -72 -195 -72c-157 0 -263 104 -263 258c0 153 106 258 262 258c160 0 262 -106 262 -238c0 -110 -71 -145 -125 -145c-30 0 -55 10 -67 28c-20 -18 -47 -28 -76 -28c-70 0 -117 51 -117 125s52 124 130 124c46 0 84 -16 105 -42v-134
c0 -20 17 -28 35 -28c30 0 63 24 63 95c0 114 -81 198 -209 198c-127 0 -212 -86 -212 -213c0 -128 85 -214 213 -214c64 0 125 21 163 59zM235 252c0 -49 31 -80 79 -80c23 0 42 7 56 20v123c-14 11 -34 17 -57 17c-48 0 -78 -32 -78 -80z" />
    <glyph glyph-name="parenleft.smcp" horiz-adv-x="239" 
d="M195 546v-49c-41 0 -77 -100 -77 -246c0 -145 36 -244 77 -244v-49c-81 0 -144 119 -144 294s63 294 144 294z" />
    <glyph glyph-name="parenright.smcp" horiz-adv-x="239" 
d="M43 497v49c81 0 145 -119 145 -294s-64 -294 -145 -294v49c41 0 78 99 78 245c0 145 -37 245 -78 245z" />
    <glyph glyph-name="bracketleft.smcp" horiz-adv-x="240" 
d="M196 540v-51h-72v-474h72v-51h-137v576h137z" />
    <glyph glyph-name="bracketright.smcp" horiz-adv-x="240" 
d="M43 489v51h137v-576h-137v51h72v474h-72z" />
    <glyph glyph-name="braceleft.smcp" horiz-adv-x="253" 
d="M215 7v-49c-69 0 -123 52 -123 127v52c0 53 -25 89 -54 89v49c29 0 54 36 54 89v54c0 76 54 128 123 128v-49c-30 0 -55 -36 -55 -88v-52c0 -51 -25 -89 -62 -107c37 -17 62 -55 62 -105v-51c0 -52 25 -87 55 -87z" />
    <glyph glyph-name="braceright.smcp" horiz-adv-x="253" 
d="M38 -42v49c29 0 54 35 54 87v51c0 50 26 88 63 105c-37 18 -63 56 -63 107v52c0 52 -25 88 -54 88v49c69 0 122 -52 122 -128v-54c0 -53 25 -89 55 -89v-49c-30 0 -55 -36 -55 -89v-52c0 -75 -53 -127 -122 -127z" />
    <glyph glyph-name="exclamdown.smcp" horiz-adv-x="185" 
d="M51 468c0 24 18 42 41 42s42 -18 42 -42c0 -22 -19 -40 -42 -40s-41 18 -41 40zM60 362h65v-362h-65v362z" />
    <glyph glyph-name="questiondown.smcp" horiz-adv-x="370" 
d="M293 90l42 -42c-40 -35 -89 -54 -145 -54c-97 0 -149 62 -149 131c0 106 115 93 115 195v42h65v-42c0 -129 -113 -126 -113 -194c0 -34 25 -74 83 -74c38 0 77 15 102 38zM230 468c0 -22 -19 -40 -42 -40s-41 18 -41 40c0 24 18 42 41 42s42 -18 42 -42z" />
    <glyph glyph-name="question.smcp" horiz-adv-x="370" 
d="M77 414l-42 42c40 35 88 54 145 54c97 0 149 -62 149 -132c0 -106 -115 -93 -115 -194v-42h-65v42c0 128 112 126 112 193c0 34 -24 75 -83 75c-37 0 -76 -16 -101 -38zM140 35c0 23 18 41 42 41c23 0 41 -18 41 -41s-18 -41 -41 -41c-24 0 -42 18 -42 41z" />
    <glyph glyph-name="bar.smcp" horiz-adv-x="184" 
d="M59 -36v576h65v-576h-65z" />
    <glyph glyph-name="brokenbar.smcp" horiz-adv-x="184" 
d="M59 -36v252h65v-252h-65zM124 540v-252h-65v252h65z" />
    <glyph glyph-name="percent.smcp" horiz-adv-x="665" 
d="M162 0l275 504h66l-275 -504h-66zM38 384c0 75 52 126 129 126s129 -51 129 -126c0 -74 -52 -125 -129 -125s-129 51 -129 125zM96 384c0 -45 29 -76 71 -76s71 31 71 76s-29 77 -71 77s-71 -32 -71 -77zM369 119c0 75 52 125 129 125c76 0 129 -50 129 -125
c0 -74 -53 -125 -129 -125c-77 0 -129 51 -129 125zM427 119c0 -45 29 -76 71 -76s71 31 71 76s-29 77 -71 77s-71 -32 -71 -77z" />
    <glyph glyph-name="perthousand.smcp" horiz-adv-x="959" 
d="M162 0l275 504h66l-275 -504h-66zM38 384c0 75 52 126 129 126s129 -51 129 -126c0 -74 -52 -125 -129 -125s-129 51 -129 125zM96 384c0 -45 29 -76 71 -76s71 31 71 76s-29 77 -71 77s-71 -32 -71 -77zM369 119c0 75 52 125 129 125c76 0 129 -50 129 -125
c0 -74 -53 -125 -129 -125c-77 0 -129 51 -129 125zM427 119c0 -45 29 -76 71 -76s71 31 71 76s-29 77 -71 77s-71 -32 -71 -77zM662 119c0 75 53 125 129 125c77 0 130 -50 130 -125c0 -74 -53 -125 -130 -125c-76 0 -129 51 -129 125zM720 119c0 -45 29 -76 71 -76
s71 31 71 76s-29 77 -71 77s-71 -32 -71 -77z" />
    <glyph glyph-name="dagger.smcp" horiz-adv-x="390" 
d="M51 338v51h111v151h65v-151h112v-51h-112v-374h-65v374h-111z" />
    <glyph glyph-name="daggerdbl.smcp" horiz-adv-x="390" 
d="M51 122v51h111v165h-111v51h111v151h65v-151h112v-51h-112v-165h112v-51h-112v-158h-65v158h-111z" />
    <glyph glyph-name="section.smcp" horiz-adv-x="334" 
d="M136 318l150 -146l-43 -43l-152 147c-29 28 -50 61 -50 107c0 75 57 127 141 127c48 0 87 -18 115 -49l-41 -41c-17 19 -43 31 -74 31c-43 0 -73 -28 -73 -68c0 -29 9 -48 27 -65zM198 5l-150 146l44 44l152 -148c28 -27 49 -61 49 -107c0 -75 -57 -126 -141 -126
c-48 0 -87 17 -115 48l41 42c18 -20 43 -32 74 -32c44 0 74 29 74 69c0 28 -10 47 -28 64z" />
    <glyph glyph-name="paragraph.smcp" horiz-adv-x="459" 
d="M280 504v-504h-63v225h-20c-90 0 -151 55 -151 139c0 85 61 140 151 140h83zM337 0v504h62v-504h-62z" />
    <glyph glyph-name="afii61352.smcp" horiz-adv-x="758" 
d="M61 504h45l312 -376v376h67v-504h-45l-312 375v-375h-67v504zM536 415c0 54 39 92 95 92c58 0 97 -38 97 -92c0 -56 -39 -93 -97 -93c-56 0 -95 37 -95 93zM577 415c0 -35 22 -58 54 -58c33 0 55 23 55 58c0 33 -22 56 -55 56c-32 0 -54 -23 -54 -56z" />
    <glyph glyph-name="afii10017" unicode="&#x410;" horiz-adv-x="731" 
d="M611 0l-83 200h-326l-82 -200h-90l299 700h73l298 -700h-89zM366 601l-136 -331h270z" />
    <glyph glyph-name="afii10018" unicode="&#x411;" horiz-adv-x="547" 
d="M80 0v700h357v-65h-277v-243h127c122 0 205 -77 205 -196s-83 -196 -205 -196h-207zM412 196c0 77 -50 129 -125 129h-127v-258h127c75 0 125 52 125 129z" />
    <glyph glyph-name="afii10019" unicode="&#x412;" horiz-adv-x="555" 
d="M80 0v700h192c112 0 188 -71 188 -181c0 -69 -31 -122 -81 -150c72 -25 119 -89 119 -176c0 -118 -81 -193 -200 -193h-218zM420 198c0 77 -50 129 -125 129h-135v-260h135c75 0 125 52 125 131zM382 513c0 72 -46 119 -115 119h-107v-237h107c69 0 115 47 115 118z" />
    <glyph glyph-name="afii10020" unicode="&#x413;" horiz-adv-x="476" 
d="M80 0v700h350v-65h-273v-635h-77z" />
    <glyph glyph-name="afii10021" unicode="&#x414;" horiz-adv-x="690" 
d="M582 0h-475v-170h-72v232c70 0 125 83 125 195v443h422v-635h73v-235h-73v170zM240 257c0 -66 -23 -159 -61 -192h323v570h-262v-378z" />
    <glyph glyph-name="afii10022" unicode="&#x415;" horiz-adv-x="507" 
d="M157 635v-250h260v-65h-260v-255h298v-65h-375v700h370v-65h-293z" />
    <glyph glyph-name="afii10023" unicode="&#x401;" horiz-adv-x="507" 
d="M157 635v-250h260v-65h-260v-255h298v-65h-375v700h370v-65h-293zM124 797c0 27 21 48 47 48c27 0 48 -21 48 -48c0 -26 -21 -47 -48 -47c-26 0 -47 21 -47 47zM311 797c0 27 21 48 48 48s48 -21 48 -48c0 -26 -21 -47 -48 -47s-48 21 -48 47z" />
    <glyph glyph-name="afii10024" unicode="&#x416;" horiz-adv-x="916" 
d="M419 0v700h77v-700h-77zM789 0l-283 359l267 341h90l-267 -341l285 -359h-92zM409 359l-283 -359h-92l285 359l-267 341h90z" />
    <glyph glyph-name="afii10025" unicode="&#x417;" horiz-adv-x="555" 
d="M184 327v68h83c71 0 120 44 120 122c0 74 -44 122 -125 122c-56 0 -112 -24 -159 -71l-48 47c60 60 129 92 212 92c131 0 198 -79 198 -184c0 -72 -30 -125 -86 -154c72 -25 119 -88 119 -178c0 -121 -86 -199 -227 -199c-93 0 -168 34 -226 95l49 49
c47 -50 105 -75 172 -75c100 0 154 55 154 136c0 79 -50 130 -125 130h-111z" />
    <glyph glyph-name="afii10026" unicode="&#x418;" horiz-adv-x="715" 
d="M582 700h53v-700h-78v553l-425 -553h-52v700h77v-553z" />
    <glyph glyph-name="afii10027" unicode="&#x419;" horiz-adv-x="715" 
d="M357 807c43 0 77 16 102 42l39 -39c-36 -37 -83 -59 -141 -59s-105 23 -141 60l39 39c25 -26 59 -43 102 -43zM582 700h53v-700h-78v553l-425 -553h-52v700h77v-553z" />
    <glyph glyph-name="afii10028" unicode="&#x41a;" horiz-adv-x="607" 
d="M77 0v700h78v-700h-78zM472 0l-308 359l288 341h97l-287 -341l310 -359h-100z" />
    <glyph glyph-name="afii10029" unicode="&#x41b;" horiz-adv-x="667" 
d="M42 0v50c76 0 118 59 118 160v490h427v-700h-80v635h-267v-421c0 -130 -61 -219 -147 -219c-16 0 -40 2 -51 5z" />
    <glyph glyph-name="afii10030" unicode="&#x41c;" horiz-adv-x="818" 
d="M660 0v540l-234 -380h-34l-235 380v-540h-77v700h59l270 -431l270 431h59v-700h-78z" />
    <glyph glyph-name="afii10031" unicode="&#x41d;" horiz-adv-x="700" 
d="M157 700v-315h385v315h78v-700h-78v320h-385v-320h-77v700h77z" />
    <glyph glyph-name="afii10032" unicode="&#x41e;" horiz-adv-x="806" 
d="M54 350c0 212 141 357 349 357s349 -145 349 -357c0 -213 -141 -358 -349 -358s-349 145 -349 358zM134 350c0 -171 110 -288 269 -288c160 0 269 117 269 288c0 170 -109 287 -269 287c-159 0 -269 -117 -269 -287z" />
    <glyph glyph-name="afii10033" unicode="&#x41f;" horiz-adv-x="670" 
d="M80 700h510v-700h-78v635h-355v-635h-77v700z" />
    <glyph glyph-name="afii10034" unicode="&#x420;" horiz-adv-x="529" 
d="M80 0v700h190c122 0 204 -77 204 -197c0 -119 -82 -196 -204 -196h-110v-307h-80zM394 503c0 78 -50 129 -124 129h-110v-257h110c74 0 124 51 124 128z" />
    <glyph glyph-name="afii10035" unicode="&#x421;" horiz-adv-x="709" 
d="M135 350c0 -171 112 -288 276 -288c84 0 154 29 203 80l50 -49c-62 -64 -151 -101 -257 -101c-210 0 -352 145 -352 358c0 212 142 357 352 357c106 0 195 -37 257 -101l-50 -50c-49 51 -119 81 -203 81c-164 0 -276 -117 -276 -287z" />
    <glyph glyph-name="afii10036" unicode="&#x422;" horiz-adv-x="567" 
d="M322 635v-635h-77v635h-200v65h477v-65h-200z" />
    <glyph glyph-name="afii10037" unicode="&#x423;" horiz-adv-x="619" 
d="M589 700l-352 -700h-84l120 220l-243 480h83l197 -390l195 390h84z" />
    <glyph glyph-name="afii10038" unicode="&#x424;" horiz-adv-x="780" 
d="M351 0v67c-176 0 -296 115 -296 283c0 167 120 282 296 282v68h78v-68c177 0 296 -115 296 -282c0 -168 -119 -283 -296 -283v-67h-78zM429 562v-425c129 0 216 87 216 213s-87 212 -216 212zM351 137v425c-128 0 -216 -86 -216 -212s88 -213 216 -213z" />
    <glyph glyph-name="afii10039" unicode="&#x425;" horiz-adv-x="731" 
d="M572 0l-221 301l-219 -301h-99l262 354l-255 346h100l211 -292l213 292h100l-256 -346l263 -354h-99z" />
    <glyph glyph-name="afii10040" unicode="&#x426;" horiz-adv-x="735" 
d="M622 0h-542v700h77v-635h390v635h78v-635h70v-235h-73v170z" />
    <glyph glyph-name="afii10041" unicode="&#x427;" horiz-adv-x="588" 
d="M508 0h-75v314c-46 -14 -106 -19 -149 -19c-133 0 -204 76 -204 213v192h75v-189c0 -97 42 -154 143 -154c40 0 100 6 135 20v323h75v-700z" />
    <glyph glyph-name="afii10042" unicode="&#x428;" horiz-adv-x="1002" 
d="M922 0h-842v700h77v-635h305v635h78v-635h305v635h77v-700z" />
    <glyph glyph-name="afii10043" unicode="&#x429;" horiz-adv-x="1032" 
d="M920 0h-840v700h77v-635h305v635h78v-635h305v635h77v-635h70v-235h-72v170z" />
    <glyph glyph-name="afii10044" unicode="&#x42a;" horiz-adv-x="659" 
d="M45 635v65h235v-308h120c122 0 204 -77 204 -196s-82 -196 -204 -196h-200v635h-155zM524 196c0 77 -50 129 -124 129h-120v-258h120c74 0 124 52 124 129z" />
    <glyph glyph-name="afii10045" unicode="&#x42b;" horiz-adv-x="742" 
d="M80 0v700h80v-308h120c122 0 204 -77 204 -196s-82 -196 -204 -196h-200zM404 196c0 77 -50 129 -124 129h-120v-258h120c74 0 124 52 124 129zM584 0v700h78v-700h-78z" />
    <glyph glyph-name="afii10046" unicode="&#x42c;" horiz-adv-x="539" 
d="M80 0v700h80v-308h120c122 0 204 -77 204 -196s-82 -196 -204 -196h-200zM404 196c0 77 -50 129 -124 129h-120v-258h120c74 0 124 52 124 129z" />
    <glyph glyph-name="afii10047" unicode="&#x42d;" horiz-adv-x="701" 
d="M94 556l-50 50c61 64 150 101 253 101c208 0 350 -145 350 -357c0 -213 -142 -358 -350 -358c-103 0 -192 37 -253 101l50 49c48 -51 117 -80 200 -80c152 0 259 103 270 258h-346v65h346c-13 151 -120 252 -270 252c-83 0 -153 -30 -200 -81z" />
    <glyph glyph-name="afii10048" unicode="&#x42e;" horiz-adv-x="1028" 
d="M156 700v-315h182c14 192 138 322 317 322c191 0 319 -145 319 -357c0 -213 -128 -358 -319 -358c-181 0 -305 132 -317 328h-182v-320h-77v700h77zM417 350c0 -171 96 -288 238 -288c143 0 239 117 239 288c0 170 -96 287 -239 287c-142 0 -238 -117 -238 -287z" />
    <glyph glyph-name="afii10049" unicode="&#x42f;" horiz-adv-x="554" 
d="M474 700v-700h-80v307h-105l-161 -307h-88l172 311c-96 17 -157 89 -157 192c0 120 82 197 204 197h215zM135 503c0 -77 50 -128 124 -128h135v257h-135c-74 0 -124 -51 -124 -129z" />
    <glyph glyph-name="afii10050" unicode="&#x490;" horiz-adv-x="473" 
d="M157 635v-635h-77v700h275v125h60v-190h-258z" />
    <glyph glyph-name="afii10051" unicode="&#x402;" horiz-adv-x="703" 
d="M493 0v50c32 0 55 17 55 53v142c0 69 -45 117 -112 117c-47 0 -87 -16 -114 -44v-318h-77v635h-200v65h477v-65h-200v-251c35 29 81 46 133 46c103 0 170 -75 170 -185v-144c0 -66 -38 -106 -98 -106c-11 0 -27 2 -34 5z" />
    <glyph glyph-name="afii10052" unicode="&#x403;" horiz-adv-x="476" 
d="M190 775l126 126l39 -39l-126 -126zM80 0v700h350v-65h-273v-635h-77z" />
    <glyph glyph-name="afii10053" unicode="&#x404;" horiz-adv-x="701" 
d="M407 637c-150 0 -257 -101 -271 -252h408v-65h-408c12 -155 119 -258 271 -258c83 0 152 29 200 80l50 -49c-61 -64 -149 -101 -254 -101c-208 0 -349 145 -349 358c0 212 141 357 349 357c105 0 193 -37 254 -101l-50 -50c-48 51 -117 81 -200 81z" />
    <glyph glyph-name="afii10054" unicode="&#x405;" horiz-adv-x="541" 
d="M461 624l-49 -49c-33 36 -93 62 -148 62c-88 0 -122 -65 -122 -117c0 -162 339 -106 339 -327c0 -102 -70 -201 -216 -201c-85 0 -164 34 -219 93l48 49c41 -46 106 -72 164 -72c103 0 143 75 143 129c0 157 -339 98 -339 327c0 97 61 189 195 189c76 0 152 -29 204 -83z
" />
    <glyph glyph-name="afii10055" unicode="&#x406;" horiz-adv-x="232" 
d="M77 0v700h78v-700h-78z" />
    <glyph glyph-name="afii10056" unicode="&#x407;" horiz-adv-x="232" 
d="M77 0v700h78v-700h-78zM-10 797c0 27 21 48 47 48c27 0 48 -21 48 -48c0 -26 -21 -47 -48 -47c-26 0 -47 21 -47 47zM147 797c0 27 21 48 48 48s48 -21 48 -48c0 -26 -21 -47 -48 -47s-48 21 -48 47z" />
    <glyph glyph-name="afii10057" unicode="&#x408;" horiz-adv-x="462" 
d="M307 190v510h78v-510c0 -118 -81 -198 -197 -198c-58 0 -109 21 -143 56l50 50c21 -22 52 -36 90 -36c72 0 122 52 122 128z" />
    <glyph glyph-name="afii10058" unicode="&#x409;" horiz-adv-x="952" 
d="M492 0v635h-252v-421c0 -125 -58 -219 -149 -219c-15 0 -38 2 -49 5v50c75 0 118 56 118 160v490h412v-308h120c122 0 205 -77 205 -196s-83 -196 -205 -196h-200zM817 196c0 77 -50 129 -125 129h-120v-258h120c75 0 125 52 125 129z" />
    <glyph glyph-name="afii10059" unicode="&#x40a;" horiz-adv-x="947" 
d="M157 700v-308h330v308h80v-308h120c122 0 205 -77 205 -196s-83 -196 -205 -196h-200v325h-330v-325h-77v700h77zM812 196c0 77 -50 129 -125 129h-120v-258h120c75 0 125 52 125 129z" />
    <glyph glyph-name="afii10060" unicode="&#x40b;" horiz-adv-x="703" 
d="M322 635v-251c35 29 81 46 133 46c103 0 170 -75 170 -185v-245h-77v245c0 69 -45 117 -112 117c-47 0 -87 -16 -114 -44v-318h-77v635h-200v65h477v-65h-200z" />
    <glyph glyph-name="afii10061" unicode="&#x40c;" horiz-adv-x="607" 
d="M77 0v700h78v-700h-78zM472 0l-308 359l288 341h97l-287 -341l310 -359h-100zM240 775l126 126l39 -39l-126 -126z" />
    <glyph glyph-name="afii10062" unicode="&#x40e;" horiz-adv-x="619" 
d="M309 807c43 0 77 16 102 42l39 -39c-36 -37 -83 -59 -141 -59s-105 23 -141 60l39 39c25 -26 59 -43 102 -43zM589 700l-352 -700h-84l120 220l-243 480h83l197 -390l195 390h84z" />
    <glyph glyph-name="afii10145" unicode="&#x40f;" horiz-adv-x="705" 
d="M316 0h-236v700h77v-635h390v635h78v-700h-236v-170h-73v170z" />
    <glyph glyph-name="uni040D" unicode="&#x40d;" horiz-adv-x="715" 
d="M294 901l126 -126l-39 -39l-126 126zM582 700h53v-700h-78v553l-425 -553h-52v700h77v-553z" />
    <glyph glyph-name="uni0400" unicode="&#x400;" horiz-adv-x="507" 
d="M157 635v-250h260v-65h-260v-255h298v-65h-375v700h370v-65h-293zM203 901l126 -126l-39 -39l-126 126z" />
    <glyph glyph-name="uni04D8" unicode="&#x4d8;" horiz-adv-x="747" 
d="M693 350c0 -213 -130 -358 -320 -358s-319 145 -319 358v30h557c-13 153 -120 257 -271 257c-84 0 -153 -29 -200 -80l-50 49c61 64 149 101 253 101c208 0 350 -145 350 -357zM373 62c132 0 226 101 237 253h-473c11 -152 104 -253 236 -253z" />
    <glyph glyph-name="afii10017.smcp" horiz-adv-x="564" 
d="M456 0l-57 134h-235l-57 -134h-78l221 504h63l221 -504h-78zM282 417l-94 -223h187z" />
    <glyph glyph-name="afii10018.smcp" horiz-adv-x="425" 
d="M64 0v504h271v-56h-201v-160h87c93 0 155 -57 155 -144c0 -88 -62 -144 -155 -144h-157zM307 144c0 51 -35 86 -86 86h-87v-172h87c51 0 86 34 86 86z" />
    <glyph glyph-name="afii10019.smcp" horiz-adv-x="433" 
d="M64 0v504h148c85 0 142 -51 142 -132c0 -47 -22 -84 -57 -106c52 -19 85 -65 85 -126c0 -85 -62 -140 -152 -140h-166zM314 145c0 52 -34 86 -86 86h-94v-173h94c52 0 86 34 86 87zM286 367c0 48 -31 79 -78 79h-74v-157h74c47 0 78 31 78 78z" />
    <glyph glyph-name="afii10020.smcp" horiz-adv-x="371" 
d="M64 0v504h265v-56h-198v-448h-67z" />
    <glyph glyph-name="afii10021.smcp" horiz-adv-x="532" 
d="M436 0h-340v-122h-63v175c52 0 92 60 92 141v310h320v-448h54v-178h-63v122zM194 193c0 -45 -15 -112 -42 -137h223v392h-181v-255z" />
    <glyph glyph-name="afii10022.smcp" horiz-adv-x="391" 
d="M131 448v-167h186v-56h-186v-169h213v-56h-280v504h277v-56h-210z" />
    <glyph glyph-name="afii10023.smcp" horiz-adv-x="391" 
d="M131 448v-167h186v-56h-186v-169h213v-56h-280v504h277v-56h-210zM61 578c0 27 21 48 47 48c27 0 48 -21 48 -48c0 -26 -21 -47 -48 -47c-26 0 -47 21 -47 47zM248 578c0 27 21 48 48 48s48 -21 48 -48c0 -26 -21 -47 -48 -47s-48 21 -48 47z" />
    <glyph glyph-name="afii10024.smcp" horiz-adv-x="706" 
d="M319 0v504h67v-504h-67zM594 0l-205 259l193 245h78l-193 -245l206 -259h-79zM316 259l-205 -259h-79l206 259l-193 245h78z" />
    <glyph glyph-name="afii10025.smcp" horiz-adv-x="433" 
d="M147 231v58h61c49 0 83 29 83 81c0 49 -32 81 -88 81c-39 0 -80 -17 -113 -50l-41 41c45 44 96 68 159 68c99 0 150 -58 150 -135c0 -50 -22 -87 -61 -109c52 -19 85 -64 85 -127c0 -89 -65 -145 -170 -145c-70 0 -127 25 -171 69l43 42c34 -34 76 -52 123 -52
c70 0 108 37 108 92c0 52 -35 86 -87 86h-81z" />
    <glyph glyph-name="afii10026.smcp" horiz-adv-x="545" 
d="M436 504h45v-504h-67v375l-305 -375h-45v504h67v-376z" />
    <glyph glyph-name="afii10027.smcp" horiz-adv-x="545" 
d="M273 588c43 0 77 16 102 42l39 -39c-36 -37 -83 -59 -141 -59s-105 23 -141 60l39 39c25 -26 59 -43 102 -43zM436 504h45v-504h-67v375l-305 -375h-45v504h67v-376z" />
    <glyph glyph-name="afii10028.smcp" horiz-adv-x="475" 
d="M63 0v504h67v-504h-67zM355 0l-221 259l206 245h85l-207 -245l224 -259h-87z" />
    <glyph glyph-name="afii10029.smcp" horiz-adv-x="513" 
d="M40 0v43c54 0 86 44 86 114v347h323v-504h-70v448h-184v-288c0 -92 -46 -164 -115 -164c-13 0 -32 1 -40 4z" />
    <glyph glyph-name="afii10030.smcp" horiz-adv-x="621" 
d="M489 0v366l-165 -255h-27l-166 255v-366h-67v504h51l195 -296l196 296h51v-504h-68z" />
    <glyph glyph-name="afii10031.smcp" horiz-adv-x="535" 
d="M131 504v-223h273v223h67v-504h-67v225h-273v-225h-67v504h67z" />
    <glyph glyph-name="afii10032.smcp" horiz-adv-x="615" 
d="M48 252c0 153 105 258 260 258c154 0 259 -105 259 -258c0 -154 -105 -258 -259 -258c-155 0 -260 104 -260 258zM117 252c0 -117 78 -198 191 -198s189 81 189 198s-76 197 -189 197s-191 -80 -191 -197z" />
    <glyph glyph-name="afii10033.smcp" horiz-adv-x="511" 
d="M64 504h383v-504h-67v448h-249v-448h-67v504z" />
    <glyph glyph-name="afii10034.smcp" horiz-adv-x="414" 
d="M64 0v504h145c93 0 156 -57 156 -144c0 -88 -63 -145 -156 -145h-75v-215h-70zM295 360c0 51 -35 86 -86 86h-75v-172h75c51 0 86 34 86 86z" />
    <glyph glyph-name="afii10035.smcp" horiz-adv-x="543" 
d="M118 252c0 -117 80 -198 196 -198c60 0 110 20 144 55l44 -43c-47 -45 -113 -72 -191 -72c-156 0 -262 104 -262 258c0 153 106 258 262 258c78 0 144 -27 191 -73l-44 -43c-34 35 -84 55 -144 55c-116 0 -196 -80 -196 -197z" />
    <glyph glyph-name="afii10036.smcp" horiz-adv-x="439" 
d="M253 448v-448h-67v448h-145v56h357v-56h-145z" />
    <glyph glyph-name="afii10037.smcp" horiz-adv-x="477" 
d="M448 504l-258 -504h-72l89 158l-179 346h73l138 -268l137 268h72z" />
    <glyph glyph-name="afii10038.smcp" horiz-adv-x="605" 
d="M269 0v48c-131 0 -220 83 -220 204s89 204 220 204v48h67v-48c132 0 220 -83 220 -204s-88 -204 -220 -204v-48h-67zM336 395v-287c90 0 151 59 151 144s-61 143 -151 143zM269 108v287c-89 0 -151 -58 -151 -143s62 -144 151 -144z" />
    <glyph glyph-name="afii10039.smcp" horiz-adv-x="545" 
d="M427 0l-155 210l-155 -210h-86l191 255l-186 249h87l149 -203l149 203h87l-186 -249l192 -255h-87z" />
    <glyph glyph-name="afii10040.smcp" horiz-adv-x="563" 
d="M463 0h-399v504h67v-448h275v448h68v-448h52v-178h-63v122z" />
    <glyph glyph-name="afii10041.smcp" horiz-adv-x="453" 
d="M389 0h-65v221c-34 -9 -77 -13 -108 -13c-99 0 -152 56 -152 156v140h65v-138c0 -68 30 -105 100 -105c28 0 71 4 95 13v230h65v-504z" />
    <glyph glyph-name="afii10042.smcp" horiz-adv-x="754" 
d="M690 0h-626v504h67v-448h213v448h67v-448h212v448h67v-504z" />
    <glyph glyph-name="afii10043.smcp" horiz-adv-x="779" 
d="M679 0h-615v504h67v-448h213v448h67v-448h212v448h67v-448h52v-178h-63v122z" />
    <glyph glyph-name="afii10044.smcp" horiz-adv-x="512" 
d="M41 448v56h183v-216h84c92 0 155 -57 155 -144c0 -88 -63 -144 -155 -144h-153v448h-114zM393 144c0 51 -34 86 -85 86h-84v-172h84c51 0 85 34 85 86z" />
    <glyph glyph-name="afii10045.smcp" horiz-adv-x="574" 
d="M64 0v504h70v-216h83c92 0 155 -57 155 -144c0 -88 -63 -144 -155 -144h-153zM303 144c0 51 -35 86 -86 86h-83v-172h83c51 0 86 34 86 86zM442 0v504h67v-504h-67z" />
    <glyph glyph-name="afii10046.smcp" horiz-adv-x="421" 
d="M64 0v504h70v-216h83c92 0 155 -57 155 -144c0 -88 -63 -144 -155 -144h-153zM303 144c0 51 -35 86 -86 86h-83v-172h83c51 0 86 34 86 86z" />
    <glyph glyph-name="afii10047.smcp" horiz-adv-x="537" 
d="M84 394l-43 43c45 46 111 73 188 73c155 0 260 -105 260 -258c0 -154 -105 -258 -260 -258c-77 0 -143 27 -188 72l43 43c34 -35 83 -55 142 -55c106 0 181 68 191 171h-247v56h247c-11 101 -87 168 -191 168c-59 0 -109 -20 -142 -55z" />
    <glyph glyph-name="afii10048.smcp" horiz-adv-x="781" 
d="M131 504v-223h127c12 136 104 229 236 229c143 0 239 -105 239 -258c0 -154 -96 -258 -239 -258c-133 0 -225 92 -236 231h-127v-225h-67v504h67zM326 252c0 -117 69 -198 168 -198c101 0 169 81 169 198s-68 197 -169 197c-99 0 -168 -80 -168 -197z" />
    <glyph glyph-name="afii10049.smcp" horiz-adv-x="432" 
d="M367 504v-504h-69v215h-72l-113 -215h-77l124 219c-68 16 -111 68 -111 141c0 87 63 144 156 144h162zM119 360c0 -52 34 -86 86 -86h93v172h-93c-52 0 -86 -35 -86 -86z" />
    <glyph glyph-name="afii10050.smcp" horiz-adv-x="369" 
d="M131 448v-448h-67v504h201v90h52v-146h-186z" />
    <glyph glyph-name="afii10051.smcp" horiz-adv-x="537" 
d="M369 0v43c23 0 39 12 39 36v96c0 45 -31 77 -76 77c-33 0 -61 -11 -79 -30v-222h-67v448h-145v56h357v-56h-145v-169c26 20 58 32 96 32c77 0 126 -55 126 -136v-98c0 -49 -29 -81 -78 -81c-9 0 -22 1 -28 4z" />
    <glyph glyph-name="afii10052.smcp" horiz-adv-x="371" 
d="M128 556l126 126l39 -39l-126 -126zM64 0v504h265v-56h-198v-448h-67z" />
    <glyph glyph-name="afii10053.smcp" horiz-adv-x="537" 
d="M311 449c-105 0 -180 -67 -191 -168h291v-56h-291c10 -103 85 -171 191 -171c59 0 108 20 142 55l43 -43c-45 -45 -111 -72 -188 -72c-155 0 -260 104 -260 258c0 153 105 258 260 258c77 0 143 -27 188 -73l-43 -43c-34 35 -83 55 -142 55z" />
    <glyph glyph-name="afii10054.smcp" horiz-adv-x="425" 
d="M358 448l-42 -43c-24 25 -67 44 -106 44c-61 0 -85 -44 -85 -77c0 -109 247 -70 247 -231c0 -77 -54 -147 -162 -147c-65 0 -124 26 -167 69l42 42c29 -31 76 -51 118 -51c71 0 99 49 99 86c0 105 -246 64 -246 230c0 74 47 140 147 140c58 0 115 -23 155 -62z" />
    <glyph glyph-name="afii10055.smcp" horiz-adv-x="194" 
d="M63 0v504h67v-504h-67z" />
    <glyph glyph-name="afii10056.smcp" horiz-adv-x="195" 
d="M63 0v504h68v-504h-68zM-2 575c0 21 17 38 39 38s39 -17 39 -38c0 -22 -17 -39 -39 -39s-39 17 -39 39zM118 575c0 21 17 39 39 39s40 -18 40 -39c0 -22 -18 -39 -40 -39s-39 17 -39 39z" />
    <glyph glyph-name="afii10057.smcp" horiz-adv-x="361" 
d="M231 139v365h67v-365c0 -86 -61 -145 -149 -145c-43 0 -82 15 -108 41l44 43c14 -15 36 -24 62 -24c49 0 84 35 84 85z" />
    <glyph glyph-name="afii10058.smcp" horiz-adv-x="726" 
d="M369 0v448h-174v-288c0 -90 -44 -164 -116 -164c-13 0 -31 1 -39 4v43c54 0 86 43 86 114v347h312v-216h83c93 0 156 -57 156 -144c0 -88 -63 -144 -156 -144h-152zM607 144c0 51 -34 86 -86 86h-83v-172h83c52 0 86 34 86 86z" />
    <glyph glyph-name="afii10059.smcp" horiz-adv-x="722" 
d="M131 504v-216h234v216h70v-216h83c93 0 155 -57 155 -144c0 -88 -62 -144 -155 -144h-153v230h-234v-230h-67v504h67zM604 144c0 51 -35 86 -86 86h-83v-172h83c51 0 86 34 86 86z" />
    <glyph glyph-name="afii10060.smcp" horiz-adv-x="537" 
d="M253 448v-169c26 20 58 32 96 32c77 0 126 -55 126 -136v-175h-67v175c0 45 -31 77 -76 77c-33 0 -61 -11 -79 -30v-222h-67v448h-145v56h357v-56h-145z" />
    <glyph glyph-name="afii10061.smcp" horiz-adv-x="475" 
d="M63 0v504h67v-504h-67zM355 0l-221 259l206 245h85l-207 -245l224 -259h-87zM169 556l126 126l39 -39l-126 -126z" />
    <glyph glyph-name="afii10062.smcp" horiz-adv-x="477" 
d="M238 588c43 0 77 16 102 42l39 -39c-36 -37 -83 -59 -141 -59s-105 23 -141 60l39 39c25 -26 59 -43 102 -43zM448 504l-258 -504h-72l89 158l-179 346h73l138 -268l137 268h72z" />
    <glyph glyph-name="afii10145.smcp" horiz-adv-x="538" 
d="M238 0h-174v504h67v-448h275v448h68v-504h-174v-122h-62v122z" />
    <glyph glyph-name="uni0400.smcp" horiz-adv-x="391" 
d="M131 448v-167h186v-56h-186v-169h213v-56h-280v504h277v-56h-210zM145 682l126 -126l-39 -39l-126 126z" />
    <glyph glyph-name="uni040D.smcp" horiz-adv-x="545" 
d="M214 682l126 -126l-39 -39l-126 126zM436 504h45v-504h-67v375l-305 -375h-45v504h67v-376z" />
    <glyph glyph-name="uni04D8.smcp" horiz-adv-x="570" 
d="M522 252c0 -154 -97 -258 -237 -258c-141 0 -237 104 -237 258v25h402c-10 103 -86 172 -191 172c-60 0 -109 -20 -143 -55l-42 43c45 46 110 73 188 73c154 0 260 -105 260 -258zM285 54c90 0 155 67 164 167h-329c9 -100 74 -167 165 -167z" />
    <glyph glyph-name="afii10065" unicode="&#x430;" horiz-adv-x="453" 
d="M418 49v-50c-7 -3 -20 -5 -32 -5c-42 0 -71 19 -83 51c-34 -33 -79 -53 -129 -53c-89 0 -131 62 -131 130c0 93 76 140 185 140c43 0 68 -7 68 -7v60c0 39 -25 80 -94 80c-36 0 -78 -11 -103 -36l-39 39c40 40 89 59 148 59c111 0 163 -65 163 -142v-227
c0 -26 16 -39 47 -39zM196 55c34 0 73 14 100 42v105s-23 7 -62 7c-72 0 -116 -24 -116 -79c0 -37 20 -75 78 -75z" />
    <glyph glyph-name="afii10066" unicode="&#x431;" horiz-adv-x="562" 
d="M450 755l17 -69l-176 -50c-139 -40 -163 -121 -171 -277h6c34 63 97 98 171 98c122 0 220 -93 220 -236c0 -135 -86 -229 -236 -229c-170 0 -226 121 -226 343c0 231 60 328 223 373zM141 224c0 -95 49 -164 144 -164c93 0 155 67 155 165s-61 165 -154 165
c-91 0 -145 -66 -145 -166z" />
    <glyph glyph-name="afii10067" unicode="&#x432;" horiz-adv-x="449" 
d="M72 0v450h180c80 0 127 -48 127 -115c0 -43 -20 -77 -54 -97c51 -18 80 -59 80 -114c0 -73 -50 -124 -137 -124h-196zM256 207h-109v-150h109c44 0 74 31 74 75s-30 75 -74 75zM147 260h94c38 0 65 27 65 66s-27 66 -65 66h-94v-132z" />
    <glyph glyph-name="afii10068" unicode="&#x433;" horiz-adv-x="360" 
d="M147 390v-390h-75v450h255v-60h-180z" />
    <glyph glyph-name="afii10069" unicode="&#x434;" horiz-adv-x="542" 
d="M504 60v-200h-70v140h-332v-140h-70v200c50 0 94 47 94 119v271h315v-390h63zM199 390v-205c0 -59 -17 -97 -46 -125h213v330h-167z" />
    <glyph glyph-name="afii10070" unicode="&#x435;" horiz-adv-x="508" 
d="M465 204h-341c7 -87 66 -144 158 -144c50 0 91 17 119 46l45 -47c-41 -42 -98 -67 -169 -67c-138 0 -232 93 -232 235c0 136 85 230 217 230c134 0 203 -98 203 -253zM262 391c-75 0 -129 -51 -138 -132h266c-9 81 -54 132 -128 132z" />
    <glyph glyph-name="afii10071" unicode="&#x451;" horiz-adv-x="508" 
d="M465 204h-341c7 -87 66 -144 158 -144c50 0 91 17 119 46l45 -47c-41 -42 -98 -67 -169 -67c-138 0 -232 93 -232 235c0 136 85 230 217 230c134 0 203 -98 203 -253zM262 391c-75 0 -129 -51 -138 -132h266c-9 81 -54 132 -128 132zM119 562c0 27 21 48 47 48
c27 0 48 -21 48 -48c0 -26 -21 -47 -48 -47c-26 0 -47 21 -47 47zM306 562c0 27 21 48 48 48s48 -21 48 -48c0 -26 -21 -47 -48 -47s-48 21 -48 47z" />
    <glyph glyph-name="afii10072" unicode="&#x436;" horiz-adv-x="651" 
d="M542 0l-179 233v-233h-75v234l-180 -234h-86l184 237l-167 213h86l163 -211v211h75v-209l162 209h87l-168 -213l184 -237h-86z" />
    <glyph glyph-name="afii10073" unicode="&#x437;" horiz-adv-x="404" 
d="M185 457c93 0 149 -50 149 -120c0 -42 -21 -80 -59 -102c53 -18 80 -61 80 -114c0 -76 -56 -129 -166 -129c-76 0 -117 26 -158 67l42 43c31 -33 68 -47 111 -47c63 0 96 32 96 77c0 44 -31 72 -75 72h-81v54h63c46 0 73 30 73 66s-26 71 -82 71c-34 0 -71 -14 -97 -43
l-43 42c39 41 85 63 147 63z" />
    <glyph glyph-name="afii10074" unicode="&#x438;" horiz-adv-x="532" 
d="M147 450v-329l253 329h60v-450h-75v329l-253 -329h-60v450h75z" />
    <glyph glyph-name="afii10075" unicode="&#x439;" horiz-adv-x="532" 
d="M266 582c43 0 77 16 102 42l39 -39c-36 -37 -83 -59 -141 -59s-105 23 -141 60l39 39c25 -26 59 -43 102 -43zM147 450v-329l253 329h60v-450h-75v329l-253 -329h-60v450h75z" />
    <glyph glyph-name="afii10076" unicode="&#x43a;" horiz-adv-x="459" 
d="M147 0h-75v450h75v-208l183 208h90l-190 -213l206 -237h-89l-200 231v-231z" />
    <glyph glyph-name="afii10077" unicode="&#x43b;" horiz-adv-x="497" 
d="M32 0v50c49 0 83 27 83 105v295h310v-450h-75v390h-163v-238c0 -107 -44 -157 -114 -157c-13 0 -32 2 -41 5z" />
    <glyph glyph-name="afii10078" unicode="&#x43c;" horiz-adv-x="599" 
d="M72 0v450h72l155 -269l156 269h71v-450h-70v331l-135 -241h-43l-136 241v-331h-70z" />
    <glyph glyph-name="afii10079" unicode="&#x43d;" horiz-adv-x="527" 
d="M147 450v-193h233v193h75v-450h-75v197h-233v-197h-75v450h75z" />
    <glyph glyph-name="afii10080" unicode="&#x43e;" horiz-adv-x="549" 
d="M44 225c0 138 93 232 230 232s231 -94 231 -232c0 -139 -94 -233 -231 -233s-230 94 -230 233zM121 225c0 -98 62 -165 153 -165c90 0 153 67 153 165s-63 165 -153 165c-91 0 -153 -67 -153 -165z" />
    <glyph glyph-name="afii10081" unicode="&#x43f;" horiz-adv-x="517" 
d="M370 0v390h-223v-390h-75v450h373v-450h-75z" />
    <glyph glyph-name="afii10082" unicode="&#x440;" horiz-adv-x="541" 
d="M72 450h75v-38c35 29 81 45 133 45c129 0 216 -94 216 -232c0 -139 -92 -233 -228 -233c-46 0 -87 11 -121 32v-274h-75v700zM418 225c0 98 -64 165 -157 165c-47 0 -87 -17 -114 -45v-243c27 -27 67 -42 114 -42c93 0 157 67 157 165z" />
    <glyph glyph-name="afii10083" unicode="&#x441;" horiz-adv-x="477" 
d="M122 225c0 -98 64 -165 157 -165c49 0 89 17 116 46l47 -47c-41 -42 -98 -67 -167 -67c-137 0 -230 94 -230 233c0 138 93 232 230 232c69 0 126 -25 167 -68l-47 -46c-27 29 -67 47 -116 47c-93 0 -157 -67 -157 -165z" />
    <glyph glyph-name="afii10084" unicode="&#x442;" horiz-adv-x="414" 
d="M245 390v-390h-75v390h-140v60h355v-60h-140z" />
    <glyph glyph-name="afii10085" unicode="&#x443;" horiz-adv-x="493" 
d="M477 450l-308 -700h-83l125 250l-196 450h84l147 -360l148 360h83z" />
    <glyph glyph-name="afii10086" unicode="&#x444;" horiz-adv-x="680" 
d="M402 -5c-8 0 -17 0 -25 1v-246h-75v246c-8 -1 -16 -1 -25 -1c-138 0 -232 91 -232 230c0 138 94 230 232 230c9 0 17 -1 25 -2v297h75v-297c8 1 17 2 25 2c139 0 233 -92 233 -230c0 -139 -94 -230 -233 -230zM402 390c-8 0 -17 -1 -25 -2v-327c8 -1 17 -1 25 -1
c92 0 155 67 155 165s-63 165 -155 165zM122 225c0 -98 63 -165 155 -165c9 0 17 0 25 1v327c-8 1 -16 2 -25 2c-92 0 -155 -67 -155 -165z" />
    <glyph glyph-name="afii10087" unicode="&#x445;" horiz-adv-x="498" 
d="M372 0l-133 181l-132 -181h-87l170 229l-163 221h88l124 -172l125 172h87l-163 -221l171 -229h-87z" />
    <glyph glyph-name="afii10088" unicode="&#x446;" horiz-adv-x="535" 
d="M72 0v450h75v-390h220v390h75v-390h63v-200h-70v140h-363z" />
    <glyph glyph-name="afii10089" unicode="&#x447;" horiz-adv-x="465" 
d="M393 0h-75v187c-33 -12 -74 -17 -105 -17c-99 0 -153 55 -153 148v132h75v-129c0 -52 29 -89 95 -89c28 0 65 7 88 20v198h75v-450z" />
    <glyph glyph-name="afii10090" unicode="&#x448;" horiz-adv-x="710" 
d="M562 60v390h75v-450h-565v450h75v-390h170v390h75v-390h170z" />
    <glyph glyph-name="afii10091" unicode="&#x449;" horiz-adv-x="730" 
d="M72 0v450h75v-390h170v390h75v-390h170v390h75v-390h63v-200h-70v140h-558z" />
    <glyph glyph-name="afii10092" unicode="&#x44a;" horiz-adv-x="508" 
d="M321 0h-166v390h-120v60h195v-188h91c91 0 144 -55 144 -131s-53 -131 -144 -131zM318 205h-88v-148h88c43 0 72 31 72 74s-29 74 -72 74z" />
    <glyph glyph-name="afii10093" unicode="&#x44b;" horiz-adv-x="603" 
d="M72 0v450h75v-188h91c92 0 145 -55 145 -131s-53 -131 -145 -131h-166zM236 205h-89v-148h89c42 0 72 31 72 74s-30 74 -72 74zM455 0v450h75v-450h-75z" />
    <glyph glyph-name="afii10094" unicode="&#x44c;" horiz-adv-x="425" 
d="M72 0v450h75v-188h91c92 0 145 -55 145 -131s-53 -131 -145 -131h-166zM236 205h-89v-148h89c42 0 72 31 72 74s-30 74 -72 74z" />
    <glyph glyph-name="afii10095" unicode="&#x44d;" horiz-adv-x="475" 
d="M150 199v57h202c-12 81 -74 134 -157 134c-48 0 -89 -17 -116 -47l-46 47c40 43 98 67 166 67c138 0 231 -94 231 -232c0 -139 -93 -233 -231 -233c-68 0 -126 25 -166 68l46 47c27 -30 68 -47 116 -47c84 0 147 55 158 139h-203z" />
    <glyph glyph-name="afii10096" unicode="&#x44e;" horiz-adv-x="739" 
d="M146 450v-193h109c13 120 99 200 220 200c131 0 220 -94 220 -232c0 -139 -89 -233 -220 -233c-122 0 -209 81 -220 205h-109v-197h-75v450h75zM332 225c0 -98 59 -165 143 -165c85 0 143 67 143 165s-58 165 -143 165c-84 0 -143 -67 -143 -165z" />
    <glyph glyph-name="afii10097" unicode="&#x44f;" horiz-adv-x="468" 
d="M395 450v-450h-75v184h-80l-109 -184h-79l116 188c-68 14 -106 63 -106 129c0 78 54 133 147 133h186zM212 242h108v150h-108c-44 0 -75 -31 -75 -75s31 -75 75 -75z" />
    <glyph glyph-name="afii10098" unicode="&#x491;" horiz-adv-x="365" 
d="M147 390v-390h-75v450h185v100h60v-160h-170z" />
    <glyph glyph-name="afii10099" unicode="&#x452;" horiz-adv-x="538" 
d="M333 -250v50c32 0 55 17 55 53v419c0 70 -45 118 -112 118c-47 0 -87 -17 -114 -45v-345h-75v590h-57v60h57v100h75v-100h173v-60h-173v-178c35 29 80 45 132 45c102 0 169 -75 169 -185v-421c0 -66 -38 -106 -97 -106c-10 0 -26 2 -33 5z" />
    <glyph glyph-name="afii10100" unicode="&#x453;" horiz-adv-x="360" 
d="M136 550l126 126l39 -39l-126 -126zM147 390v-390h-75v450h255v-60h-180z" />
    <glyph glyph-name="afii10101" unicode="&#x454;" horiz-adv-x="472" 
d="M276 390c-82 0 -142 -53 -155 -134h229v-57h-230c11 -84 72 -139 156 -139c48 0 88 17 114 46l47 -47c-40 -42 -97 -67 -165 -67c-136 0 -228 94 -228 233c0 138 92 232 228 232c68 0 125 -25 165 -68l-47 -46c-26 29 -66 47 -114 47z" />
    <glyph glyph-name="afii10102" unicode="&#x455;" horiz-adv-x="382" 
d="M325 403l-44 -44c-19 21 -58 35 -88 35c-48 0 -67 -35 -67 -63c0 -40 40 -55 93 -77c59 -25 118 -53 118 -126c0 -67 -49 -136 -150 -136c-58 0 -113 23 -148 61l44 44c23 -27 64 -42 99 -42c59 0 80 40 80 70c0 36 -32 50 -89 74c-63 25 -122 53 -122 130
c0 65 43 128 136 128c52 0 104 -19 138 -54z" />
    <glyph glyph-name="afii10103" unicode="&#x456;" 
d="M72 0v450h75v-450h-75zM60 585c0 28 22 50 50 50s50 -22 50 -50s-22 -50 -50 -50s-50 22 -50 50z" />
    <glyph glyph-name="afii10104" unicode="&#x457;" 
d="M72 0v450h75v-450h-75zM-14 560c0 26 21 47 47 47c27 0 48 -21 48 -47c0 -27 -21 -48 -48 -48c-26 0 -47 21 -47 48zM138 560c0 27 21 48 48 48s48 -21 48 -48s-21 -48 -48 -48s-48 21 -48 48z" />
    <glyph glyph-name="afii10105" unicode="&#x458;" 
d="M60 585c0 28 22 50 50 50s50 -22 50 -50s-22 -50 -50 -50s-50 22 -50 50zM7 -250v50c40 0 65 20 65 63v587h75v-589c0 -73 -41 -116 -105 -116c-12 0 -28 2 -35 5z" />
    <glyph glyph-name="afii10106" unicode="&#x459;" horiz-adv-x="698" 
d="M350 0v390h-158v-243c0 -107 -46 -152 -117 -152c-13 0 -32 2 -40 5v50c52 0 82 22 82 100v300h308v-188h91c91 0 144 -55 144 -131s-53 -131 -144 -131h-166zM513 205h-88v-148h88c43 0 72 31 72 74s-29 74 -72 74z" />
    <glyph glyph-name="afii10107" unicode="&#x45a;" horiz-adv-x="728" 
d="M147 450v-191h228v191h75v-191h97c89 0 141 -53 141 -130c0 -76 -52 -129 -141 -129h-172v199h-228v-199h-75v450h75zM545 199h-95v-142h95c40 0 68 29 68 71c0 43 -28 71 -68 71z" />
    <glyph glyph-name="afii10108" unicode="&#x45b;" horiz-adv-x="538" 
d="M30 590v60h57v100h75v-100h173v-60h-173v-178c35 29 80 45 132 45c102 0 169 -75 169 -185v-272h-75v272c0 70 -45 118 -112 118c-47 0 -87 -17 -114 -45v-345h-75v590h-57z" />
    <glyph glyph-name="afii10109" unicode="&#x45c;" horiz-adv-x="459" 
d="M147 0h-75v450h75v-208l183 208h90l-190 -213l206 -237h-89l-200 231v-231zM170 550l126 126l39 -39l-126 -126z" />
    <glyph glyph-name="afii10110" unicode="&#x45e;" horiz-adv-x="493" 
d="M477 450l-308 -700h-83l125 250l-196 450h84l147 -360l148 360h83zM247 582c43 0 77 16 102 42l39 -39c-36 -37 -83 -59 -141 -59s-105 23 -141 60l39 39c25 -26 59 -43 102 -43z" />
    <glyph glyph-name="afii10193" unicode="&#x45f;" horiz-adv-x="517" 
d="M223 -140v140h-151v450h75v-390h222v390h75v-450h-151v-140h-70z" />
    <glyph glyph-name="uni0450" unicode="&#x450;" horiz-adv-x="508" 
d="M465 204h-341c7 -87 66 -144 158 -144c50 0 91 17 119 46l45 -47c-41 -42 -98 -67 -169 -67c-138 0 -232 93 -232 235c0 136 85 230 217 230c134 0 203 -98 203 -253zM262 391c-75 0 -129 -51 -138 -132h266c-9 81 -54 132 -128 132zM197 676l126 -126l-39 -39l-126 126z
" />
    <glyph glyph-name="uni045D" unicode="&#x45d;" horiz-adv-x="532" 
d="M202 676l126 -126l-39 -39l-126 126zM147 450v-329l253 329h60v-450h-75v329l-253 -329h-60v450h75z" />
    <glyph glyph-name="afii10846" unicode="&#x4d9;" horiz-adv-x="503" 
d="M42 245h341c-7 87 -66 145 -158 145c-50 0 -91 -17 -119 -47l-45 47c41 43 98 67 169 67c138 0 232 -93 232 -235c0 -135 -86 -230 -215 -230c-130 0 -205 98 -205 253zM245 58c75 0 129 52 138 133h-266c9 -81 54 -133 128 -133z" />
    <glyph glyph-name="afii10069.alt" horiz-adv-x="566" 
d="M532 60v-200h-70v140h-358v-140h-70v200h47l167 390h71l165 -390h48zM283 364l-121 -304h241z" />
    <glyph glyph-name="afii10077.alt" horiz-adv-x="493" 
d="M15 0l196 450h70l196 -450h-83l-148 360l-147 -360h-84z" />
    <glyph glyph-name="afii10021.alt" horiz-adv-x="791" 
d="M680 0h-570v-170h-72v235h53l267 635h74l267 -635h54v-235h-73v170zM395 601l-214 -536h429z" />
    <glyph glyph-name="afii10029.alt" horiz-adv-x="731" 
d="M30 0l299 700h73l298 -700h-91l-243 599l-244 -599h-92z" />
    <glyph glyph-name="Aringacute" unicode="&#x1fa;" horiz-adv-x="731" 
d="M278 767c0 54 36 90 88 90c3 0 7 0 10 -1l118 118l39 -39l-103 -103c15 -16 24 -38 24 -65c0 -38 -18 -67 -46 -81l292 -686h-89l-83 200h-326l-82 -200h-90l293 686c-28 14 -45 43 -45 81zM366 601l-136 -331h270zM314 766c0 -32 21 -53 52 -53s52 21 52 53
c0 33 -22 54 -52 54c-31 0 -52 -21 -52 -54z" />
    <glyph glyph-name="aringacute" unicode="&#x1fb;" horiz-adv-x="453" 
d="M418 49v-50c-7 -3 -20 -5 -32 -5c-42 0 -71 19 -83 51c-34 -33 -79 -53 -129 -53c-89 0 -131 62 -131 130c0 93 76 140 185 140c43 0 68 -7 68 -7v60c0 39 -25 80 -94 80c-36 0 -78 -11 -103 -36l-39 39c40 40 89 59 148 59c111 0 163 -65 163 -142v-227
c0 -26 16 -39 47 -39zM126 570c0 54 36 90 88 90c5 0 11 0 16 -1l114 114l39 -39l-102 -102c13 -16 21 -37 21 -62c0 -54 -35 -90 -88 -90c-52 0 -88 36 -88 90zM196 55c34 0 73 14 100 42v105s-23 7 -62 7c-72 0 -116 -24 -116 -79c0 -37 20 -75 78 -75zM162 569
c0 -32 21 -53 52 -53s52 21 52 53c0 33 -22 54 -52 54c-31 0 -52 -21 -52 -54z" />
    <glyph glyph-name="afii10058.alt" horiz-adv-x="973" 
d="M30 0l299 700h73l130 -308h191c118 0 198 -77 198 -196s-80 -196 -198 -196h-114l-243 599l-244 -599h-92zM723 325h-161l108 -258h53c71 0 118 52 118 129s-47 129 -118 129z" />
    <glyph glyph-name="afii10106.alt" horiz-adv-x="671" 
d="M15 0l196 450h70l81 -188h132c89 0 141 -55 141 -131s-51 -131 -140 -131h-101l-148 360l-147 -360h-84zM491 205h-103l63 -148h41c40 0 68 31 68 74s-29 74 -69 74z" />
    <glyph glyph-name="uni20BD" unicode="&#x20bd;" horiz-adv-x="554" 
d="M30 315v60h75v325h190c122 0 204 -77 204 -197c0 -119 -82 -196 -204 -196h-110v-92h210v-60h-210v-155h-80v155h-75v60h75v100h-75zM419 503c0 78 -50 129 -124 129h-110v-257h110c74 0 124 51 124 128z" />
    <glyph glyph-name="at.case" horiz-adv-x="804" 
d="M632 130l37 -36c-63 -66 -159 -102 -265 -102c-212 0 -354 145 -354 358c0 212 143 357 353 357c216 0 351 -147 351 -329c0 -151 -94 -200 -166 -200c-40 0 -74 13 -89 37c-27 -24 -62 -37 -102 -37c-96 0 -160 69 -160 172c0 102 69 172 173 172c60 0 110 -21 139 -55
v-200c0 -25 24 -37 50 -37c44 0 95 35 95 142c0 160 -110 283 -290 283c-176 0 -294 -123 -294 -305c0 -183 117 -305 296 -305c89 0 173 30 226 85zM297 350c0 -73 45 -120 114 -120c33 0 60 10 80 29v187c-21 15 -49 23 -82 23c-69 0 -112 -47 -112 -119z" />
    <glyph glyph-name="exclamdown.case" 
d="M60 657c0 28 22 50 50 50s50 -22 50 -50s-22 -50 -50 -50s-50 22 -50 50zM72 507h75v-507h-75v507z" />
    <glyph glyph-name="questiondown.case" horiz-adv-x="471" 
d="M385 115l49 -49c-52 -48 -119 -74 -193 -74c-131 0 -196 87 -196 181c0 149 156 127 156 277v57h75v-57c0 -183 -154 -171 -154 -276c0 -52 35 -114 121 -114c52 0 108 22 142 55zM288 657c0 -28 -22 -50 -50 -50s-50 22 -50 50s22 50 50 50s50 -22 50 -50z" />
    <glyph glyph-name="dagger.case" horiz-adv-x="500" 
d="M60 477v60h152v213h75v-213h153v-60h-153v-527h-75v527h-152z" />
    <glyph glyph-name="daggerdbl.case" horiz-adv-x="500" 
d="M60 177v60h152v240h-152v60h152v213h75v-213h153v-60h-153v-240h153v-60h-153v-227h-75v227h-152z" />
    <glyph glyph-name="germandbls.case" horiz-adv-x="590" 
d="M150 520v-520h-78v520c0 111 78 187 193 187s193 -75 193 -185c0 -82 -48 -144 -123 -163c0 -128 208 -81 208 -239c0 -63 -49 -128 -150 -128c-58 0 -113 23 -148 61l46 46c24 -27 62 -43 97 -43c58 0 80 38 80 65c0 101 -208 67 -208 235v59c71 0 120 44 120 110
c0 67 -47 115 -115 115s-115 -50 -115 -120z" />
    <glyph glyph-name="parenleft.case" horiz-adv-x="297" 
d="M247 757v-57c-59 0 -110 -143 -110 -351c0 -207 51 -350 110 -350v-57c-105 0 -187 165 -187 408c0 242 82 407 187 407z" />
    <glyph glyph-name="parenright.case" horiz-adv-x="297" 
d="M50 700v57c105 0 187 -165 187 -407c0 -243 -82 -408 -187 -408v58c59 0 110 142 110 350s-51 350 -110 350z" />
    <glyph glyph-name="bracketleft.case" horiz-adv-x="297" 
d="M247 750v-60h-100v-680h100v-60h-175v800h175z" />
    <glyph glyph-name="bracketright.case" horiz-adv-x="297" 
d="M50 690v60h175v-800h-175v60h100v680h-100z" />
    <glyph glyph-name="braceleft.case" horiz-adv-x="317" 
d="M277 0v-58c-88 0 -157 71 -157 174v75c0 76 -37 129 -80 129v57c43 0 80 53 80 129v77c0 103 69 174 157 174v-57c-43 0 -80 -52 -80 -127v-76c0 -71 -34 -125 -84 -149c50 -23 84 -77 84 -148v-74c0 -75 37 -126 80 -126z" />
    <glyph glyph-name="braceright.case" horiz-adv-x="317" 
d="M40 -58v58c43 0 80 51 80 126v74c0 71 34 125 84 148c-50 24 -84 78 -84 149v76c0 75 -37 127 -80 127v57c88 0 157 -71 157 -174v-77c0 -76 37 -129 80 -129v-57c-43 0 -80 -53 -80 -129v-75c0 -103 -69 -174 -157 -174z" />
    <glyph glyph-name="guillemotleft.case" horiz-adv-x="470" 
d="M206 179l-171 171l171 171l39 -39l-132 -132l132 -132zM376 179l-171 171l171 171l39 -39l-132 -132l132 -132z" />
    <glyph glyph-name="guillemotright.case" horiz-adv-x="470" 
d="M430 350l-171 -171l-39 39l132 132l-132 132l39 39zM260 350l-171 -171l-39 39l132 132l-132 132l39 39z" />
    <glyph glyph-name="guilsinglleft.case" horiz-adv-x="300" 
d="M206 179l-171 171l171 171l39 -39l-132 -132l132 -132z" />
    <glyph glyph-name="guilsinglright.case" horiz-adv-x="300" 
d="M260 350l-171 -171l-39 39l132 132l-132 132l39 39z" />
    <glyph glyph-name="hyphen.case" horiz-adv-x="340" 
d="M60 320v60h220v-60h-220z" />
    <glyph glyph-name="endash.case" horiz-adv-x="500" 
d="M60 320v60h380v-60h-380z" />
    <glyph glyph-name="emdash.case" horiz-adv-x="700" 
d="M60 320v60h580v-60h-580z" />
    <glyph glyph-name="bar.case" 
d="M72 -50v800h75v-800h-75z" />
    <glyph glyph-name="brokenbar.case" 
d="M72 -50v350h75v-350h-75zM147 750v-350h-75v350h75z" />
    <glyph glyph-name="a.ord" horiz-adv-x="260" 
d="M237 483v-32c-5 -1 -12 -3 -19 -3c-25 0 -41 11 -49 28c-18 -18 -43 -29 -70 -29c-49 0 -72 34 -72 72c0 52 43 79 102 79c22 0 36 -5 36 -5v30c0 21 -14 42 -50 42c-19 0 -42 -7 -55 -20l-24 25c23 23 49 34 83 34c62 0 93 -36 93 -81v-119c0 -14 9 -21 25 -21zM113 487
c18 0 39 6 52 22v51s-12 5 -32 5c-36 0 -58 -13 -58 -40c0 -20 10 -38 38 -38z" />
    <glyph glyph-name="b.ord" horiz-adv-x="307" 
d="M143 447c-35 0 -74 8 -101 36v382h48v-179c18 12 41 18 66 18c72 0 122 -52 122 -129c0 -76 -48 -128 -135 -128zM229 575c0 51 -32 86 -80 86c-23 0 -44 -8 -59 -25v-129c15 -13 37 -17 57 -17c52 0 82 34 82 85z" />
    <glyph glyph-name="c.ord" horiz-adv-x="271" 
d="M78 576c0 -52 33 -86 81 -86c25 0 46 9 60 24l29 -30c-22 -23 -54 -37 -92 -37c-76 0 -127 52 -127 129c0 76 51 128 127 128c38 0 70 -14 92 -38l-29 -29c-14 15 -35 24 -60 24c-48 0 -81 -35 -81 -85z" />
    <glyph glyph-name="d.ord" horiz-adv-x="308" 
d="M265 452h-47v19c-19 -15 -44 -24 -72 -24c-70 0 -117 52 -117 129c0 76 50 128 125 128c24 0 46 -6 64 -16v177h47v-413zM78 576c0 -52 33 -86 81 -86c24 0 45 8 59 23v126c-14 14 -35 22 -59 22c-48 0 -81 -35 -81 -85z" />
    <glyph glyph-name="e.ord" horiz-adv-x="289" 
d="M262 562h-183c5 -44 35 -72 82 -72c26 0 47 9 61 24l29 -30c-23 -23 -54 -37 -94 -37c-76 0 -128 52 -128 130c0 75 47 127 120 127c76 0 113 -55 113 -142zM149 662c-38 0 -65 -25 -70 -66h135c-5 40 -27 66 -65 66z" />
    <glyph glyph-name="egrave.ord" horiz-adv-x="289" 
d="M262 562h-183c5 -44 35 -72 82 -72c26 0 47 9 61 24l29 -30c-23 -23 -54 -37 -94 -37c-76 0 -128 52 -128 130c0 75 47 127 120 127c76 0 113 -55 113 -142zM149 662c-38 0 -65 -25 -70 -66h135c-5 40 -27 66 -65 66zM114 827l72 -72l-25 -24l-71 72z" />
    <glyph glyph-name="f.ord" horiz-adv-x="190" 
d="M22 662v38h34v81c0 53 35 88 87 88c11 0 21 -2 31 -6v-40c-6 3 -14 5 -22 5c-28 0 -47 -19 -47 -47v-81h69v-38h-69v-210h-49v210h-34z" />
    <glyph glyph-name="g.ord" horiz-adv-x="284" 
d="M16 388c0 32 22 55 55 67c-21 10 -30 24 -30 41s10 32 32 42c-27 14 -40 42 -40 74c0 56 40 92 99 92c27 0 50 -8 67 -22c13 14 30 22 48 22c5 0 9 -1 14 -2v-37c-4 1 -6 1 -11 1c-12 0 -22 -4 -29 -10c6 -12 10 -27 10 -43c0 -53 -40 -90 -100 -90
c-29 0 -45 -11 -45 -26s21 -25 54 -25c72 0 119 -31 119 -78c0 -50 -55 -84 -128 -84c-71 0 -115 32 -115 78zM65 388c0 -25 24 -41 65 -41c44 0 80 19 80 46c0 25 -28 42 -70 42c-45 0 -75 -19 -75 -47zM80 613c0 -31 21 -52 53 -52c31 0 53 21 53 52s-22 53 -53 53
c-32 0 -53 -22 -53 -53z" />
    <glyph glyph-name="h.ord" horiz-adv-x="297" 
d="M42 865h48v-185c19 15 43 24 70 24c57 0 93 -42 93 -103v-149h-47v149c0 36 -23 60 -58 60c-25 0 -44 -8 -58 -23v-186h-48v413z" />
    <glyph glyph-name="i.ord" horiz-adv-x="133" 
d="M42 452v248h48v-248h-48zM36 774c0 17 13 30 30 30s31 -13 31 -30s-14 -31 -31 -31s-30 14 -30 31z" />
    <glyph glyph-name="j.ord" horiz-adv-x="132" 
d="M35 774c0 17 14 30 31 30s30 -13 30 -30s-13 -31 -30 -31s-31 14 -31 31zM8 315v30c21 0 34 12 34 34v321h48v-322c0 -41 -23 -66 -62 -66c-7 0 -16 0 -20 3z" />
    <glyph glyph-name="k.ord" horiz-adv-x="266" 
d="M90 452h-48v413h48v-273l92 108h57l-101 -116l112 -132h-56l-104 123v-123z" />
    <glyph glyph-name="l.ord" horiz-adv-x="147" 
d="M126 483v-31c-5 -2 -15 -3 -22 -3c-39 0 -62 25 -62 66v350h48v-349c0 -22 14 -33 36 -33z" />
    <glyph glyph-name="m.ord" horiz-adv-x="429" 
d="M339 452v164c0 27 -17 45 -42 45s-47 -8 -61 -21c1 -8 2 -16 2 -24v-164h-48v164c0 27 -16 45 -42 45c-25 0 -44 -8 -58 -23v-186h-48v248h48v-20c19 15 43 24 70 24c28 0 50 -13 64 -34c21 22 50 34 85 34c47 0 77 -36 77 -88v-164h-47z" />
    <glyph glyph-name="n.ord" horiz-adv-x="296" 
d="M42 700h48v-20c19 15 43 24 70 24c57 0 93 -42 93 -103v-149h-47v149c0 36 -23 60 -58 60c-25 0 -44 -8 -58 -23v-186h-48v248z" />
    <glyph glyph-name="o.ord" horiz-adv-x="311" 
d="M28 576c0 76 51 128 127 128s128 -52 128 -128c0 -77 -52 -129 -128 -129s-127 52 -127 129zM77 576c0 -52 32 -86 78 -86s79 34 79 86c0 50 -33 85 -79 85s-78 -35 -78 -85z" />
    <glyph glyph-name="p.ord" horiz-adv-x="308" 
d="M42 700h48v-20c19 15 43 24 71 24c70 0 118 -52 118 -128c0 -77 -51 -129 -125 -129c-25 0 -46 5 -64 16v-148h-48v385zM229 576c0 50 -32 85 -81 85c-24 0 -44 -8 -58 -23v-126c14 -15 34 -22 58 -22c49 0 81 34 81 86z" />
    <glyph glyph-name="q.ord" horiz-adv-x="307" 
d="M162 704c42 0 82 -14 102 -37v-352h-47v151c-19 -12 -41 -19 -67 -19c-72 0 -121 52 -121 129c0 76 50 128 133 128zM78 576c0 -51 32 -86 80 -86c23 0 45 8 59 25v129c-15 11 -36 17 -57 17c-51 0 -82 -35 -82 -85z" />
    <glyph glyph-name="r.ord" horiz-adv-x="194" 
d="M155 703c5 0 11 -1 16 -2v-41c-6 2 -13 2 -19 2c-26 0 -49 -13 -62 -33v-177h-48v248h48v-29c18 20 41 32 65 32z" />
    <glyph glyph-name="s.ord" horiz-adv-x="219" 
d="M187 673l-28 -28c-10 11 -31 19 -46 19c-24 0 -34 -17 -34 -31c0 -20 22 -28 49 -39c32 -14 64 -29 64 -70c0 -39 -28 -77 -84 -77c-33 0 -63 13 -83 34l28 28c12 -14 34 -22 52 -22c29 0 40 19 40 34c0 18 -15 25 -46 38c-33 13 -67 29 -67 73c0 37 25 72 77 72
c29 0 58 -11 78 -31z" />
    <glyph glyph-name="t.ord" horiz-adv-x="187" 
d="M20 662v38h31v55h49v-55h63v-38h-63v-131c0 -25 16 -43 41 -43c8 0 15 2 22 5v-40c-10 -4 -21 -6 -30 -6c-51 0 -82 33 -82 84v131h-31z" />
    <glyph glyph-name="u.ord" horiz-adv-x="301" 
d="M258 700v-145c0 -64 -44 -108 -108 -108s-108 44 -108 108v145h49v-145c0 -39 25 -65 60 -65c36 0 60 26 60 65v145h47z" />
    <glyph glyph-name="uacute.ord" horiz-adv-x="301" 
d="M258 700v-145c0 -64 -44 -108 -108 -108s-108 44 -108 108v145h49v-145c0 -39 25 -65 60 -65c36 0 60 26 60 65v145h47zM113 755l71 72l25 -24l-71 -72z" />
    <glyph glyph-name="v.ord" horiz-adv-x="281" 
d="M270 700l-108 -248h-43l-108 248h53l76 -189l77 189h53z" />
    <glyph glyph-name="w.ord" horiz-adv-x="420" 
d="M408 700l-91 -248h-50l-57 181l-58 -181h-49l-92 248h55l61 -191l58 191h48l59 -191l61 191h55z" />
    <glyph glyph-name="x.ord" horiz-adv-x="276" 
d="M207 452l-69 96l-69 -96h-55l93 126l-89 122h56l64 -92l64 92h56l-89 -122l93 -126h-55z" />
    <glyph glyph-name="y.ord" horiz-adv-x="281" 
d="M270 700l-169 -385h-53l71 137l-108 248h53l76 -191l77 191h53z" />
    <glyph glyph-name="z.ord" horiz-adv-x="265" 
d="M32 662v38h204v-17l-137 -193h137v-38h-207v16l137 194h-134z" />
    <glyph glyph-name="minus.sup" horiz-adv-x="225" 
d="M32 477v35h161v-35h-161z" />
    <glyph glyph-name="minus.sub" horiz-adv-x="225" 
d="M32 77v35h161v-35h-161z" />
    <glyph glyph-name="plus.sup" horiz-adv-x="225" 
d="M32 477v35h62v63h36v-63h63v-35h-63v-63h-36v63h-62z" />
    <glyph glyph-name="plusminus.sup" horiz-adv-x="225" 
d="M32 483v36h62v62h36v-62h63v-36h-63v-63h-36v63h-62zM32 369v35h161v-35h-161z" />
    <glyph glyph-name="plus.sub" horiz-adv-x="225" 
d="M32 77v35h62v63h36v-63h63v-35h-63v-63h-36v63h-62z" />
    <glyph glyph-name="plusminus.sub" horiz-adv-x="225" 
d="M32 83v36h62v62h36v-62h63v-36h-63v-63h-36v63h-62zM32 -31v35h161v-35h-161z" />
    <glyph glyph-name="afii10021.alt.smcp" horiz-adv-x="600" 
d="M502 0h-404v-122h-63v178h38l195 448h64l195 -448h38v-178h-63v122zM300 418l-149 -362h298z" />
    <glyph glyph-name="afii10029.alt.smcp" horiz-adv-x="564" 
d="M29 0l221 504h63l221 -504h-79l-173 415l-173 -415h-80z" />
    <glyph glyph-name="Aringacute.smcp" horiz-adv-x="564" 
d="M194 574c0 54 36 90 88 90c15 0 29 -3 41 -9l112 112l39 -39l-113 -113c6 -12 9 -26 9 -41c0 -40 -20 -70 -51 -83l215 -491h-78l-57 134h-235l-57 -134h-78l215 491c-31 13 -50 43 -50 83zM282 417l-94 -223h187zM230 573c0 -32 21 -53 52 -53s52 21 52 53
c0 33 -22 54 -52 54c-31 0 -52 -21 -52 -54z" />
    <glyph glyph-name="dollar.smcp" horiz-adv-x="425" 
d="M192 -72v67c-58 4 -110 29 -149 68l42 42c26 -29 68 -48 107 -51v173c-66 24 -136 54 -136 143c0 71 43 135 136 139v67h38v-68c48 -6 94 -27 128 -60l-42 -43c-20 20 -53 37 -86 42v-164c67 -26 142 -54 142 -142c0 -72 -48 -138 -142 -146v-67h-38zM302 140
c0 37 -32 56 -72 72v-156c51 11 72 52 72 84zM125 372c0 -38 29 -58 67 -74v149c-48 -8 -67 -46 -67 -75z" />
    <glyph glyph-name="afii10058.alt.smcp" horiz-adv-x="745" 
d="M29 0l221 504h63l94 -216h140c90 0 151 -57 151 -144c0 -88 -61 -144 -151 -144h-92l-173 415l-173 -415h-80zM547 230h-114l75 -172h39c49 0 81 34 81 86c0 51 -32 86 -81 86z" />
    <glyph glyph-name="uni20BD.smcp" horiz-adv-x="433" 
d="M31 222v52h53v230h145c92 0 155 -57 155 -144c0 -88 -63 -145 -155 -145h-76v-58h150v-52h-150v-105h-69v105h-53v52h53v65h-53zM315 360c0 51 -35 86 -86 86h-76v-172h76c51 0 86 34 86 86z" />
    <glyph glyph-name="copyright.smcp" horiz-adv-x="589" 
d="M40 252c0 153 103 257 254 257c152 0 255 -104 255 -257s-103 -258 -255 -258c-151 0 -254 105 -254 258zM86 252c0 -132 85 -222 208 -222c124 0 209 90 209 222c0 131 -85 222 -209 222c-123 0 -208 -91 -208 -222zM209 252c0 -57 38 -97 93 -97c28 0 51 10 67 26
l24 -22c-23 -23 -55 -36 -93 -36c-76 0 -128 52 -128 129c0 76 52 129 128 129c38 0 70 -13 93 -36l-24 -23c-16 16 -39 26 -67 26c-55 0 -93 -40 -93 -96z" />
    <glyph glyph-name="registered.smcp" horiz-adv-x="589" 
d="M40 252c0 153 103 257 254 257c152 0 255 -104 255 -257s-103 -258 -255 -258c-151 0 -254 105 -254 258zM86 252c0 -132 85 -222 208 -222c124 0 209 90 209 222c0 131 -85 222 -209 222c-123 0 -208 -91 -208 -222zM342 125l-56 107h-28v-107h-38v252h75
c46 0 78 -28 78 -73c0 -35 -20 -59 -50 -68l61 -111h-42zM335 304c0 25 -16 41 -40 41h-37v-82h37c24 0 40 17 40 41z" />
    <glyph glyph-name="arrowleft" unicode="&#x2190;" horiz-adv-x="993" 
d="M405 -4l-354 354l354 354l49 -50l-270 -269h733v-70h-733l270 -269z" />
    <glyph glyph-name="arrowright" unicode="&#x2192;" horiz-adv-x="993" 
d="M76 315v70h732l-269 269l49 50l354 -354l-354 -354l-50 50l270 269h-732z" />
    <glyph glyph-name="arrowup" unicode="&#x2191;" horiz-adv-x="809" 
d="M370 -162v733l-270 -270l-49 49l354 354l353 -354l-49 -49l-269 270v-733h-70z" />
    <glyph glyph-name="arrowdown" unicode="&#x2193;" horiz-adv-x="809" 
d="M405 -166l-354 354l49 49l270 -270v733h70v-733l269 270l49 -49z" />
    </font>
</defs>
</svg>
